<svg xmlns="http://www.w3.org/2000/svg" width="930" height="166" fill="none" xmlns:v="https://vecta.io/nano"><rect width="930" height="166" rx="5" fill="#272754"/><mask id="A" mask-type="alpha" maskUnits="userSpaceOnUse" x="0" y="0" width="930" height="166"><rect width="930" height="166" rx="5" fill="#272754"/></mask><g mask="url(#A)"><g opacity=".1"><path d="M-13.087 149.462l19.311-19.311 1.935 1.935-19.311 19.311-1.935-1.935zm-13.546-13.546l8.214-1.441-1.462-11.118 11.117 1.462 1.441-8.214 11.611 11.611-19.311 19.311-11.611-11.611zm5.648 1.785l5.959 5.959L.422 128.212l-5.959-5.96-.986 5.619-10.184-1.34 1.34 10.184-5.62.985.001.001z" fill="#c3ee39"/><path d="M61.746 78.499a4.77 4.77 0 0 1-2.448 1.307 4.79 4.79 0 0 1-2.765-.275 4.8 4.8 0 0 1-2.149-1.764 4.79 4.79 0 0 1-.809-2.659c-.001-.946.279-1.871.803-2.657a4.77 4.77 0 0 1 2.145-1.76 4.78 4.78 0 0 1 2.764-.269c.928.185 1.781.642 2.451 1.312.898.898 1.404 2.116 1.405 3.384s-.501 2.485-1.398 3.382zm-1.935-1.935c.287-.287.481-.652.56-1.049a2.05 2.05 0 0 0-.118-1.185c-.156-.375-.419-.695-.756-.921s-.734-.346-1.139-.347-.802.119-1.139.344-.599.545-.754.919a2.05 2.05 0 0 0-.115 1.185c.08.398.275.763.562 1.05.385.385.907.602 1.45.602s1.065-.215 1.449-.599zm-19.329 1.913a4.77 4.77 0 0 1-2.448 1.307c-.928.184-1.89.088-2.764-.275a4.8 4.8 0 0 1-2.149-1.764c-.526-.787-.808-1.713-.809-2.659s.279-1.871.803-2.657a4.77 4.77 0 0 1 2.145-1.76 4.78 4.78 0 0 1 2.764-.269c.928.186 1.781.642 2.451 1.312.898.898 1.404 2.116 1.405 3.384s-.501 2.485-1.398 3.382zm-1.935-1.935c.287-.287.481-.652.56-1.049a2.05 2.05 0 0 0-.118-1.185c-.156-.375-.419-.695-.756-.921s-.734-.346-1.139-.347a2.05 2.05 0 0 0-1.139.344c-.337.225-.599.545-.754.919a2.05 2.05 0 0 0-.115 1.185c.08.398.275.763.562 1.05.385.385.907.602 1.45.602s1.065-.215 1.449-.599zm7.798-16.478l2.733.003.033 30.071-2.733-.003-.034-30.07.001-.001z" fill="#6d75d8"/><path d="M107.08 29.294l-.915 7.688-17.901-17.9a1.37 1.37 0 0 1-.401-.967c0-.363.143-.71.399-.966l17.38-17.38c.256-.256.604-.4.966-.399a1.37 1.37 0 0 1 .967.401l13.547 13.546a1.37 1.37 0 0 1 .401.967c0 .363-.143.71-.399.966L107.08 29.294zm-2.966 1.775l.362-3.042 13.747-13.747L106.612 2.67 91.163 18.119l12.951 12.951zm1.545-15.836l3.87 3.87-1.931 1.931-3.871-3.87-2.896 2.897-.008-7.733 7.732.008-2.896 2.897z" fill="#15719a"/></g><g opacity=".1"><path d="M138.746 154.327a4.76 4.76 0 0 1-2.448 1.307c-.928.184-1.89.088-2.765-.275s-1.622-.977-2.149-1.764a4.8 4.8 0 0 1-.809-2.659c-.001-.946.279-1.871.804-2.657a4.77 4.77 0 0 1 2.145-1.76 4.78 4.78 0 0 1 2.764-.269 4.8 4.8 0 0 1 3.856 4.696c.001 1.269-.502 2.485-1.398 3.381zm-1.935-1.935c.286-.286.481-.651.56-1.049s.038-.81-.118-1.185-.419-.695-.756-.921-.734-.346-1.14-.346a2.04 2.04 0 0 0-1.138.344 2.05 2.05 0 0 0-.755.919c-.154.375-.195.787-.115 1.185a2.05 2.05 0 0 0 .562 1.05c.385.385.907.602 1.451.602s1.065-.215 1.449-.599zm-19.329 1.913a4.78 4.78 0 0 1-2.449 1.307 4.79 4.79 0 0 1-4.913-2.04c-.527-.787-.808-1.712-.809-2.659s.278-1.87.803-2.657a4.78 4.78 0 0 1 2.146-1.76c.873-.361 1.835-.454 2.763-.269a4.79 4.79 0 0 1 3.856 4.697 4.77 4.77 0 0 1-1.397 3.381zm-1.936-1.935a2.04 2.04 0 0 0 .56-1.049c.079-.398.038-.81-.117-1.185a2.06 2.06 0 0 0-.757-.921c-.337-.226-.734-.346-1.139-.347s-.802.12-1.139.344-.599.545-.754.92a2.05 2.05 0 0 0-.116 1.184 2.06 2.06 0 0 0 .563 1.051c.385.385.906.601 1.45.602a2.05 2.05 0 0 0 1.449-.599zm7.799-16.478l2.733.003.033 30.071-2.734-.003-.033-30.07.001-.001z" fill="#6d75d8"/><path d="M241.696 29.985c-.816.021-1.616-.239-2.264-.738l-3.369-2.597-1.199 4.08a3.54 3.54 0 0 1-1.397 1.925l-3.505 2.396 3.508 2.407a3.56 3.56 0 0 1 1.4 1.928l1.207 4.076 3.364-2.59c.646-.497 1.445-.755 2.261-.732l4.248.12-1.426-4.006c-.274-.77-.276-1.61-.004-2.379l1.419-4.004-4.243.113zm5.407 5.359l2.362 6.636c.045.126.058.26.039.392a.81.81 0 0 1-.147.364.82.82 0 0 1-.301.253c-.119.059-.251.088-.384.084l-7.039-.197a.82.82 0 0 0-.521.169l-5.577 4.285a.82.82 0 0 1-.36.157c-.131.022-.266.012-.393-.029s-.241-.113-.334-.208a.82.82 0 0 1-.199-.339l-2-6.755c-.054-.182-.17-.34-.327-.447l-5.806-3.985a.82.82 0 0 1-.262-.294c-.062-.118-.095-.249-.095-.383a.82.82 0 0 1 .094-.382c.062-.118.152-.219.262-.294l5.798-3.979a.82.82 0 0 0 .326-.446l1.986-6.75a.82.82 0 0 1 .199-.339c.093-.095.207-.166.334-.207a.82.82 0 0 1 .392-.027c.132.023.255.077.361.159l5.585 4.296c.15.115.334.174.522.17l7.037-.183a.82.82 0 0 1 .384.085c.12.059.223.146.302.254s.129.233.148.365.006.266-.038.391l-2.349 6.631c-.063.177-.063.371.001.549v.006zm2.637 1.092l-.003-2.733 8.201.008.003 2.735-8.201-.01z" fill="#f98c34"/><path d="M184.08 105.123l-.915 7.688-17.901-17.9a1.37 1.37 0 0 1-.401-.967c0-.363.143-.71.399-.966l17.38-17.38c.256-.256.604-.4.966-.399a1.37 1.37 0 0 1 .967.401l13.547 13.546a1.37 1.37 0 0 1 .401.967c0 .362-.143.71-.399.966l-14.044 14.044zm-2.966 1.775l.362-3.042 13.747-13.747-11.611-11.611-15.449 15.449 12.951 12.951zm1.545-15.835l3.87 3.87-1.931 1.931-3.871-3.87-2.896 2.897-.008-7.733 7.732.008-2.896 2.897z" fill="#15719a"/></g><g opacity=".1"><path d="M418.825-4.023l2.733.003a10.94 10.94 0 0 0 .837 4.186c.551 1.327 1.358 2.534 2.374 3.55s2.223 1.823 3.55 2.374a10.95 10.95 0 0 0 4.186.837l.003 2.732a13.7 13.7 0 0 1-9.669-4.014c-2.566-2.566-4.009-6.044-4.013-9.669l-.001.001zm15.585-15.586c3.626.004 7.104 1.448 9.67 4.014a13.7 13.7 0 0 1 4.014 9.67l-2.733-.003c-.004-2.9-1.159-5.682-3.211-7.735a10.96 10.96 0 0 0-7.736-3.211l-.004-2.733v-.002zm-6.758 6.896l5.805 5.805 2.897-2.897 2.913 12.568-5.806-5.806-2.896 2.897-2.913-12.568zm-3.361 8.696l2.736.003a5.48 5.48 0 0 0 1.605 3.867c1.027 1.026 2.418 1.604 3.868 1.606l.002 2.735c-1.077-.001-2.144-.214-3.139-.627s-1.901-1.018-2.663-1.781-1.368-1.667-1.781-2.663-.626-2.062-.628-3.14zm10.126-10.126a8.22 8.22 0 0 1 8.21 8.21l-2.735-.003a5.48 5.48 0 0 0-5.472-5.472l-.004-2.734.001-.001z" fill="#7aaaf9"/><path d="M318.696 105.813c-.816.022-1.616-.239-2.264-.738l-3.369-2.596-1.199 4.08c-.23.784-.723 1.464-1.397 1.925l-3.505 2.396 3.508 2.407a3.56 3.56 0 0 1 1.4 1.928l1.207 4.076 3.364-2.59a3.55 3.55 0 0 1 2.261-.732l4.248.12-1.426-4.006c-.274-.77-.276-1.61-.004-2.379l1.419-4.004-4.243.113zm5.407 5.359l2.362 6.636c.045.125.058.26.039.392a.81.81 0 0 1-.448.617.81.81 0 0 1-.384.084l-7.039-.197a.82.82 0 0 0-.521.169l-5.577 4.285c-.106.081-.229.135-.36.157a.82.82 0 0 1-.393-.029c-.126-.041-.241-.112-.334-.208a.82.82 0 0 1-.199-.339l-2-6.755c-.054-.182-.17-.34-.327-.447l-5.806-3.984c-.11-.076-.2-.177-.262-.295a.82.82 0 0 1-.001-.764c.062-.118.152-.219.262-.294l5.798-3.979a.82.82 0 0 0 .326-.447l1.986-6.75a.82.82 0 0 1 .199-.339c.093-.095.207-.166.334-.207a.82.82 0 0 1 .392-.028c.132.023.255.077.361.159l5.585 4.295a.82.82 0 0 0 .522.17l7.037-.183c.133-.003.265.026.384.085s.223.146.302.254.129.233.148.365.006.266-.038.391l-2.349 6.631c-.063.178-.063.372.001.549v.006zm2.637 1.092l-.003-2.733 8.201.007.003 2.736-8.201-.01z" fill="#f98c34"/><path d="M261.08 180.951l-.915 7.688-17.901-17.9a1.37 1.37 0 0 1-.401-.967c0-.362.143-.71.399-.966l17.38-17.38a1.36 1.36 0 0 1 .966-.399c.363 0 .711.144.967.401l13.547 13.546a1.37 1.37 0 0 1 .401.967c0 .363-.143.71-.399.966l-14.044 14.044zm-2.966 1.776l.362-3.043 13.747-13.746-11.611-11.611-15.449 15.449 12.951 12.951zm1.545-15.836l3.87 3.87-1.931 1.932-3.871-3.871-2.896 2.897-.008-7.733 7.732.008-2.896 2.897z" fill="#15719a"/><path d="M375.509 35.561c.256-.256.603-.4.966-.399a1.37 1.37 0 0 1 .967.401l15.481 15.481c.257.257.401.604.401.967a1.36 1.36 0 0 1-.399.966l-17.38 17.38c-.256.256-.603.4-.966.399a1.37 1.37 0 0 1-.967-.401l-15.481-15.481a1.37 1.37 0 0 1-.402-.967c0-.362.144-.71.4-.966l17.38-17.38zm.969 2.901l-15.449 15.449 13.547 13.546 15.448-15.449-13.546-13.546zm-7.332 13.138l10.831 4.651-2.083 2.083-1.354-.581-3.177 3.177.582 1.354-2.079 2.079-4.651-10.83 1.931-1.931zm9.269-9.269l7.741 7.741-2.897 2.897a4.09 4.09 0 0 1-2.898 1.198 4.11 4.11 0 0 1-4.105-4.105c-.001-1.088.43-2.13 1.198-2.898l.965-.966-1.935-1.935 1.931-1.931zm1.94 5.801l-.966.966c-.246.246-.388.578-.398.926a1.37 1.37 0 0 0 1.247 1.402c.347.031.693-.071.966-.287l.12-.106.966-.966-1.935-1.935zm-9.383 7.225l1.228 2.865 1.633-1.634-2.861-1.231z" fill="#8c69e6"/></g><g opacity=".1"><path d="M492.913 118.29l19.311-19.311 1.935 1.936-19.311 19.311-1.935-1.936zm-13.546-13.546l8.214-1.441-1.462-11.117 11.117 1.462 1.442-8.214 11.611 11.611-19.311 19.311-11.611-11.611zm5.647 1.786l5.96 5.959 15.448-15.449-5.959-5.959-.986 5.619-10.184-1.34 1.34 10.184-5.62.985.001.001z" fill="#c3ee39"/><path d="M435.908 140.462l11.611 11.611a12.33 12.33 0 0 1 3.183 5.494c.563 2.078.571 4.265.025 6.344a12.27 12.27 0 0 1-8.608 8.711 12.3 12.3 0 0 1-6.343.051 12.33 12.33 0 0 1-5.532-3.117 12.34 12.34 0 0 1-3.25-5.456c-.588-2.07-.623-4.257-.102-6.343l2.696-10.098 2.68 2.68 3.64-9.877zm1.09 4.952l-3.639 9.878-2.352-2.351-1.381 5.184c-.449 1.579-.483 3.248-.1 4.846s1.17 3.071 2.287 4.278l.257.272a9.59 9.59 0 0 0 6.721 2.926c2.538.046 4.988-.918 6.812-2.679a9.55 9.55 0 0 0 2.911-6.715c.041-2.538-.928-4.99-2.694-6.817l-.232-.232-8.59-8.59zm-3.007 10.511c.955-.955 2.172-1.605 3.498-1.867s2.7-.126 3.949.393a6.86 6.86 0 0 1 3.07 2.52c.752 1.125 1.155 2.447 1.156 3.799s-.398 2.673-1.148 3.796-1.816 1.998-3.065 2.514a6.83 6.83 0 0 1-3.948.385c-1.326-.266-2.545-.918-3.501-1.875-1.284-1.283-2.005-3.022-2.007-4.835a6.82 6.82 0 0 1 1.996-4.83zm1.936 1.935c-.573.573-.963 1.303-1.121 2.098a4.11 4.11 0 0 0 1.749 4.212 4.1 4.1 0 0 0 2.279.693 4.09 4.09 0 0 0 2.277-.688c.674-.45 1.199-1.09 1.509-1.839s.389-1.574.23-2.369a4.11 4.11 0 0 0-4.025-3.305 4.09 4.09 0 0 0-2.898 1.198z" fill="#ff9964"/><path d="M567.746 47.328a4.77 4.77 0 0 1-2.448 1.307 4.79 4.79 0 0 1-2.765-.275c-.874-.363-1.622-.977-2.149-1.764s-.808-1.713-.809-2.659.279-1.871.804-2.657a4.77 4.77 0 0 1 2.145-1.76 4.78 4.78 0 0 1 2.764-.269 4.8 4.8 0 0 1 3.856 4.696c.001 1.269-.502 2.485-1.398 3.382zm-1.935-1.935a2.05 2.05 0 0 0 .56-1.049c.079-.398.038-.81-.118-1.185a2.06 2.06 0 0 0-.756-.921c-.338-.226-.734-.346-1.14-.347s-.801.119-1.138.344-.6.545-.755.919a2.05 2.05 0 0 0 .447 2.235c.385.385.907.601 1.451.602s1.065-.215 1.449-.599zm-19.329 1.913c-.669.668-1.521 1.123-2.449 1.307s-1.89.088-2.764-.275-1.623-.977-2.149-1.764a4.79 4.79 0 0 1-.809-2.659c-.001-.946.278-1.871.803-2.657a4.77 4.77 0 0 1 2.146-1.76c.873-.361 1.835-.455 2.763-.269a4.79 4.79 0 0 1 3.856 4.696 4.77 4.77 0 0 1-1.397 3.382zm-1.936-1.935c.287-.287.482-.652.56-1.049s.038-.81-.117-1.185-.419-.695-.757-.921a2.05 2.05 0 0 0-1.139-.347c-.406 0-.802.119-1.139.344s-.599.545-.754.919a2.05 2.05 0 0 0-.116 1.185 2.06 2.06 0 0 0 .563 1.05c.385.385.906.602 1.45.602s1.065-.215 1.449-.599zm7.799-16.478l2.733.003.033 30.071-2.734-.003-.033-30.07.001-.001z" fill="#6d75d8"/><path d="M613.08-1.877l-.915 7.688-17.901-17.9a1.37 1.37 0 0 1-.401-.967c0-.362.143-.71.399-.966l17.38-17.38c.256-.256.604-.4.966-.399a1.37 1.37 0 0 1 .967.401l13.547 13.546a1.37 1.37 0 0 1 .401.967c0 .363-.143.71-.399.966L613.08-1.877zm-2.966 1.775l.362-3.042 13.747-13.747-11.611-11.611-15.449 15.449L610.114-.102zm1.545-15.836l3.87 3.87-1.931 1.931-3.871-3.87-2.896 2.897-.008-7.732 7.732.008-2.896 2.897z" fill="#15719a"/></g><g opacity=".1"><path d="M614.127 146.897l7.724-7.725 4.858 24.17-8.708-8.709-6.759 6.759-5.824-23.204 8.709 8.709zm.004 3.866l-3.658-3.657 2.244 8.941 5.28-5.28 4.252 4.252-2.071-10.303-6.047 6.047z" fill="#f951d4"/><path d="M719.256 40.788c-.649.349-.896.111-.537-.557l12.747-23.727c.354-.657.899-.691 1.204-.103l11.258 21.68c.313.6.037.907-.61.688l-10.413-3.545-1.17-12.636-2.467 12.821-10.012 5.379z" fill="#5886ff"/><path d="M664.335 96.689c.256-.256.603-.4.966-.399a1.37 1.37 0 0 1 .967.401 9.5 9.5 0 0 1 5.632-2.729l2.095-2.095c.611-.612 1.345-1.088 2.153-1.396a6.13 6.13 0 0 1 2.537-.391l3.038-3.038c.912-.913 2.065-1.548 3.325-1.832a6.84 6.84 0 0 1 3.794.23c.366 2.753.089 5.553-.808 8.179s-2.391 5.007-4.364 6.957c-2.317 2.426-5.215 4.22-8.421 5.213a1.36 1.36 0 0 1 .108.815c-.048.276-.181.531-.379.729l-2.897 2.897c-.256.256-.603.399-.966.399a1.37 1.37 0 0 1-.967-.401l-8.708-8.709c-.257-.256-.401-.604-.401-.967a1.36 1.36 0 0 1 .399-.966l2.897-2.897zm3.868 1.937l4.859 4.859.074-.013a16.22 16.22 0 0 0 8.599-4.832c2.832-2.805 4.459-6.604 4.536-10.594v-.257l-.213.019a4.09 4.09 0 0 0-2.196.977l-.204.191-2.039 2.038a6.24 6.24 0 0 1 1.075.86l.968.968-8.69 8.69-1.935-1.936 6.556-6.556-.109-.043a3.42 3.42 0 0 0-1.786-.139c-.597.113-1.152.384-1.609.783l-.159.158-2.829 2.829a6.81 6.81 0 0 0-2.652.502 6.79 6.79 0 0 0-2.246 1.493zm-2.899.964l-.965.966 6.773 6.773.965-.966-6.773-6.773zm7.712-19.323a4.09 4.09 0 0 1 2.099-1.12 4.1 4.1 0 0 1 2.369.236 4.11 4.11 0 0 1 1.842 1.512c.452.675.693 1.468.694 2.279a4.09 4.09 0 0 1-2.528 3.786c-.749.31-1.573.39-2.369.231s-1.526-.55-2.101-1.124a4.11 4.11 0 0 1-1.204-2.901c-.001-1.088.43-2.13 1.198-2.898zm1.935 1.935c-.191.191-.32.434-.373.7a1.37 1.37 0 0 0 .079.79c.103.25.279.463.504.614a1.37 1.37 0 0 0 .759.231c.271 0 .535-.08.76-.23s.399-.363.502-.613a1.36 1.36 0 0 0 .077-.79 1.37 1.37 0 0 0-1.341-1.102c-.363 0-.71.143-.967.399zm-11.596 1.921a4.09 4.09 0 0 1 2.098-1.12c.796-.157 1.62-.075 2.37.236a4.12 4.12 0 0 1 1.842 1.512 4.11 4.11 0 0 1 .693 2.279 4.1 4.1 0 0 1-.688 2.278 4.09 4.09 0 0 1-1.839 1.508 4.1 4.1 0 0 1-2.369.231 4.11 4.11 0 0 1-3.305-4.026 4.09 4.09 0 0 1 1.198-2.898zm1.935 1.935a1.36 1.36 0 0 0-.295 1.489 1.37 1.37 0 0 0 1.264.845c.27 0 .534-.08.759-.23a1.36 1.36 0 0 0 .503-.613 1.37 1.37 0 0 0 .077-.79c-.053-.265-.184-.509-.375-.7a1.37 1.37 0 0 0-.967-.401c-.363 0-.71.143-.966.399z" fill="#ff5b8d"/></g><g opacity=".1"><path d="M754.256 170.617c-.649.348-.896.111-.537-.557l12.747-23.727c.354-.657.899-.691 1.204-.103l11.258 21.68c.313.6.037.907-.61.688l-10.413-3.545-1.17-12.636-2.467 12.821-10.012 5.379z" fill="#5886ff"/><path d="M879.913 65.29l19.311-19.311 1.935 1.935-19.311 19.311-1.935-1.935zm-13.546-13.546l8.214-1.441-1.462-11.117 11.117 1.461 1.442-8.214 11.611 11.611-19.311 19.311-11.611-11.611zm5.647 1.785l5.96 5.959 15.448-15.449-5.959-5.959-.986 5.619-10.184-1.34 1.34 10.184-5.62.985.001.001z" fill="#c3ee39"/><path d="M822.908 87.462l11.611 11.611c1.523 1.523 2.62 3.417 3.183 5.494s.571 4.265.025 6.344a12.27 12.27 0 0 1-8.608 8.711 12.3 12.3 0 0 1-6.343.051 12.33 12.33 0 0 1-5.532-3.117 12.34 12.34 0 0 1-3.25-5.456c-.588-2.07-.623-4.257-.102-6.343l2.696-10.098 2.68 2.68 3.64-9.877zm1.09 4.952l-3.639 9.878-2.352-2.351-1.381 5.184c-.449 1.579-.483 3.248-.1 4.846s1.17 3.071 2.287 4.278l.257.272a9.59 9.59 0 0 0 6.721 2.926c2.538.046 4.988-.918 6.812-2.679a9.55 9.55 0 0 0 2.911-6.715c.041-2.538-.928-4.99-2.694-6.817l-.232-.232-8.59-8.59zm-3.007 10.511c.955-.955 2.172-1.605 3.498-1.867s2.7-.126 3.949.393a6.86 6.86 0 0 1 3.07 2.52c.752 1.125 1.155 2.447 1.156 3.799s-.398 2.673-1.148 3.796-1.816 1.998-3.065 2.514a6.83 6.83 0 0 1-3.948.385c-1.326-.266-2.545-.918-3.501-1.875-1.284-1.283-2.005-3.022-2.007-4.835a6.82 6.82 0 0 1 1.996-4.83zm1.936 1.935c-.573.573-.963 1.303-1.121 2.098a4.11 4.11 0 0 0 1.749 4.212 4.1 4.1 0 0 0 2.279.693 4.09 4.09 0 0 0 2.277-.688c.674-.45 1.199-1.09 1.509-1.839s.389-1.574.23-2.369a4.11 4.11 0 0 0-4.025-3.305 4.09 4.09 0 0 0-2.898 1.198z" fill="#ff9964"/><path d="M954.746-5.673a4.77 4.77 0 0 1-2.448 1.307 4.79 4.79 0 0 1-2.765-.275c-.874-.363-1.622-.977-2.149-1.764s-.808-1.713-.809-2.659.279-1.871.804-2.657a4.77 4.77 0 0 1 2.145-1.76 4.78 4.78 0 0 1 2.764-.269 4.8 4.8 0 0 1 3.856 4.696c.001 1.269-.502 2.485-1.398 3.382zm-1.935-1.935a2.05 2.05 0 0 0 .56-1.049c.079-.398.038-.81-.118-1.185a2.06 2.06 0 0 0-.756-.921c-.338-.226-.734-.346-1.14-.347s-.801.119-1.138.344-.6.545-.755.919a2.05 2.05 0 0 0 .447 2.235c.385.385.907.601 1.451.602s1.065-.215 1.449-.599zm-19.329 1.913c-.669.668-1.521 1.123-2.449 1.307s-1.89.088-2.764-.275-1.623-.977-2.149-1.764a4.79 4.79 0 0 1-.809-2.659c-.001-.946.278-1.871.803-2.657a4.77 4.77 0 0 1 2.146-1.76c.873-.361 1.835-.455 2.763-.269a4.79 4.79 0 0 1 3.856 4.696 4.77 4.77 0 0 1-1.397 3.381zm-1.936-1.935c.287-.286.482-.652.56-1.049s.038-.81-.117-1.185-.419-.695-.757-.921a2.05 2.05 0 0 0-1.139-.347c-.406 0-.802.119-1.139.344s-.599.545-.754.919a2.05 2.05 0 0 0-.116 1.185 2.06 2.06 0 0 0 .563 1.05c.385.385.906.601 1.45.602s1.065-.215 1.449-.599zm7.799-16.477l2.733.003.033 30.071-2.734-.003-.033-30.07.001-.001z" fill="#6d75d8"/></g><g opacity=".1"><path d="M914.913 195.119l19.311-19.311 1.935 1.935-19.311 19.311-1.935-1.935zm-13.546-13.546l8.214-1.442-1.462-11.117 11.117 1.462 1.442-8.214 11.611 11.611-19.311 19.311-11.611-11.611zm5.647 1.785l5.96 5.959 15.448-15.448-5.959-5.96-.986 5.619-10.184-1.34 1.34 10.184-5.62.985.001.001z" fill="#c3ee39"/></g></g><g filter="url(#B)"><rect width="929" height="166" rx="5" fill="#272754" fill-opacity=".2"/></g><defs><filter id="B" x="-4" y="-4" width="937" height="174" filterUnits="userSpaceOnUse" color-interpolation-filters="sRGB"><feFlood flood-opacity="0"/><feGaussianBlur in="BackgroundImage" stdDeviation="2"/><feComposite in2="SourceAlpha" operator="in"/><feBlend in="SourceGraphic"/></filter></defs></svg>