<svg xmlns="http://www.w3.org/2000/svg" width="39.536" height="46.123" viewBox="0 0 39.536 46.123"><g transform="translate(-11.16 -7.44)"><g transform="translate(11.16 7.44)"><g transform="translate(3.84 9.56)"><ellipse cx="16" cy="16.5" rx="16" ry="16.5" fill="#2b2d5e"/></g><path d="M35.106,11.912,38.3,8.72,41.4,11.826l-3.191,3.191a19.767,19.767,0,1,1-3.106-3.106ZM22.767,42.731A15.375,15.375,0,1,0,7.392,27.357,15.375,15.375,0,0,0,22.767,42.731ZM13.981,1H31.552V5.393H13.981Z" transform="translate(-3 -1)" fill="#8B8ECE"/><path d="M11.986,0V23.973A11.986,11.986,0,0,1,11.986,0Z" transform="translate(7.854 14.273)" fill="#a274ff"/></g><g transform="translate(11.16 7.44)"><g transform="translate(3.84 9.56)"><ellipse cx="16" cy="16.5" rx="16" ry="16.5" transform="translate(0 0)" fill="#2b2d5e"/><path d="M15.221,0V12.468L10.327,1A12.159,12.159,0,0,1,15.221,0Z" transform="translate(0.779 4.012)" fill="#74b5ff"/></g><path d="M35.106,11.912,38.3,8.72,41.4,11.826l-3.191,3.191a19.767,19.767,0,1,1-3.106-3.106ZM22.767,42.731A15.375,15.375,0,1,0,7.392,27.357,15.375,15.375,0,0,0,22.767,42.731ZM13.981,1H31.552V5.393H13.981Z" transform="translate(-3 -1)" fill="#8B8ECE"/></g></g></svg>
