<svg xmlns="http://www.w3.org/2000/svg" width="39.535" height="46.123" viewBox="0 0 39.535 46.123"><g transform="translate(3.84 9.771)"><ellipse cx="16" cy="16.5" rx="16" ry="16.5" transform="translate(0 -0.1)" fill="#2b2d5e"/></g><path d="M35.106,11.912,38.3,8.72,41.4,11.826l-3.191,3.191a19.767,19.767,0,1,1-3.106-3.106ZM22.767,42.731A15.375,15.375,0,1,0,7.392,27.357,15.375,15.375,0,0,0,22.767,42.731ZM13.981,1H31.552V5.393H13.981Z" transform="translate(-3 -1)" fill="#8B8ECE"/><path d="M11.986,0V23.973A11.986,11.986,0,0,1,11.986,0Z" transform="translate(7.854 14.273)" fill="#a274ff"/></svg>
