<?xml version="1.0" encoding="utf-8"?>
<!-- Generator: Adobe Illustrator 21.0.0, SVG Export Plug-In . SVG Version: 6.00 Build 0)  -->
<svg version="1.1" id="Capa_1" xmlns="http://www.w3.org/2000/svg" xmlns:xlink="http://www.w3.org/1999/xlink" x="0px" y="0px"
	 viewBox="0 0 512 512" style="enable-background:new 0 0 512 512;" xml:space="preserve">
<style type="text/css">
	.st0{fill:#00AAFF;}
	.st1{display:none;}
	.st2{display:inline;fill:#FFFFFF;}
	.st3{fill:#FFFFFF;}
</style>
<g transform="matrix(1.25 0 0 -1.25 0 45)">
	<path class="st0" d="M364.1-20.9H45.5C20.4-20.9,0-41.3,0-66.4v-204.8c0-25.1,20.4-45.5,45.5-45.5h318.6
		c25.1,0,45.5,20.4,45.5,45.5v204.8C409.6-41.3,389.2-20.9,364.1-20.9z"/>
</g>
<g class="st1">
	<path class="st2" d="M138.1,305.9H81.3l-10.8,32.4H36.1l58.5-157.1h30l58.8,157.1H149L138.1,305.9z M90,279.7h39.3l-19.7-58.8
		L90,279.7z"/>
	<path class="st2" d="M325.8,338.2h-32.4l-63-103.4v103.4H198V181.1h32.4l63.1,103.6V181.1h32.3V338.2z"/>
	<path class="st2" d="M408.3,251.9l32.7-70.8h35.4l-51.6,100.1v57h-32.9v-57l-51.6-100.1h35.5L408.3,251.9z"/>
</g>
<g>
	<path class="st3" d="M167.8,305.8h-56.8l-10.8,32.4H65.9l58.5-157.1h30l58.8,157.1h-34.4L167.8,305.8z M119.8,279.6h39.3
		l-19.7-58.8L119.8,279.6z"/>
	<path class="st3" d="M260.2,312.2h68.7v26H227.8V181.1h32.4V312.2z"/>
	<path class="st3" d="M379.9,312.2h68.7v26H347.5V181.1h32.4V312.2z"/>
</g>
</svg>
