<?xml version="1.0" encoding="utf-8"?>
<!-- Generator: Adobe Illustrator 23.0.5, SVG Export Plug-In . SVG Version: 6.00 Build 0)  -->
<svg version="1.1" id="Слой_1" xmlns="http://www.w3.org/2000/svg" xmlns:xlink="http://www.w3.org/1999/xlink" x="0px" y="0px"
	 viewBox="0 0 512 512" style="enable-background:new 0 0 512 512;" xml:space="preserve">
<style type="text/css">
	.st0{fill:#006600;}
	.st1{fill:#D52B1E;}
	.st2{fill:#FFCC4D;}
	.st3{fill:#FFFFFF;}
	.st4{fill:#829ACD;}
	.st5{fill:#003399;}
	.st6{fill:#009B3A;}
	.st7{fill:#FEDF01;}
	.st8{fill:#002776;}
	.st9{fill:#CBE9D4;}
	.st10{fill:#88C9F9;}
	.st11{fill:#55ACEE;}
	.st12{fill:#3B88C3;}
	.st13{fill:#CCFFDD;stroke:#8CF9AD;stroke-width:4;stroke-miterlimit:10;}
</style>
<title>flag_pt1</title>
<path class="st0" d="M512,384c0,31.4-25.5,56.9-56.9,56.9H56.9C25.5,440.9,0,415.4,0,384V128c0-31.4,25.5-56.9,56.9-56.9h398.2
	c31.4,0,56.9,25.5,56.9,56.9V384z"/>
<path class="st1" d="M455.1,71.1H213.3v369.8h241.8c31.4,0,56.9-25.5,56.9-56.9V128C512,96.6,486.5,71.1,455.1,71.1"/>
<path class="st2" d="M288.5,321.1l-41.7-41.7l-10.1,10.1l6.7,6.7l-5.6,8.4l33.8,22.5h-44.1V157.6c18.3,2.6,35.6,10.3,49.8,22.2
	l-37.8,12.6l4.5,13.5l42.7-14.2l-1.5-4.4c2.4,2.5,4.6,5.1,6.7,7.8l-39.9,26.6l4,5.9l-3.2,6.4L297,256l-44.2,22.1l6.4,12.7l53.3-26.6
	C310.8,285.3,302.4,305.2,288.5,321.1 M199.1,354.5c-13-1.9-25.6-6.3-36.9-13.1h36.9V354.5z M114.2,264.2l53.3,26.6l6.4-12.7
	L129.7,256l30.1-15l20.1,20l10-10l-16.7-16.8l0.6-0.3l-6.4-12.7l-4.9,2.4l-13.9-13.9l20.8,3.5l2.3-14l-35.8-6
	c15.8-19.4,38.3-32.1,63-35.7v169.5H155l33.8-22.5l-7.9-11.8l-42.6,28.5l0.2,0.3C124.4,305.5,115.9,285.4,114.2,264.2 M114.2,247.8
	c1.1-14.2,5.3-27.9,12.2-40.3l22.8,22.8L114.2,247.8z M227.6,341.3h36.9c-11.3,6.8-23.8,11.2-36.9,13.1L227.6,341.3z M270.2,226.7
	l29.7-19.8c7.2,12.6,11.5,26.6,12.6,41L270.2,226.7L270.2,226.7z M213.4,142.2c-62.8,0-113.8,50.9-113.8,113.8
	s50.9,113.8,113.8,113.8c62.8,0,113.8-50.9,113.8-113.8C327.2,193.2,276.2,142.2,213.4,142.2C213.4,142.2,213.4,142.2,213.4,142.2"
	/>
<path class="st1" d="M156.4,184.9v99.6c-0.6,31.4,24.4,57.4,55.8,58s57.4-24.4,58-55.8c0-0.7,0-1.4,0-2.1v-99.6H156.4z"/>
<path class="st3" d="M170.7,199.1v85.3c-0.4,23.6,18.4,43,42,43.3s43-18.4,43.3-42c0-0.4,0-0.9,0-1.3v-85.3H170.7z"/>
<path class="st4" d="M241.8,270.2h-56.9v-28.4h56.9V270.2z M227.6,284.4h-28.5v-56.9h28.4L227.6,284.4z"/>
<path class="st5" d="M184.9,270.2h-14.2v-28.4h14.2L184.9,270.2z M227.6,270.2h-28.5v-28.4h28.4L227.6,270.2z M256,270.2h-14.2
	v-28.4H256V270.2z M227.6,312.9h-28.5v-28.5h28.4L227.6,312.9z M227.6,199.1h-28.5v28.4h28.4L227.6,199.1z"/>
<path class="st6" d="M492.5,85.1c1,0.8,1.9,1.7,2.8,2.6c5.1,5.5,16.1,16.2,16.7,40.2v256c0,31.4-25.5,56.9-56.9,56.9H56.9
	c-4.5-0.2-12.6,0-22.4-4.4c-5.4-2.6-10.5-5.8-15.1-9.7"/>
<path class="st7" d="M363,178.6L465.5,256L256,414.2l-107.1-80.9"/>
<path class="st8" d="M181.8,309.5c17.3,23.4,44.7,37.3,73.9,37.2c31.5,0,53.4-17,57-19.8c21.9-17.5,34.8-43.9,35-72
	c0-29.7-16.9-54.2-16.9-52.9"/>
<path class="st9" d="M255,256.4c31.4,12.1,59.9,29.9,76.9,49.6c6.1-9.1,10.5-19.2,13.1-29.8c-16.4-16.1-37.9-29.7-61.5-40.2"/>
<path class="st10" d="M199.1,297c0,1.7,0,3.3,0,5h-6.9"/>
<path class="st11" d="M256,287.8h-14.2v-14.2H256V287.8z M312.9,316.2h-14.2V302h14.2L312.9,316.2z M270.2,330.4H256v-14.2h14.2
	V330.4z M312.9,245.1h-14.2v-14.2h14.2L312.9,245.1z"/>
<path class="st12" d="M284.4,302h-14.2v-14.2h14.2V302z"/>
<path class="st6" d="M492.5,85.2"/>
<path class="st8" d="M319.7,189"/>
<path class="st13" d="M19.4,426.8L492.5,85.1"/>
</svg>
