<?xml version="1.0" encoding="utf-8"?>
<!-- Generator: Adobe Illustrator 21.0.0, SVG Export Plug-In . SVG Version: 6.00 Build 0)  -->
<svg version="1.1" id="Layer_1" xmlns="http://www.w3.org/2000/svg" xmlns:xlink="http://www.w3.org/1999/xlink" x="0px" y="0px"
	 viewBox="0 0 512 512" style="enable-background:new 0 0 512 512;" xml:space="preserve">
<style type="text/css">
	.st0{fill:#FAB446;}
	.st1{fill:#73AF00;}
	.st2{fill:#F5F5F5;}
	.st3{fill:#41479B;}
</style>
<path class="st0" d="M473.7,88.3H38.3C17.2,88.3,0,105.4,0,126.6v73.5h512v-73.5C512,105.4,494.8,88.3,473.7,88.3z"/>
<path class="st1" d="M0,385.4c0,21.2,17.2,38.3,38.3,38.3h435.3c21.2,0,38.3-17.2,38.3-38.3v-73.5H0V385.4z"/>
<rect y="200.1" class="st2" width="512" height="111.8"/>
<g>
	<path class="st3" d="M256,303.4c-26.2,0-47.4-21.3-47.4-47.4s21.3-47.4,47.4-47.4s47.4,21.3,47.4,47.4S282.2,303.4,256,303.4z
		 M256,217.4c-21.3,0-38.6,17.3-38.6,38.6s17.3,38.6,38.6,38.6s38.6-17.3,38.6-38.6S277.3,217.4,256,217.4z"/>
	<circle class="st3" cx="256" cy="256" r="5.4"/>
	<polygon class="st3" points="256,256.8 242.3,258.2 213,256.8 213,255.2 242.3,253.8 256,255.2 	"/>
	<polygon class="st3" points="256,256.8 269.7,258.2 299,256.8 299,255.2 269.7,253.8 256,255.2 	"/>
	<polygon class="st3" points="255.2,256 253.8,242.3 255.2,213 256.8,213 258.2,242.3 256.8,256 	"/>
	<polygon class="st3" points="255.2,256 253.8,269.7 255.2,299 256.8,299 258.2,269.7 256.8,256 	"/>
	<polygon class="st3" points="255.4,256.6 244.8,247.9 225,226.1 226.1,225 247.9,244.8 256.6,255.4 	"/>
	<polygon class="st3" points="255.4,256.6 264.1,267.2 285.9,287 287,285.9 267.2,264.1 256.6,255.4 	"/>
	<polygon class="st3" points="255.4,255.4 264.1,244.8 285.9,225 287,226.1 267.2,247.9 256.6,256.6 	"/>
	<polygon class="st3" points="255.4,255.4 244.8,264.1 225,285.9 226.1,287 247.9,267.2 256.6,256.6 	"/>
	<polygon class="st3" points="256.3,256.7 244.2,263.3 216.6,273.2 215.9,271.7 242.5,259.2 255.7,255.3 	"/>
	<polygon class="st3" points="256.3,256.7 269.5,252.8 296.1,240.3 295.4,238.8 267.8,248.7 255.7,255.3 	"/>
	<polygon class="st3" points="255.3,256.3 248.7,244.2 238.8,216.6 240.3,215.9 252.8,242.5 256.7,255.7 	"/>
	<polygon class="st3" points="255.3,256.3 259.2,269.5 271.7,296.1 273.2,295.4 263.3,267.8 256.7,255.7 	"/>
	<polygon class="st3" points="255.7,256.7 242.5,252.8 215.9,240.3 216.6,238.8 244.2,248.7 256.3,255.3 	"/>
	<polygon class="st3" points="255.7,256.7 267.8,263.3 295.4,273.2 296.1,271.7 269.5,259.2 256.3,255.3 	"/>
	<polygon class="st3" points="255.3,255.7 259.2,242.5 271.7,215.9 273.2,216.6 263.3,244.2 256.7,256.3 	"/>
	<polygon class="st3" points="255.3,255.7 248.7,267.8 238.8,295.4 240.3,296.1 252.8,269.5 256.7,256.3 	"/>
</g>
<circle class="st2" cx="256" cy="256" r="7.3"/>
<circle class="st3" cx="256" cy="256" r="4.4"/>
</svg>
