<svg width="20" height="20" viewBox="0 0 20 20" fill="none" xmlns="http://www.w3.org/2000/svg">
    <path d="M13.2005 7.94498C12.7668 7.5341 12.4878 6.98639 12.4105 6.39398L12.0105 3.31098L9.27646 4.79998C8.75156 5.086 8.14413 5.18241 7.55646 5.07298L4.50046 4.49998L5.07046 7.55598C5.17989 8.14365 5.08348 8.75107 4.79746 9.27598L3.31146 12.006L6.39446 12.406C6.98652 12.4835 7.53384 12.7625 7.94446 13.196L10.0825 15.453L11.4185 12.646C11.6749 12.1065 12.1092 11.6719 12.6485 11.415L15.4565 10.079L13.2005 7.94498ZM13.2255 13.508L11.0125 18.158C10.9706 18.2459 10.908 18.3223 10.83 18.3806C10.752 18.4389 10.6609 18.4774 10.5648 18.4926C10.4686 18.5079 10.3701 18.4995 10.2779 18.4682C10.1857 18.4369 10.1025 18.3836 10.0355 18.313L6.49246 14.574C6.39784 14.4742 6.2718 14.4099 6.13546 14.392L1.02846 13.724C0.931974 13.7113 0.840026 13.6753 0.760549 13.6191C0.681071 13.5629 0.61645 13.4883 0.572259 13.4016C0.528067 13.3149 0.505631 13.2187 0.506886 13.1214C0.508141 13.0241 0.533049 12.9285 0.579462 12.843L3.04146 8.31898C3.10784 8.19685 3.12975 8.05547 3.10346 7.91898L2.16046 2.85998C2.14255 2.76415 2.14827 2.66539 2.17711 2.57227C2.20595 2.47914 2.25705 2.39444 2.32599 2.32551C2.39493 2.25657 2.47962 2.20547 2.57275 2.17663C2.66588 2.14779 2.76463 2.14207 2.86046 2.15998L7.92346 3.09998C8.05995 3.12627 8.20134 3.10435 8.32346 3.03798L12.8475 0.575978C12.9331 0.529552 13.0287 0.504664 13.1261 0.503464C13.2235 0.502263 13.3197 0.524786 13.4064 0.569086C13.4931 0.613387 13.5678 0.678134 13.6239 0.757736C13.68 0.837338 13.7159 0.929402 13.7285 1.02598L14.3965 6.13198C14.4144 6.26832 14.4787 6.39435 14.5785 6.48898L18.3175 10.031C18.3881 10.098 18.4414 10.1812 18.4727 10.2734C18.504 10.3656 18.5124 10.4641 18.4971 10.5603C18.4818 10.6565 18.4434 10.7475 18.3851 10.8255C18.3268 10.9035 18.2504 10.9661 18.1625 11.008L13.5125 13.221C13.388 13.2802 13.2877 13.3805 13.2285 13.505L13.2255 13.508ZM14.0255 15.435L15.4395 14.021L19.6825 18.263L18.2675 19.678L14.0255 15.435Z" fill="#F98C34"/>
</svg>
