<svg width="24" height="25" viewBox="0 0 24 25" fill="none" xmlns="http://www.w3.org/2000/svg">
    <path d="M3.92932 5.51318L5.34332 6.92718C4.60041 7.67006 4.01109 8.55199 3.60903 9.52262C3.20697 10.4933 3.00003 11.5336 3.00003 12.5842C3.00003 13.6348 3.20697 14.6751 3.60903 15.6457C4.01109 16.6164 4.60041 17.4983 5.34332 18.2412L3.93032 19.6542C2.0553 17.7789 1.00195 15.2356 1.00195 12.5837C1.00195 9.9318 2.0553 7.3885 3.93032 5.51318H3.92932ZM20.0713 5.51318C21.9466 7.38854 23.0002 9.93205 23.0002 12.5842C23.0002 15.2363 21.9466 17.7798 20.0713 19.6552L18.6573 18.2412C20.1574 16.7409 21.0001 14.7062 21.0001 12.5847C21.0001 10.4631 20.1574 8.42845 18.6573 6.92818L20.0703 5.51418L20.0713 5.51318ZM13.0003 5.58418V11.5842H16.0003L11.0003 19.5842V13.5842H8.00032L13.0003 5.58418ZM6.75732 8.34118L8.17232 9.75618C7.42243 10.5063 7.00117 11.5235 7.00117 12.5842C7.00117 13.6448 7.42243 14.6621 8.17232 15.4122L6.75732 16.8272C6.20006 16.27 5.75801 15.6085 5.45642 14.8805C5.15483 14.1525 4.9996 13.3722 4.9996 12.5842C4.9996 11.7962 5.15483 11.0159 5.45642 10.2878C5.75801 9.55983 6.20006 8.89835 6.75732 8.34118ZM17.2443 8.34118C18.3694 9.46639 19.0015 10.9925 19.0015 12.5837C19.0015 14.1749 18.3694 15.701 17.2443 16.8262L15.8293 15.4112C16.5789 14.6611 17 13.6441 17 12.5837C17 11.5233 16.5789 10.5063 15.8293 9.75618L17.2433 8.34118H17.2443Z" fill="#7AAAF9"/>
</svg>
