<svg width="18" height="21" viewBox="0 0 18 21" fill="none" xmlns="http://www.w3.org/2000/svg">
    <path d="M18 0V12C17.9998 13.5736 17.587 15.1197 16.8027 16.484C16.0185 17.8483 14.8902 18.9831 13.5305 19.7752C12.1708 20.5674 10.6272 20.9892 9.05358 20.9986C7.47997 21.0079 5.93142 20.6045 4.56238 19.8286C3.19334 19.0527 2.05166 17.9314 1.25124 16.5766C0.450813 15.2217 0.0196138 13.6807 0.000653464 12.1072C-0.0183068 10.5336 0.375634 8.98265 1.14318 7.6089C1.91073 6.23516 3.02505 5.08667 4.375 4.278L11 0.453V3.223L18 0ZM16 3.122L9 6.346V3.916L5.6 5.881C4.54997 6.46507 3.66795 7.30959 3.03885 8.33328C2.40975 9.35697 2.05474 10.5254 2.008 11.726L2 12C1.96817 13.8565 2.67515 15.6496 3.9654 16.9849C5.25565 18.3202 7.02348 19.0882 8.88 19.12C10.7365 19.1518 12.5296 18.4449 13.8649 17.1546C15.2002 15.8643 15.9682 14.0965 16 12.24V12V3.122ZM9 7C9.98891 7 10.9556 7.29325 11.7779 7.84265C12.6001 8.39206 13.241 9.17295 13.6194 10.0866C13.9978 11.0002 14.0969 12.0055 13.9039 12.9755C13.711 13.9454 13.2348 14.8363 12.5355 15.5355C11.8363 16.2348 10.9454 16.711 9.97545 16.9039C9.00555 17.0969 8.00021 16.9978 7.08658 16.6194C6.17295 16.241 5.39206 15.6001 4.84265 14.7779C4.29324 13.9556 4 12.9889 4 12C4 10.6739 4.52678 9.40215 5.46447 8.46447C6.40215 7.52678 7.67392 7 9 7ZM9 9C8.40666 9 7.82664 9.17595 7.33329 9.50559C6.83994 9.83524 6.45542 10.3038 6.22836 10.8519C6.0013 11.4001 5.94189 12.0033 6.05764 12.5853C6.1734 13.1672 6.45912 13.7018 6.87868 14.1213C7.29824 14.5409 7.83279 14.8266 8.41473 14.9424C8.99667 15.0581 9.59987 14.9987 10.1481 14.7716C10.6962 14.5446 11.1648 14.1601 11.4944 13.6667C11.8241 13.1734 12 12.5933 12 12C12 11.2044 11.6839 10.4413 11.1213 9.87868C10.5587 9.31607 9.79565 9 9 9Z" fill="#FF9964"/>
</svg>
