<svg width="22" height="17" viewBox="0 0 22 17" fill="none" xmlns="http://www.w3.org/2000/svg">
    <path d="M16 0.14502C17.5913 0.14502 19.1174 0.777161 20.2426 1.90238C21.3679 3.0276 22 4.55372 22 6.14502V10.145C22 11.7363 21.3679 13.2624 20.2426 14.3877C19.1174 15.5129 17.5913 16.145 16 16.145H6C4.4087 16.145 2.88258 15.5129 1.75736 14.3877C0.632141 13.2624 0 11.7363 0 10.145V6.14502C0 4.55372 0.632141 3.0276 1.75736 1.90238C2.88258 0.777161 4.4087 0.14502 6 0.14502H16ZM16 2.14502H6C4.97376 2.14502 3.98677 2.53945 3.24319 3.24674C2.4996 3.95403 2.05631 4.92006 2.005 5.94502L2 6.14502V10.145C2 11.1713 2.39444 12.1582 3.10172 12.9018C3.80901 13.6454 4.77504 14.0887 5.8 14.14L6 14.145H16C17.0262 14.145 18.0132 13.7506 18.7568 13.0433C19.5004 12.336 19.9437 11.37 19.995 10.345L20 10.145V6.14502C20 5.11878 19.6056 4.13179 18.8983 3.38821C18.191 2.64462 17.225 2.20133 16.2 2.15002L16 2.14502ZM9 5.14502V7.14502H11V9.14502H9V11.145H7V9.14502H5V7.14502H7V5.14502H9ZM17 9.14502V11.145H15V9.14502H17ZM15 5.14502V7.14502H13V5.14502H15Z" fill="#FFD111"/>
</svg>
