<svg width="24" height="24" viewBox="0 0 24 24" fill="none" xmlns="http://www.w3.org/2000/svg">
    <path d="M17.5 21C16.8078 21 16.1311 20.7947 15.5555 20.4101C14.9799 20.0256 14.5313 19.4789 14.2664 18.8394C14.0015 18.1999 13.9322 17.4961 14.0673 16.8172C14.2023 16.1383 14.5356 15.5146 15.0251 15.0251C15.5146 14.5356 16.1383 14.2023 16.8172 14.0673C17.4961 13.9322 18.1999 14.0015 18.8394 14.2664C19.4789 14.5313 20.0256 14.9799 20.4101 15.5555C20.7947 16.1311 21 16.8078 21 17.5C21 18.4283 20.6313 19.3185 19.9749 19.9749C19.3185 20.6313 18.4283 21 17.5 21ZM17.5 19C17.7967 19 18.0867 18.912 18.3334 18.7472C18.58 18.5824 18.7723 18.3481 18.8858 18.074C18.9994 17.7999 19.0291 17.4983 18.9712 17.2074C18.9133 16.9164 18.7704 16.6491 18.5607 16.4393C18.3509 16.2296 18.0836 16.0867 17.7926 16.0288C17.5017 15.9709 17.2001 16.0007 16.926 16.1142C16.6519 16.2277 16.4176 16.42 16.2528 16.6666C16.088 16.9133 16 17.2033 16 17.5C16 17.8978 16.158 18.2794 16.4393 18.5607C16.7206 18.842 17.1022 19 17.5 19ZM6.5 10C5.80777 10 5.13108 9.79473 4.55551 9.41015C3.97993 9.02556 3.53133 8.47894 3.26642 7.83939C3.00152 7.19985 2.9322 6.49612 3.06725 5.81719C3.2023 5.13825 3.53564 4.51461 4.02513 4.02513C4.51461 3.53564 5.13825 3.2023 5.81719 3.06725C6.49612 2.9322 7.19985 3.00152 7.83939 3.26642C8.47894 3.53133 9.02556 3.97993 9.41015 4.55551C9.79473 5.13108 10 5.80777 10 6.5C10 7.42826 9.63125 8.3185 8.97487 8.97487C8.3185 9.63125 7.42826 10 6.5 10ZM6.5 8C6.79667 8 7.08668 7.91203 7.33336 7.74721C7.58003 7.58238 7.77229 7.34812 7.88582 7.07403C7.99935 6.79994 8.02906 6.49834 7.97118 6.20737C7.9133 5.91639 7.77044 5.64912 7.56066 5.43934C7.35088 5.22956 7.08361 5.0867 6.79264 5.02882C6.50167 4.97095 6.20007 5.00065 5.92598 5.11418C5.65189 5.22771 5.41762 5.41997 5.2528 5.66665C5.08798 5.91332 5 6.20333 5 6.5C5 6.89783 5.15804 7.27936 5.43934 7.56066C5.72065 7.84197 6.10218 8 6.5 8ZM19.071 3.515L20.485 4.929L4.93 20.485L3.516 19.071L19.07 3.515H19.071Z" fill="#6D75D8"/>
</svg>
