<svg width="24" height="25" viewBox="0 0 24 25" fill="none" xmlns="http://www.w3.org/2000/svg">
    <path d="M5 9.03223C5.26522 9.03223 5.51957 9.13758 5.70711 9.32512C5.89464 9.51266 6 9.76701 6 10.0322C7.57114 10.0299 9.09698 10.5585 10.33 11.5322H12.5C13.1332 11.5316 13.7594 11.6649 14.3375 11.9235C14.9155 12.182 15.4323 12.5598 15.854 13.0322H19C19.9453 13.032 20.8712 13.2997 21.6705 13.8043C22.4698 14.3089 23.1097 15.0297 23.516 15.8832C22.2798 17.4952 20.687 18.799 18.8625 19.6923C17.038 20.5857 15.0314 21.0443 13 21.0322C10.544 21.0888 8.11409 20.5182 5.94 19.3742C5.8698 19.5671 5.74193 19.7337 5.57376 19.8515C5.40559 19.9692 5.20527 20.0323 5 20.0322H2C1.73478 20.0322 1.48043 19.9269 1.29289 19.7393C1.10536 19.5518 1 19.2974 1 19.0322V10.0322C1 9.76701 1.10536 9.51266 1.29289 9.32512C1.48043 9.13758 1.73478 9.03223 2 9.03223H5ZM6 12.0322V17.0542L6.045 17.0862C8.10577 18.4397 10.5361 19.1197 13 19.0322C15.9192 19.0467 18.7293 17.9241 20.835 15.9022L20.968 15.7692L20.848 15.6692C20.3758 15.2994 19.8034 15.0799 19.205 15.0392L19 15.0322H16.889C16.9627 15.3605 16.9999 15.6958 17 16.0322V17.0322H8V15.0322H14.79L14.756 14.9542C14.5653 14.5526 14.2708 14.2091 13.9031 13.9591C13.5354 13.7092 13.1077 13.5618 12.664 13.5322H12.5H9.57C9.10508 13.0567 8.54971 12.679 7.9366 12.4214C7.32349 12.1638 6.66503 12.0315 6 12.0322ZM4 11.0322H3V18.0322H4V11.0322ZM18 5.03223C18.5933 5.03223 19.1734 5.20817 19.6667 5.53782C20.1601 5.86746 20.5446 6.336 20.7716 6.88418C20.9987 7.43235 21.0581 8.03555 20.9424 8.6175C20.8266 9.19944 20.5409 9.73399 20.1213 10.1535C19.7018 10.5731 19.1672 10.8588 18.5853 10.9746C18.0033 11.0903 17.4001 11.0309 16.8519 10.8039C16.3038 10.5768 15.8352 10.1923 15.5056 9.69894C15.1759 9.20559 15 8.62557 15 8.03223C15 7.23658 15.3161 6.47352 15.8787 5.91091C16.4413 5.3483 17.2044 5.03223 18 5.03223ZM18 7.03223C17.8022 7.03223 17.6089 7.09088 17.4444 7.20076C17.28 7.31064 17.1518 7.46682 17.0761 7.64954C17.0004 7.83227 16.9806 8.03334 17.0192 8.22732C17.0578 8.4213 17.153 8.59948 17.2929 8.73933C17.4327 8.87919 17.6109 8.97443 17.8049 9.01301C17.9989 9.0516 18.2 9.03179 18.3827 8.95611C18.5654 8.88042 18.7216 8.75225 18.8315 8.5878C18.9414 8.42335 19 8.23001 19 8.03223C19 7.76701 18.8946 7.51266 18.7071 7.32512C18.5196 7.13758 18.2652 7.03223 18 7.03223ZM11 2.03223C11.5933 2.03223 12.1734 2.20817 12.6667 2.53782C13.1601 2.86746 13.5446 3.336 13.7716 3.88418C13.9987 4.43235 14.0581 5.03555 13.9424 5.6175C13.8266 6.19944 13.5409 6.73399 13.1213 7.15355C12.7018 7.5731 12.1672 7.85883 11.5853 7.97458C11.0033 8.09034 10.4001 8.03093 9.85195 7.80386C9.30377 7.5768 8.83524 7.19229 8.50559 6.69894C8.17595 6.20559 8 5.62557 8 5.03223C8 4.23658 8.31607 3.47352 8.87868 2.91091C9.44129 2.3483 10.2044 2.03223 11 2.03223ZM11 4.03223C10.8022 4.03223 10.6089 4.09088 10.4444 4.20076C10.28 4.31064 10.1518 4.46682 10.0761 4.64954C10.0004 4.83227 9.98063 5.03334 10.0192 5.22732C10.0578 5.4213 10.153 5.59948 10.2929 5.73933C10.4327 5.87919 10.6109 5.97443 10.8049 6.01301C10.9989 6.0516 11.2 6.03179 11.3827 5.95611C11.5654 5.88042 11.7216 5.75225 11.8315 5.5878C11.9414 5.42335 12 5.23001 12 5.03223C12 4.76701 11.8946 4.51266 11.7071 4.32512C11.5196 4.13758 11.2652 4.03223 11 4.03223Z" fill="#FF5B8D"/>
</svg>
