<svg xmlns="http://www.w3.org/2000/svg" xmlns:xlink="http://www.w3.org/1999/xlink" viewBox="0 0 512 512"><defs><style>.a{fill:#a4a4a4;}.b{fill:#bbb;}.c{fill:#8d8d8d;}.d{fill:none;}.e{fill:#383838;}.f{fill:#7a7a7a;}.g{fill:url(#a);}.h{fill:url(#b);}.i{fill:#fff;}</style><linearGradient id="a" x1="89.69" y1="247.28" x2="96.89" y2="247.28" gradientTransform="translate(-2890.31 -7098.17) scale(33.91 29.74)" gradientUnits="userSpaceOnUse"><stop offset="0" stop-color="#494949"/><stop offset="1" stop-color="#9c9c9c"/></linearGradient><linearGradient id="b" x1="93.26" y1="251.36" x2="100.47" y2="251.36" gradientTransform="translate(-2410.83 -4799.81) scale(28.65 20.25)" xlink:href="#a"/></defs><title>Монтажная область 1</title><path class="a" d="M97.93,222.27a86.91,86.91,0,0,0,25.41,120.26l0,0,94.77-145.79A86.84,86.84,0,0,0,98,222.19Z"/><path class="b" d="M121.93,237.91l-8.65-5.69a68.67,68.67,0,0,0,20.11,94.91l5.62-8.65a58.22,58.22,0,0,1-17.09-80.56Z"/><path class="c" d="M113.28,232.29l8.65,5.62a58.23,58.23,0,0,1,80.57-17l5.62-8.64A68.6,68.6,0,0,0,113.28,232.29Z"/><path class="a" d="M57,192.65l7.21-13.11a2.16,2.16,0,0,1,2.89-1l.14.07a2,2,0,0,1,.94.94l7.2,13.11a2.42,2.42,0,0,0,.87.87l13.11,7.2a2.31,2.31,0,0,1,.94,3.1,2.7,2.7,0,0,1-.94.87L76.24,211.9a2.39,2.39,0,0,0-.87.86L68.17,226a2.31,2.31,0,0,1-3.1.86,2.47,2.47,0,0,1-.87-.86L57,212.76a2,2,0,0,0-.79-.86l-13.11-7.21a2.23,2.23,0,0,1-1.37-2.85,1.34,1.34,0,0,1,.07-.18,2.18,2.18,0,0,1,1.15-.94l13.26-7.2A2.07,2.07,0,0,0,57,192.65Z"/><path class="b" d="M107.51,166.06l3.9-7.21a1.37,1.37,0,0,1,1.73-.5l.43.5,4,7.21a1.12,1.12,0,0,0,.51.5l7.2,3.9a1.29,1.29,0,0,1,.43,1.73.86.86,0,0,1-.43.43l-7.2,4a1.14,1.14,0,0,0-.51.51l-4,7.2a1.29,1.29,0,0,1-1.66.58,1.7,1.7,0,0,1-.5-.5l-3.9-7.21-.5-.51-7.21-4a1.15,1.15,0,0,1-.47-1.56,1,1,0,0,1,.11-.17,1.64,1.64,0,0,1,.36-.5l7.21-3.9Z"/><path class="d" d="M332.36,256.29a74.51,74.51,0,0,1,15-19.53A74.51,74.51,0,0,0,332.36,256.29Z"/><path class="d" d="M327.82,263.35l2.67-4.18-2.67,4.18L308.44,293l-45.33,69.91L308.44,293Z"/><path class="d" d="M293.23,205.48a26.57,26.57,0,0,0,8,18.74l-4.4,6.77a25.9,25.9,0,0,0,6.13.8,27.9,27.9,0,0,0,8.07-1.23h0a26.19,26.19,0,1,0-18.16-24.86Z"/><path class="e" d="M151.62,352.71l6.56-10.37,1.44-2.24.86-1.44c7.93-12.61,16.22-25.58,24.36-38.41,19-29.69,37.69-58.88,53-82.09L239.9,215,242,211.9l7.21-10.67a356.54,356.54,0,0,1,21.62-30.34l1.58-1.51a73.19,73.19,0,0,1,42.38-20.11,80.56,80.56,0,0,0-8.36-.43A73.09,73.09,0,0,0,256,169.45L254.46,171a356.54,356.54,0,0,0-21.62,30.34L225.63,212l-2.09,3.1-2.09,3.17c-15.28,23.2-34,52.39-53,82.08l-24.36,38.41-.86,1.44-1.44,2.24-6.63,10.38h0a80.8,80.8,0,0,0,40.64,10.3h16.72a80.88,80.88,0,0,1-40.64-10.23Z"/><path class="f" d="M319.54,179.1a25.83,25.83,0,0,0-8.36,1.45A26.46,26.46,0,0,1,325.59,192a14.72,14.72,0,0,0-11.82,27,15.33,15.33,0,0,0,11.82,0,26.45,26.45,0,0,1-14.41,11.38,24.43,24.43,0,0,0,8.21,1.45,26.38,26.38,0,0,0,0-52.69Z"/><path class="e" d="M302.82,231.79a25.83,25.83,0,0,1-6.13-.8L210.21,363.16h13.91l86.48-132.6A27.73,27.73,0,0,1,302.82,231.79Z"/><path class="g" d="M322.85,148.84a73.09,73.09,0,0,0-50.45,20.61L270.89,171a349.05,349.05,0,0,0-21.62,30.34l-7.21,10.6L240,215.07l-2.09,3.17c-15.27,23.2-34,52.32-53,82.08l-24.35,38.34-.87,1.44-1.44,2.31c-2.23,3.46-4.4,7.21-6.56,10.38h0A80.92,80.92,0,0,0,192.34,363h17.87l86.48-132.17,4.4-6.78a26.43,26.43,0,1,1,18.45,7.21,24.33,24.33,0,0,1-8.15-1.44h-.5l-86.48,132.6h38.84l45.19-69.11,19.53-30,2.66-4.18,1.88-2.88a73,73,0,0,1,14.84-19.53,78.31,78.31,0,0,1,8.94-7.21,73.18,73.18,0,0,1,28.83-11.46,67.42,67.42,0,0,1,10.81-.93A73,73,0,0,0,322.85,148.84Z"/><path class="d" d="M367.24,294.41h17.52a26.3,26.3,0,1,0,0-11.67H360.9l-7.57,11.67Z"/><path class="e" d="M327.82,263.35l2.67-4.18,1.87-2.88a74.51,74.51,0,0,1,15-19.53,77.58,77.58,0,0,1,8.87-7.21A74,74,0,0,1,385,218.09a10.2,10.2,0,0,0,3.54-.43,70,70,0,0,0-8.8-.5H378.7a68.79,68.79,0,0,0-10.81.93,72.93,72.93,0,0,0-28.82,11.46,82.85,82.85,0,0,0-8.87,7.21,75,75,0,0,0-15,19.6l-1.8,2.88-2.74,4.18L291.21,293,246,362.8H263L308.44,293Z"/><path class="e" d="M419.64,288.57a26.46,26.46,0,0,1-17.52,24.87,27,27,0,0,0,8.58,1.44,26.38,26.38,0,0,0,0-52.68,27,27,0,0,0-8.58,1.44A26.37,26.37,0,0,1,419.64,288.57Z"/><path class="e" d="M353.33,294.41l-44.39,68.75h13.91l44.47-68.75Z"/><path class="h" d="M397,217.23h-1.08a60,60,0,0,0-7.21.5,10,10,0,0,0-3.53.43,73,73,0,0,0-28.83,11.46,83,83,0,0,0-8.86,7.21,73.17,73.17,0,0,0-14.92,19.6l-1.87,2.89L328,263.5,308.44,293,263.18,362.8H309l44.4-68.75,7.56-11.6h23.86a26.31,26.31,0,1,1,25.8,32.14h-.22a24.77,24.77,0,0,1-8.57-1.44,26.3,26.3,0,0,1-17.08-19H367.17l-44.32,69h75.09A72.93,72.93,0,1,0,397,217.3h0Z"/><path class="f" d="M410.41,303.28A14.42,14.42,0,1,0,396,288.86,14.43,14.43,0,0,0,410.41,303.28Z"/><path class="i" d="M384.76,294.41a26.3,26.3,0,1,0,0-11.67H360.9l-52,80.42h13.91l44.47-68.75Zm25.65-20.54A14.42,14.42,0,1,1,396,288.29,14.43,14.43,0,0,1,410.41,273.87Z"/><path class="i" d="M319.54,231.79a26.31,26.31,0,1,0-18.45-7.21L210.35,363.16h13.91l86.48-132.89A24.7,24.7,0,0,0,319.54,231.79Zm-14.42-26.31a14.42,14.42,0,1,1,14.42,14.41h0A14.84,14.84,0,0,1,305.12,205.48Z"/></svg>