<svg xmlns="http://www.w3.org/2000/svg" width="55" height="55"><path fill="none" d="M0 0h55v55H0z" data-name="Rectangle 567"/><path fill="#b65c6f" d="M44.2 22.67h-3.28a2.73 2.73 0 00-2.74 2.73v19.46a1.54 1.54 0 103.09 0h2.57a1.54 1.54 0 103.08 0V25.4a2.73 2.73 0 00-2.73-2.73z" data-name="Path 1771"/><path fill="#98526b" d="M42.72 22.67h-1.64a2.73 2.73 0 00-2.73 2.73v19.46a1.54 1.54 0 003.08 0h1.29v-22.2z" data-name="Path 1772"/><path fill="#b65c6f" d="M13.18 35.3H9.9a2.73 2.73 0 00-2.73 2.74v6.81a1.54 1.54 0 003.08 0h2.58a1.54 1.54 0 003.08 0v-6.81a2.73 2.73 0 00-2.73-2.74z" data-name="Path 1773"/><path fill="#98526b" d="M11.54 35.3H9.9a2.73 2.73 0 00-2.73 2.74v6.81a1.54 1.54 0 003.08 0h1.3z" data-name="Path 1774"/><path fill="#b65c6f" d="M23.49 22.67h-3.28a2.73 2.73 0 00-2.73 2.73v19.46a1.54 1.54 0 103.08 0h2.58a1.54 1.54 0 103.08 0V25.4a2.73 2.73 0 00-2.73-2.73z" data-name="Path 1775"/><path fill="#98526b" d="M21.89 22.67h-1.64a2.73 2.73 0 00-2.73 2.73v19.46a1.54 1.54 0 103.08 0h1.3z" data-name="Path 1776"/><path fill="#b65c6f" d="M33.87 29.23H30.6a2.73 2.73 0 00-2.73 2.73v12.9a1.54 1.54 0 103.08 0h2.58a1.54 1.54 0 103.08 0v-12.9a2.73 2.73 0 00-2.73-2.73z" data-name="Path 1777"/><path fill="#98526b" d="M32.3 29.23h-1.63a2.73 2.73 0 00-2.74 2.73v12.9a1.54 1.54 0 103.09 0h1.28V29.22z" data-name="Path 1778"/><path fill="#b65c6f" d="M45.44 10.16a1.5 1.5 0 00-1.12-.45l-4.63.16a1.54 1.54 0 00.1 3.08l.67-.02-8.29 6.76-9.92-7.37a1.48 1.48 0 00-1.7-.06l-14.92 9.7a1.56 1.56 0 00-.46 2.13 1.5 1.5 0 001.27.71 1.48 1.48 0 00.8-.24l14.07-9.13 10.02 7.45a1.48 1.48 0 001.83-.04L42.75 15l-.04.93a1.53 1.53 0 001.46 1.6h.05a1.52 1.52 0 001.5-1.5l.16-4.73a1.56 1.56 0 00-.44-1.15z" data-name="Path 1779"/><path fill="#b65c6f" d="M48.59 46.91H5.5a1.54 1.54 0 010-3.08h43.08a1.54 1.54 0 010 3.08z" data-name="Path 1781"/><path fill="#98526b" d="M27.51 46.91H5.54a1.54 1.54 0 010-3.08h21.97v3.08z" data-name="Path 1782"/></svg>