<svg width="120" height="120" viewBox="0 0 120 120" fill="none" xmlns="http://www.w3.org/2000/svg">
<mask id="mask0" mask-type="alpha" maskUnits="userSpaceOnUse" x="0" y="0" width="120" height="120">
<path d="M120 120L0 120L1.43099e-06 -1.43099e-06C66.2308 -6.41192e-07 120 53.7692 120 120Z" fill="#272754"/>
</mask>
<g mask="url(#mask0)">
<mask id="mask1" mask-type="alpha" maskUnits="userSpaceOnUse" x="-38" y="-15" width="178" height="178">
<circle cx="50.8745" cy="73.8743" r="62.8436" transform="rotate(45 50.8745 73.8743)" fill="#C4C4C4"/>
</mask>
<g mask="url(#mask1)">
<path d="M-12.7637 105.123C-12.7637 105.123 -0.670632 96.8575 6.00532 91.0757C15.5424 82.816 22.9365 74.5772 28.4015 67.4928C33.3762 62.4103 38.9203 57.1499 45.1194 51.7811C50.5213 47.0453 55.8594 42.7376 60.9698 38.8851C61.9522 38.7224 62.9347 38.5597 64.0026 38.4664C66.7726 39.5942 71.0522 41.307 76.414 43.2581C81.4412 45.0976 82.2743 45.2936 84.6242 46.2405C89.8367 48.5503 99.03 53.2905 98.0699 55.8711C97.7001 56.8509 96.0626 57.1221 95.1657 57.3541C92.6313 57.8574 90.4379 56.7176 89.0562 55.2763C88.7998 55.0683 88.6217 54.7638 88.6217 54.7638C89.2702 56.4099 90.2082 57.7426 90.8568 59.3888C91.9792 63.1793 91.8301 65.7614 91.3494 70.8499C90.7727 70.8619 89.4881 70.9885 88.5149 70.6509C87.824 69.9303 87.2388 68.5203 86.6765 68.864C86.1924 69.1111 86.8718 70.5896 86.6089 72.1362C86.0689 74.8977 84.9804 77.8256 83.4507 80.584C82.8389 81.6874 82.4581 84.1934 81.1425 81.9719C79.7184 81.4562 78.8638 80.7627 78.3438 80.1808C77.4383 78.225 78.6211 75.0573 78.1475 69.9425C77.3712 69.1525 77.0078 68.3777 76.737 67.838C76.0957 66.3576 76.0382 65.0311 74.678 64.0874C74.5925 64.018 74.507 63.9487 74.507 63.9487C73.6739 63.7526 72.4207 63.3756 70.9894 62.6942C68.6396 61.7473 67.7903 61.5794 66.2239 61.5883C65.398 61.5581 63.9847 61.6772 62.4543 62.5152C61.9559 62.4308 60.2437 62.1397 58.0871 63.7494C56.5711 64.919 55.7902 65.8794 55.5698 66.5005C55.1145 67.4109 54.4029 69.6397 54.525 72.4586C54.6328 74.9458 55.3459 76.5579 55.7876 77.2363C56.9306 78.4475 66.567 79.9306 74.1928 79.5323C77.0462 80.732 78.0946 80.1386 79.8965 81.7608C81.1785 82.801 83.8354 85.7786 83.0742 87.2407C82.7682 87.7924 81.3528 88.2553 79.4734 88.6501C77.7577 89.0177 75.566 88.8443 72.3902 89.6925C70.7743 90.4611 68.7245 90.4416 66.3539 90.9177C61.043 92.0478 56.9607 90.987 54.2122 90.3566C50.8486 90.0953 48.5157 88.294 43.1977 89.2582C37.7159 90.2496 33.8013 93.1525 32.2924 94.4879C28.734 97.9999 24.7203 102.422 20.5859 107.867C16.2239 113.766 10.5678 124.055 10.5678 124.055C10.5678 124.055 0.27358 121.918 -4.55048 117.796C-8.99729 113.997 -12.7637 105.123 -12.7637 105.123Z" fill="url(#paint0_linear)"/>
<path opacity="0.2" d="M-13.0574 105.123C-13.0574 105.123 -0.964329 96.8576 5.71162 91.0758C15.2487 82.816 22.6427 74.5772 28.1078 67.4928C33.0825 62.4103 38.6266 57.15 44.8257 51.7811C50.2276 47.0453 55.5657 42.7376 60.6761 38.8852C61.6585 38.7225 62.641 38.5598 63.7089 38.4664C66.4789 39.5942 70.7585 41.307 76.1203 43.2581C81.1475 45.0976 81.9806 45.2937 84.3305 46.2405C89.543 48.5504 98.7363 53.2905 97.7762 55.8711C97.4064 56.8509 95.7689 57.1221 94.8719 57.3542C92.3376 57.8574 90.1442 56.7176 88.7625 55.2764C88.5061 55.0683 88.328 54.7638 88.328 54.7638C88.9765 56.41 89.9145 57.7426 90.5631 59.3888C91.6855 63.1793 91.5364 65.7614 91.0557 70.85C90.479 70.862 89.1944 70.9885 88.2212 70.6509C87.5303 69.9303 86.9451 68.5203 86.3828 68.864C85.8987 69.1112 86.5781 70.5897 86.3152 72.1362C85.7752 74.8978 84.6867 77.8256 83.157 80.584C82.5452 81.6874 82.1644 84.1934 80.8488 81.9719C79.4247 81.4563 78.5701 80.7628 78.0501 80.1809C77.1446 78.2251 78.3274 75.0573 77.8538 69.9425C77.0775 69.1525 76.7141 68.3777 76.4433 67.838C75.802 66.3577 75.7445 65.0311 74.3843 64.0874C74.2988 64.018 74.2133 63.9487 74.2133 63.9487C73.3802 63.7526 72.127 63.3757 70.6957 62.6942C68.3459 61.7473 67.4966 61.5794 65.9302 61.5883C65.1043 61.5581 63.691 61.6773 62.1606 62.5153C61.6622 62.4308 59.95 62.1397 57.7934 63.7494C56.2774 64.919 55.4965 65.8794 55.2761 66.5005C54.8208 67.4109 54.1092 69.6398 54.2313 72.4586C54.3391 74.9459 55.0522 76.5579 55.4939 77.2363C56.6369 78.4476 66.2733 79.9306 73.8991 79.5323C76.7525 80.732 77.8009 80.1386 79.6028 81.7608C80.8848 82.801 83.5417 85.7786 82.7805 87.2407C82.4745 87.7924 81.0591 88.2554 79.1797 88.6501C77.464 89.0178 75.2723 88.8443 72.0965 89.6925C70.4806 90.4611 68.4308 90.4417 66.0602 90.9178C60.7493 92.0478 56.6669 90.987 53.9185 90.3567C50.5549 90.0954 48.222 88.294 42.904 89.2583C37.4222 90.2496 33.5076 93.1525 31.9987 94.488C28.4403 97.9999 24.4265 102.422 20.2922 107.867C15.9302 113.766 10.2741 124.055 10.2741 124.055C10.2741 124.055 -0.0201256 121.918 -4.84418 117.796C-9.291 113.997 -13.0574 105.123 -13.0574 105.123Z" fill="#FF7475"/>
<path d="M89.5896 55.9407C90.3206 56.3736 90.6469 56.6383 91.5379 57.0408C94.5372 58.5129 97.7903 56.5047 97.925 55.1715C97.9845 54.0979 94.4958 52.2286 93.3537 51.3019C89.9244 48.3589 83.1419 46.0714 82.2509 45.6689" stroke="#FF7475" stroke-miterlimit="10" stroke-linecap="round" stroke-linejoin="round"/>
<path d="M48.9991 48.648C52.3664 45.9312 55.6554 43.3109 59.0227 40.594C59.258 40.3041 60.6003 38.8289 63.022 38.7104C64.5258 38.6484 65.725 39.1408 66.154 39.3286C72.0028 42.1513 76.5278 43.7395 79.8535 44.8354C81.9015 45.5356 84.5354 46.2304 86.159 48.3492C86.2466 48.4203 86.9938 49.828 88.1561 52.6945C88.5528 53.8177 89.2215 55.322 90.0748 57.1363C91.6938 60.6939 91.4215 63.3579 91.629 65.6098C92.2194 67.2108 92.0624 70.4492 91.329 70.8157C90.2727 71.401 88.5568 70.6498 87.6619 69.6031C86.7763 68.7242 86.6334 67.6466 86.5181 67.0722" stroke="#FF7475" stroke-miterlimit="10" stroke-linecap="round" stroke-linejoin="round"/>
<path d="M10.5222 124.008C27.7517 94.715 38.5595 88.7397 45.4508 89.2029C49.8237 89.5457 58.3294 91.96 66.8168 90.9936C69.0632 90.7328 72.1537 89.0735 76.0792 88.893C80.0046 88.7125 82.1633 88.3807 83.0259 87.3176C83.7225 86.2801 83.2521 83.8148 80.6506 82.1847C78.1367 80.6256 75.1708 79.9819 72.5554 79.6227C69.94 79.2635 67.2923 79.8397 66.7757 79.5807C66.2591 79.3218 57.5411 79.1394 56.2081 77.7372C54.875 76.335 54.0219 71.4755 55.4012 67.6263C56.859 63.6804 58.2751 63.5473 61.3333 62.8234C64.4792 62.1706 65.9276 61.1021 67.03 61.3556C68.1325 61.609 71.0753 63.3559 75.3789 63.9631C76.1769 64.7709 76.781 68.1461 78.8336 70.4527C79.1242 71.1693 77.5188 75.4763 78.0077 78.2771C78.4965 81.0778 81.1949 82.9469 81.9652 83.2514C82.7586 82.4527 84.3363 77.6425 84.4931 77.4493C86.8596 73.2791 87.1411 70.7828 86.7583 68.3886C86.3663 65.8267 85.2549 59.3153 84.8813 57.0889C84.4986 54.6947 81.0068 53.6243 76.3157 52.0616C71.6247 50.4989 62.9344 47.7747 59.4242 46.3688C58.225 45.8764 57.2102 45.6941 56.2046 45.6795C52.2792 45.86 49.0779 48.5514 47.8831 49.6655C31.6967 64.4187 23.638 71.6632 19.0113 77.365C12.5717 85.1218 2.5802 95.2856 -13.0526 104.879" stroke="#FF7475" stroke-miterlimit="10" stroke-linecap="round" stroke-linejoin="round"/>
</g>
</g>
<defs>
<linearGradient id="paint0_linear" x1="80.6387" y1="40.1376" x2="8.81684" y2="128.648" gradientUnits="userSpaceOnUse">
<stop stop-color="#5E60A6"/>
<stop offset="1" stop-color="#26274D" stop-opacity="0"/>
</linearGradient>
</defs>
</svg>
