<svg width="18" height="33" viewBox="0 0 18 33" fill="none" xmlns="http://www.w3.org/2000/svg">
<path d="M14.5374 15.2129C15.7927 14.3476 16.6049 12.9052 16.3834 10.4052C16.0881 7.03986 13.8729 5.88602 10.9932 5.59755V0.886017H8.778V5.5014C8.18729 5.5014 7.59658 5.5014 7.00586 5.5014V0.886017H4.79069V5.59755C4.34766 5.59755 3.83078 5.59755 3.38775 5.59755H0.360352V8.67448C0.360352 8.67448 1.98481 8.57832 1.98481 8.67448C2.87088 8.67448 3.16623 9.34755 3.24007 9.92448V15.3091C3.31391 15.3091 3.38775 15.3091 3.46159 15.3091C3.38775 15.3091 3.31391 15.3091 3.24007 15.3091V22.8091C3.16623 23.1937 3.01856 23.7706 2.42784 23.7706H0.803385L0.360352 27.2322H3.24007C3.75695 27.2322 4.27382 27.2322 4.79069 27.2322V32.0399H7.00586V27.3283C7.59658 27.3283 8.18729 27.3283 8.778 27.3283V32.0399H10.9932V27.3283C14.6851 27.0399 17.2695 25.7899 17.5648 21.2706C17.934 17.5206 16.6049 15.886 14.5374 15.2129ZM7.15354 8.86679C8.40881 8.86679 12.3223 8.28986 12.3223 11.7514C12.3223 15.0206 8.40881 14.636 7.15354 14.636V8.86679ZM7.22738 23.7706V17.4245C8.70416 17.4245 13.4299 16.8476 13.4299 20.5014C13.356 24.1552 8.70416 23.7706 7.22738 23.7706Z" fill="#6C4365"/>
</svg>
