<svg width="40" height="43" viewBox="0 0 40 43" fill="none" xmlns="http://www.w3.org/2000/svg">
<circle cx="20" cy="23" r="20" fill="#6C4365"/>
<circle cx="20" cy="20" r="20" fill="#FF7475"/>
<g clip-path="url(#clip0)">
<path d="M24.4274 19.2593C25.4444 18.7037 26.1026 17.7778 25.9231 16.1728C25.6838 14.0123 23.8889 13.2716 21.5556 13.0864V10.0617H19.7607V13.0247C19.2821 13.0247 18.8034 13.0247 18.3248 13.0247L18.3846 10H16.5897V13.0247C16.2308 13.0247 15.812 13.0247 15.453 13.0247L13 13.0864V15.0617C13 15.0617 14.3162 15 14.3162 15.0617C15.0342 15.0617 15.2735 15.4938 15.3333 15.8642V19.321C15.3932 19.321 15.453 19.321 15.5128 19.321C15.453 19.321 15.3932 19.321 15.3333 19.321V24.1358C15.2735 24.3827 15.1538 24.7531 14.6752 24.7531H13.359L13 26.9753H15.3333C15.7521 26.9753 16.1709 26.9753 16.5897 26.9753V30.0617H18.3846V27.037C18.8632 27.037 19.3419 27.037 19.8205 27.037V30.0617H21.6154V27.037C24.6068 26.8519 26.7009 26.0494 26.9402 23.1481C27.1795 20.679 26.1026 19.6296 24.4274 19.2593ZM18.4444 15.1235C19.4615 15.1235 22.6325 14.7531 22.6325 16.9753C22.6325 19.0741 19.4615 18.8272 18.4444 18.8272V15.1235ZM18.4444 24.7531V20.679C19.641 20.679 23.4701 20.3086 23.4701 22.6543C23.4701 24.9383 19.7009 24.6914 18.4444 24.7531Z" fill="#6C4365"/>
</g>
<defs>
<clipPath id="clip0">
<rect width="14" height="20" fill="white" transform="translate(13 10)"/>
</clipPath>
</defs>
</svg>
