<svg width="147" height="177" viewBox="0 0 147 177" fill="none" xmlns="http://www.w3.org/2000/svg">
    <path opacity="0.6" d="M59.5845 95.9527C82.0947 109.277 107.211 107.882 115.683 92.8376C124.156 77.7928 112.776 54.7952 90.2653 41.4709C67.755 28.1466 42.6387 29.5413 34.1664 44.5861C25.6941 59.6308 37.0742 82.6284 59.5845 95.9527Z" fill="#424475"/>
    <g clip-path="url(#clip0)">
        <path d="M65.1479 76.0923C78.1442 99.1706 100.576 110.838 115.25 102.152C129.925 93.4657 131.285 67.7155 118.289 44.6372C105.292 21.5589 82.8608 9.89162 68.1864 18.5777C53.512 27.2638 52.1516 53.0139 65.1479 76.0923Z" fill="#424475"/>
        <path d="M69.4472 73.5475C82.4435 96.6258 104.991 108.225 119.807 99.4543C134.624 90.6839 136.1 64.8654 123.104 41.787C110.108 18.7087 87.5606 7.10983 72.7437 15.8802C57.9268 24.6507 56.4509 50.4692 69.4472 73.5475Z" fill="#8B8ECE"/>
        <path d="M119.562 99.0186C112.347 103.289 103.193 102.634 94.1716 97.9931C85.1551 93.3548 76.3351 84.7601 69.8774 73.2928C63.4197 61.8254 60.5697 49.697 61.1599 39.3723C61.7504 29.0418 65.7742 20.5864 72.9889 16.3158C80.2036 12.0453 89.358 12.7004 98.3794 17.3413C107.396 21.9796 116.216 30.5743 122.674 42.0417C129.131 53.509 131.981 65.6374 131.391 75.9622C130.801 86.2926 126.777 94.748 119.562 99.0186Z" stroke="#AEB1FA"/>
        <path d="M86.6324 36.087L100.383 64.6001L106.917 51.9912L86.6324 36.087Z" fill="url(#paint0_linear)"/>
        <path d="M86.6436 62.2677L100.383 64.6001L86.6324 36.087L86.6436 62.2677Z" fill="url(#paint1_linear)"/>
        <path d="M93.958 51.2774L86.5836 62.1432L100.323 64.4756L106.857 51.8667L93.958 51.2774Z" fill="url(#paint2_linear)"/>
        <path d="M87.7845 64.6334L106.508 77.3003L101.524 66.9659L87.7845 64.6334Z" fill="url(#paint3_linear)"/>
        <path d="M101.524 66.9659L106.508 77.3003L108.058 54.3569L101.524 66.9659Z" fill="url(#paint4_linear)"/>
    </g>
    <path opacity="0.6" d="M75.8222 164.11C100.929 157.213 117.727 138.019 113.342 121.239C108.956 104.458 85.0476 96.4466 59.9406 103.344C34.8337 110.241 18.0357 129.435 22.4213 146.215C26.8068 162.996 50.7153 171.008 75.8222 164.11Z" fill="#6C4365"/>
    <g clip-path="url(#clip1)">
        <path d="M80.6003 135.569C98.9799 116.725 104.166 91.4918 92.1848 79.2078C80.2032 66.9238 55.5906 72.2413 37.211 91.0847C18.8315 109.928 13.6449 135.162 25.6265 147.446C37.6081 159.73 62.2207 154.412 80.6003 135.569Z" fill="#6C4365"/>
        <path d="M77.0897 131.97C95.4693 113.126 100.562 87.7959 88.4636 75.3926C76.3656 62.9894 51.6587 68.2102 33.2792 87.0536C14.8996 105.897 9.80732 131.227 21.9053 143.631C34.0032 156.034 58.7101 150.813 77.0897 131.97Z" fill="#FF7475"/>
        <path d="M88.1145 75.7506C94.0083 81.7931 95.7593 91.0305 93.7221 101.164C91.686 111.292 85.8719 122.25 76.7406 131.612C67.6092 140.974 56.9214 146.934 47.0422 149.022C37.1583 151.11 28.1482 149.315 22.2544 143.273C16.3606 137.23 14.6096 127.993 16.6467 117.859C18.6829 107.731 24.4969 96.7733 33.6283 87.4115C42.7596 78.0497 53.4474 72.0889 63.3266 70.0014C73.2106 67.9128 82.2206 69.708 88.1145 75.7506Z" stroke="#FFADAE"/>
        <path d="M58.6571 100.1C59.2479 97.9081 58.8903 95.8247 56.5614 94.211C53.4294 92.0351 50.1384 93.8806 46.8762 97.1934L42.9251 93.6404L40.6017 96.356L44.4722 99.8366C43.8527 100.561 43.2331 101.285 42.6136 102.009L38.7431 98.5285L36.4197 101.244L40.3709 104.797C39.9062 105.34 39.3641 105.974 38.8994 106.517L35.7242 110.229L38.3045 112.549C38.3045 112.549 39.9277 110.485 40.0083 110.557C40.9376 109.471 41.8119 109.617 42.3731 109.961L46.8887 114.022C46.9661 113.931 47.0436 113.841 47.121 113.75C47.0436 113.841 46.9661 113.931 46.8887 114.022L53.1783 119.678C53.4234 120.058 53.7523 120.675 53.1327 121.399L51.4289 123.39L53.8672 126.544L56.8875 123.013C57.4296 122.38 57.9717 121.746 58.5138 121.112L62.5456 124.738L64.8689 122.022L60.9178 118.469C61.5373 117.745 62.1569 117.021 62.7765 116.297L66.7276 119.85L69.0509 117.134L65.0998 113.581C68.7301 108.838 70.3924 104.727 66.9123 100.956C64.1548 97.6759 61.39 98.0726 58.6571 100.1ZM45.5907 104.366C46.9072 102.827 50.528 97.5944 53.4309 100.205C56.1725 102.67 51.7454 107.178 50.4288 108.717L45.5907 104.366ZM58.1666 115.515L52.8447 110.729C54.3936 108.919 58.8662 102.69 61.9303 105.446C64.917 108.292 59.7155 113.704 58.1666 115.515Z" fill="url(#paint5_linear)"/>
    </g>
    <defs>
        <linearGradient id="paint0_linear" x1="86.6324" y1="36.087" x2="107.316" y2="76.8907" gradientUnits="userSpaceOnUse">
            <stop stop-color="#5E60A6"/>
            <stop offset="1" stop-color="#26274D" stop-opacity="0"/>
        </linearGradient>
        <linearGradient id="paint1_linear" x1="86.6324" y1="36.087" x2="107.316" y2="76.8907" gradientUnits="userSpaceOnUse">
            <stop stop-color="#5E60A6"/>
            <stop offset="1" stop-color="#26274D" stop-opacity="0"/>
        </linearGradient>
        <linearGradient id="paint2_linear" x1="86.6324" y1="36.087" x2="107.316" y2="76.8907" gradientUnits="userSpaceOnUse">
            <stop stop-color="#5E60A6"/>
            <stop offset="1" stop-color="#26274D" stop-opacity="0"/>
        </linearGradient>
        <linearGradient id="paint3_linear" x1="86.6324" y1="36.087" x2="107.316" y2="76.8907" gradientUnits="userSpaceOnUse">
            <stop stop-color="#5E60A6"/>
            <stop offset="1" stop-color="#26274D" stop-opacity="0"/>
        </linearGradient>
        <linearGradient id="paint4_linear" x1="86.6324" y1="36.087" x2="107.316" y2="76.8907" gradientUnits="userSpaceOnUse">
            <stop stop-color="#5E60A6"/>
            <stop offset="1" stop-color="#26274D" stop-opacity="0"/>
        </linearGradient>
        <linearGradient id="paint5_linear" x1="40.8276" y1="96.092" x2="67.5177" y2="118.926" gradientUnits="userSpaceOnUse">
            <stop stop-color="#6C4365"/>
            <stop offset="1" stop-color="#261423" stop-opacity="0"/>
        </linearGradient>
        <clipPath id="clip0">
            <rect width="95.9147" height="67.2482" fill="white" transform="matrix(0.490684 0.871337 -0.860545 0.509374 99.572 0)"/>
        </clipPath>
        <clipPath id="clip1">
            <rect width="95.3227" height="67.6711" fill="white" transform="matrix(0.698242 -0.715862 0.698242 0.715862 0 121.173)"/>
        </clipPath>
    </defs>
</svg>
