<svg width="24" height="24" viewBox="0 0 24 24" fill="none" xmlns="http://www.w3.org/2000/svg">
    <path d="M12 7.479C10.7396 7.479 9.70833 6.47123 9.70833 5.2395C9.70833 3.97978 10.7396 3 12 3C13.2604 3 14.2917 3.97978 14.2917 5.2395C14.2917 6.47123 13.2604 7.479 12 7.479ZM2.86198 6.55521C3.86458 6.55521 4.66667 7.36703 4.66667 8.34681C4.66667 9.35459 3.86458 10.1384 2.86198 10.1384C1.83073 10.1384 1 9.35459 1 8.34681C1 7.36703 1.83073 6.55521 2.86198 6.55521ZM21.1953 6.55521C22.1979 6.55521 23 7.36703 23 8.34681C23 9.35459 22.1979 10.1384 21.1953 10.1384C20.1641 10.1384 19.3333 9.35459 19.3333 8.34681C19.3333 7.36703 20.1641 6.55521 21.1953 6.55521ZM4.86719 18.9285L3.34896 10.8103C3.80729 10.7263 4.23698 10.4743 4.58073 10.1944C5.52604 11.0342 6.72917 11.846 7.875 11.846C9.25 11.846 10.3672 9.77449 11.1406 8.03888C11.3984 8.12286 11.7135 8.20684 12 8.20684C12.2865 8.20684 12.6016 8.12286 12.8594 8.03888C13.6328 9.77449 14.75 11.846 16.125 11.846C17.2708 11.846 18.474 11.0342 19.4193 10.1944C19.763 10.4743 20.1927 10.7263 20.651 10.8103L19.1328 18.9285H4.86719ZM4.55208 19.6283H19.4479V21H4.55208V19.6283Z" fill="url(#paint0_linear)"/>
    <defs>
        <linearGradient id="paint0_linear" x1="28.5" y1="19.425" x2="2.23774" y2="-7.83199" gradientUnits="userSpaceOnUse">
            <stop stop-color="#FFCE34"/>
            <stop offset="0.609375" stop-color="#FFC3A2"/>
            <stop offset="1" stop-color="#FF7D34"/>
        </linearGradient>
    </defs>
</svg>
