<svg width="120" height="120" viewBox="0 0 120 120" fill="none" xmlns="http://www.w3.org/2000/svg">
<mask id="mask0" mask-type="alpha" maskUnits="userSpaceOnUse" x="0" y="0" width="120" height="120">
<path d="M120 120L0 120L1.43099e-06 -1.66898e-05C66.2308 -1.59e-05 120 53.7692 120 120Z" fill="#272754"/>
</mask>
<g mask="url(#mask0)">
<path d="M-7.80421 106.837C-7.80421 106.837 6.03781 99.2713 8.339 92.0888C10.6751 84.8714 7.99032 85.3247 13.3946 77.0613C15.0682 74.4812 28.3175 61.72 30.7233 58.1288C35.7441 50.5279 38.7077 45.6814 40.5208 42.6829C41.1135 41.6718 41.5668 40.7304 42.6825 38.9871C45.4719 34.5939 46.6922 33.9314 47.7033 33.8965C48.5401 33.8965 49.1328 34.3498 49.342 34.4893C51.2946 35.6747 50.4229 40.1725 39.4051 59.7675C39.4051 59.7675 53.9444 31.9789 58.4073 28.7712C60.3947 27.3416 61.4059 28.0738 61.7197 28.3179C65.799 31.5605 44.8443 60.6043 49.4118 64.614C50.3532 65.4159 52.48 65.4508 57.7797 62.3128C57.7797 62.3128 83.6507 43.7638 85.15 42.7526C90.0661 39.3009 92.8206 42.404 89.7872 46.3439C88.1485 48.4708 87.765 48.7148 65.6944 67.6474C64.9971 68.3447 64.0557 69.1466 62.8702 69.9137C61.7545 70.611 60.7434 71.0643 59.9066 71.4129C59.9415 71.3781 61.5453 71.0991 63.5327 69.4604C64.3695 68.7631 65.4504 67.8914 66.6707 66.8803C82.3606 54.1191 86.7887 51.2949 89.6129 52.3758C89.9615 52.5153 90.5891 52.7942 90.8332 53.4567C91.67 56.246 83.8599 62.3128 79.5713 65.904C69.6344 74.1674 53.1076 90.1363 54.4325 95.2268C54.8161 95.959 55.5134 97.5628 54.9207 98.2253C54.2234 98.9924 52.0268 98.3996 49.3072 96.726C49.7604 96.9701 50.5972 97.3885 51.7478 97.772C59.2441 100.457 63.3932 96.5866 71.029 98.7134C72.6677 99.1667 76.7123 100.352 77.6188 103.281C77.7234 103.595 78.1069 104.815 77.5491 105.931C76.5379 107.779 73.4697 107.57 67.6818 107.639C62.1032 107.709 59.279 107.744 55.9667 108.197C52.5149 108.65 51.7478 109.139 49.621 109.731C48.6447 110.01 47.8776 110.15 46.0297 110.463C41.6017 111.265 39.3353 111.649 38.7426 111.614C36.0579 111.44 35.6395 110.533 32.9199 110.533C31.0371 110.533 29.503 110.952 28.457 111.3C17.997 120.366 10.675 130.477 10.675 130.477" fill="url(#paint0_linear)"/>
<path d="M-8.04888 106.524C-8.04888 106.524 5.79313 98.9578 8.09432 91.7753C10.4304 84.558 7.74566 85.0112 13.15 76.7479C14.8236 74.1677 28.0728 61.4066 30.4786 57.8153C35.4994 50.2842 38.4979 45.4028 40.2761 42.4392C40.8689 41.4281 41.3221 40.4867 42.4379 38.7433C45.2272 34.3501 46.4475 33.6877 47.4586 33.6528C48.2954 33.6528 48.8882 34.1061 49.0974 34.2456C51.015 35.3961 50.1782 39.9288 39.1255 59.4889C39.1255 59.4889 53.6649 31.7003 58.1278 28.4926C60.1152 27.063 61.1263 27.7952 61.4401 28.0393C65.5195 31.2819 44.5647 60.3257 49.1322 64.3354C50.0736 65.1373 52.2005 65.1722 57.5002 62.0342C57.5002 62.0342 83.3712 43.4852 84.8704 42.4741C89.8215 38.9874 92.5759 42.0905 89.5425 46.0304C87.9038 48.1573 87.5203 48.4014 65.4498 67.3339C64.7524 68.0312 63.811 68.8332 62.6256 69.6002C61.5098 70.2975 60.4987 70.7508 59.6619 71.0995C59.6968 71.0646 61.3006 70.7857 63.288 69.1469C64.1248 68.4496 65.2057 67.578 66.426 66.5668C82.116 53.8057 86.544 50.9815 89.3682 52.0624C89.7169 52.2018 90.3445 52.4808 90.5885 53.1432C91.4253 55.9325 83.6152 61.9993 79.3266 65.5906C69.3897 73.8539 52.8629 89.8228 54.1879 94.9133C54.5714 95.6455 55.2687 97.2494 54.676 97.9118C53.9787 98.6789 51.7821 98.0862 49.0625 96.4126C49.5158 96.6566 50.3526 97.075 51.5032 97.4586C58.9995 100.143 63.1486 96.2731 70.7843 98.4C72.4231 98.8532 76.4676 100.039 77.3741 102.967C77.4787 103.281 77.8623 104.502 77.3044 105.617C76.2933 107.465 73.225 107.256 67.4372 107.326C61.8585 107.396 59.0343 107.43 55.722 107.884C52.2702 108.337 51.5032 108.825 49.3763 109.418C48.4 109.697 47.633 109.836 45.785 110.15C41.357 110.952 39.0907 111.335 38.4979 111.301C35.8132 111.126 35.3948 110.22 32.6752 110.22C30.7924 110.22 29.2583 110.638 28.2123 110.987C17.7524 120.052 10.4304 130.163 10.4304 130.163" fill="url(#paint1_linear)"/>
<path d="M49.2718 96.5517C49.725 96.7958 50.5967 97.249 51.7124 97.5977C59.2087 100.282 63.3579 96.4122 70.9936 98.5391C72.6324 98.9923 76.6769 100.178 77.5834 103.107C77.688 103.42 78.0715 104.641 77.5137 105.756C76.5025 107.604 73.4343 107.395 67.6464 107.465C62.0678 107.535 59.2436 107.57 55.9313 108.023C51.0848 108.685 51.5032 109.383 45.9595 110.324C40.9735 111.126 37.1731 111.719 32.8496 110.394C29.6419 109.417 27.3059 107.779 25.9461 106.628" stroke="#8B8ECE" stroke-miterlimit="10" stroke-linecap="round" stroke-linejoin="round"/>
<path d="M59.8718 71.3083C59.8718 71.3083 61.4756 71.0294 63.4979 69.3558C64.3347 68.6584 65.4155 67.7868 66.6359 66.7757C82.3258 54.0145 86.7538 51.1903 89.578 52.2712C89.9267 52.4106 90.5543 52.6896 90.7984 53.352C91.6352 56.1414 83.8251 62.2081 79.5365 65.7994C69.5995 74.0628 53.0728 90.0316 54.3977 95.1221" stroke="#8B8ECE" stroke-miterlimit="10" stroke-linecap="round" stroke-linejoin="round"/>
<path d="M10.6401 130.303C10.6401 130.303 17.9621 120.191 28.4221 111.126" stroke="#8B8ECE" stroke-miterlimit="10" stroke-linecap="round" stroke-linejoin="round"/>
<path d="M-7.80426 106.768C-7.80426 106.768 6.03775 99.2016 8.33894 92.019C10.675 84.8017 7.99028 85.2549 13.3946 76.9916C15.0682 74.4114 28.3175 61.6503 30.7233 58.059C35.744 50.5279 38.7426 45.6466 40.5208 42.6829C41.1135 41.6718 41.5667 40.7304 42.6825 38.987C45.4718 34.5939 46.6921 33.9314 47.7033 33.8965C48.5401 33.8965 49.1328 34.3498 49.342 34.4893C51.2596 35.6399 50.4228 40.1725 39.3702 59.7326C39.3702 59.7326 53.9095 31.944 58.3724 28.7363C60.3598 27.3068 61.3709 28.039 61.6847 28.283C65.7641 31.5256 44.8093 60.5694 49.3769 64.5791C50.3182 65.381 52.4451 65.4159 57.7448 62.2779C57.7448 62.2779 83.6158 43.7289 85.115 42.7178C90.0661 39.2311 92.8206 42.3342 89.7872 46.2742C88.1484 48.401 87.7649 48.6451 65.6944 67.5776" stroke="#8B8ECE" stroke-miterlimit="10" stroke-linecap="round" stroke-linejoin="round"/>
</g>
<defs>
<linearGradient id="paint0_linear" x1="90.4051" y1="41.7289" x2="6.1661" y2="125.968" gradientUnits="userSpaceOnUse">
<stop stop-color="#5E60A6"/>
<stop offset="1" stop-color="#26274D" stop-opacity="0"/>
</linearGradient>
<linearGradient id="paint1_linear" x1="90.1738" y1="41.4369" x2="5.93888" y2="125.672" gradientUnits="userSpaceOnUse">
<stop stop-color="#5E60A6"/>
<stop offset="1" stop-color="#272856"/>
</linearGradient>
</defs>
</svg>
