<svg width="120" height="120" viewBox="0 0 120 120" fill="none" xmlns="http://www.w3.org/2000/svg">
<mask id="mask0" mask-type="alpha" maskUnits="userSpaceOnUse" x="0" y="0" width="120" height="120">
<path d="M120 120L0 120L1.43099e-06 -1.43099e-06C66.2308 -6.41192e-07 120 53.7692 120 120Z" fill="#272754"/>
</mask>
<g mask="url(#mask0)">
<mask id="mask1" mask-type="alpha" maskUnits="userSpaceOnUse" x="-32" y="-7" width="162" height="161">
<circle cx="49.0098" cy="73.0099" r="56.5756" transform="rotate(45 49.0098 73.0099)" fill="#C4C4C4"/>
</mask>
<g mask="url(#mask1)">
<path d="M-3.50173 103.975C-3.50173 103.975 9.73325 96.7411 11.9335 89.8736C14.1671 82.9727 11.6001 83.4061 16.7675 75.5051C18.3677 73.0382 31.0359 60.8367 33.3362 57.4029C38.1368 50.1353 40.9705 45.5014 42.704 42.6344C43.2708 41.6676 43.7041 40.7675 44.7709 39.1006C47.4379 34.9001 48.6047 34.2667 49.5715 34.2334C50.3716 34.2334 50.9384 34.6667 51.1384 34.8001C53.0053 35.9336 52.1719 40.2341 41.6372 58.9698C41.6372 58.9698 55.5389 32.3998 59.8061 29.3327C61.7064 27.9659 62.6732 28.666 62.9732 28.8994C66.8737 31.9997 46.8379 59.7699 51.2051 63.6037C52.1052 64.3704 54.1388 64.4038 59.2061 61.4034C59.2061 61.4034 83.9425 43.6679 85.376 42.7011C90.0766 39.4007 92.7102 42.3677 89.8099 46.1348C88.243 48.1684 87.8763 48.4018 66.7737 66.504C66.1069 67.1708 65.2068 67.9375 64.0733 68.671C63.0065 69.3377 62.0397 69.7711 61.2396 70.1045C61.273 70.0711 62.8065 69.8044 64.7067 68.2376C65.5068 67.5708 66.5403 66.7374 67.7071 65.7706C82.709 53.5691 86.9428 50.8688 89.6432 51.9022C89.9766 52.0356 90.5766 52.3023 90.81 52.9357C91.6101 55.6027 84.1425 61.4034 80.042 64.8372C70.5408 72.7381 54.7388 88.0067 56.0057 92.874C56.3724 93.5741 57.0391 95.1076 56.4724 95.741C55.8056 96.4744 53.7054 95.9077 51.1051 94.3075C51.5384 94.5408 52.3385 94.9409 53.4387 95.3076C60.6062 97.8746 64.5734 94.1741 71.8743 96.2077C73.4412 96.6411 77.3083 97.7746 78.1751 100.575C78.2751 100.875 78.6418 102.042 78.1084 103.109C77.1416 104.875 74.2079 104.675 68.6739 104.742C63.3399 104.809 60.6396 104.842 57.4725 105.276C54.1721 105.709 53.4387 106.176 51.4051 106.742C50.4716 107.009 49.7382 107.142 47.9713 107.442C43.7375 108.209 41.5705 108.576 41.0038 108.543C38.4368 108.376 38.0368 107.509 35.4364 107.509C33.6362 107.509 32.1694 107.909 31.1692 108.243C21.168 116.91 14.1671 126.578 14.1671 126.578" fill="url(#paint0_linear)"/>
<path opacity="0.2" d="M-3.78216 103.675C-3.78216 103.675 9.45282 96.4411 11.6531 89.5736C13.8867 82.6727 11.3197 83.1061 16.487 75.2051C18.0872 72.7382 30.7555 60.5367 33.0557 57.1029C37.8563 49.902 40.7234 45.2348 42.4236 42.4011C42.9903 41.4343 43.4237 40.5342 44.4905 38.8673C47.1575 34.6668 48.3243 34.0334 49.2911 34C50.0912 34 50.6579 34.4334 50.858 34.5668C52.6915 35.6669 51.8914 40.0008 41.3234 58.7031C41.3234 58.7031 55.2252 32.1331 59.4924 29.0661C61.3926 27.6992 62.3594 28.3993 62.6594 28.6327C66.5599 31.7331 46.5241 59.5032 50.8913 63.337C51.7914 64.1038 53.825 64.1371 58.8923 61.1367C58.8923 61.1367 83.6287 43.4012 85.0622 42.4344C89.7961 39.1007 92.4298 42.0677 89.5294 45.8348C87.9626 47.8684 87.5959 48.1018 66.4932 66.204C65.8265 66.8708 64.9264 67.6375 63.7929 68.371C62.7261 69.0377 61.7593 69.4711 60.9592 69.8045C60.9926 69.7711 62.5261 69.5044 64.4263 67.9376C65.2264 67.2708 66.2599 66.4374 67.4267 65.4706C82.4285 53.2691 86.6624 50.5688 89.3627 51.6022C89.6961 51.7356 90.2962 52.0023 90.5296 52.6357C91.3297 55.3027 83.8621 61.1034 79.7615 64.5372C70.2604 72.4381 54.4584 87.7067 55.7252 92.574C56.0919 93.2741 56.7587 94.8076 56.192 95.441C55.5252 96.1744 53.4249 95.6077 50.8246 94.0075C51.258 94.2408 52.0581 94.6409 53.1582 95.0076C60.3258 97.5746 64.293 93.8741 71.5939 95.9077C73.1607 96.3411 77.0279 97.4746 77.8947 100.275C77.9947 100.575 78.3614 101.742 77.828 102.809C76.8612 104.575 73.9275 104.375 68.3935 104.442C63.0595 104.509 60.3591 104.542 57.1921 104.976C53.8917 105.409 53.1583 105.876 51.1247 106.442C50.1912 106.709 49.4578 106.842 47.6909 107.142C43.457 107.909 41.2901 108.276 40.7234 108.243C38.1564 108.076 37.7563 107.209 35.156 107.209C33.3558 107.209 31.8889 107.609 30.8888 107.943C20.8876 116.61 13.8867 126.278 13.8867 126.278" fill="#FF7475"/>
<path d="M51.0714 94.1407C51.5048 94.3741 52.3382 94.8075 53.405 95.1409C60.5726 97.7078 64.5398 94.0074 71.8407 96.041C73.4075 96.4744 77.2747 97.6078 78.1414 100.408C78.2415 100.708 78.6082 101.875 78.0748 102.942C77.108 104.709 74.1743 104.509 68.6403 104.575C63.3063 104.642 60.6059 104.675 57.4389 105.109C52.805 105.742 53.205 106.409 47.9044 107.309C43.1371 108.076 39.5033 108.643 35.3695 107.376C32.3024 106.442 30.0688 104.875 28.7687 103.775" stroke="#FF7475" stroke-miterlimit="10" stroke-linecap="round" stroke-linejoin="round"/>
<path d="M61.2062 70.0044C61.2062 70.0044 62.7397 69.7377 64.6733 68.1375C65.4734 67.4708 66.5069 66.6374 67.6737 65.6706C82.6756 53.4691 86.9094 50.7687 89.6097 51.8022C89.9431 51.9355 90.5432 52.2022 90.7766 52.8356C91.5767 55.5026 84.1091 61.3034 80.0086 64.7371C70.5074 72.6381 54.7054 87.9067 55.9722 92.7739" stroke="#FF7475" stroke-miterlimit="10" stroke-linecap="round" stroke-linejoin="round"/>
<path d="M14.1336 126.411C14.1336 126.411 21.1344 116.744 31.1357 108.076" stroke="#FF7475" stroke-miterlimit="10" stroke-linecap="round" stroke-linejoin="round"/>
<path d="M-3.50213 103.909C-3.50213 103.909 9.73284 96.6744 11.9331 89.8068C14.1667 82.906 11.5997 83.3394 16.7671 75.4384C18.3672 72.9714 31.0355 60.7699 33.3358 57.3361C38.1364 50.1352 41.0034 45.468 42.7036 42.6343C43.2703 41.6675 43.7037 40.7674 44.7705 39.1005C47.4375 34.9 48.6043 34.2666 49.5711 34.2333C50.3712 34.2333 50.938 34.6667 51.138 34.8C52.9715 35.9001 52.1714 40.234 41.6035 58.9363C41.6035 58.9363 55.5052 32.3664 59.7724 29.2993C61.6726 27.9325 62.6394 28.6326 62.9395 28.8659C66.8399 31.9663 46.8041 59.7364 51.1713 63.5703C52.0714 64.337 54.105 64.3704 59.1723 61.37C59.1723 61.37 83.9087 43.6344 85.3422 42.6677C90.0762 39.3339 92.7098 42.3009 89.8095 46.0681C88.2426 48.1017 87.8759 48.335 66.7733 66.4373" stroke="#FF7475" stroke-miterlimit="10" stroke-linecap="round" stroke-linejoin="round"/>
</g>
</g>
<defs>
<linearGradient id="paint0_linear" x1="90.4007" y1="41.7222" x2="9.85593" y2="122.267" gradientUnits="userSpaceOnUse">
<stop stop-color="#5E60A6"/>
<stop offset="1" stop-color="#26274D" stop-opacity="0"/>
</linearGradient>
</defs>
</svg>
