<svg xmlns="http://www.w3.org/2000/svg" xmlns:xlink="http://www.w3.org/1999/xlink" width="45.057" height="22.549" viewBox="0 0 45.057 22.549">
  <defs>
    <linearGradient id="linear-gradient" x1="-0.001" y1="0.501" x2="0.999" y2="0.501" gradientUnits="objectBoundingBox">
      <stop offset="0" stop-color="#014cff"/>
      <stop offset="1" stop-color="#4db2ff"/>
    </linearGradient>
    <linearGradient id="linear-gradient-2" x1="0" y1="0.5" x2="1" y2="0.5" xlink:href="#linear-gradient"/>
  </defs>
  <g id="Group_562" data-name="Group 562" transform="translate(4297 -303.217)">
    <g id="Group_555" data-name="Group 555" transform="translate(-4292.576 306.78)">
      <path id="Path_1088" data-name="Path 1088" d="M443.215,322.257a9.146,9.146,0,0,0,2.682,12.654l9.972-15.335A9.146,9.146,0,0,0,443.215,322.257Z" transform="translate(-441.735 -318.096)" fill="#f7931a"/>
      <path id="Path_1089" data-name="Path 1089" d="M451.307,338.925l-.912-.593a7.226,7.226,0,0,0,2.116,9.986l.593-.912A6.137,6.137,0,0,1,451.307,338.925Z" transform="translate(-447.299 -333.119)" fill="#f3c100"/>
      <path id="Path_1090" data-name="Path 1090" d="M453.752,328.875l.912.593a6.137,6.137,0,0,1,8.481-1.8l.593-.912A7.226,7.226,0,0,0,453.752,328.875Z" transform="translate(-450.656 -323.662)" fill="#e2790c"/>
    </g>
    <path id="Path_1091" data-name="Path 1091" d="M426.16,317.815l.755-1.381a.237.237,0,0,1,.417,0l.755,1.381a.235.235,0,0,0,.094.094l1.381.755a.237.237,0,0,1,0,.417l-1.381.755a.237.237,0,0,0-.094.094l-.755,1.381a.237.237,0,0,1-.417,0l-.755-1.381a.235.235,0,0,0-.094-.094l-1.381-.755a.237.237,0,0,1,0-.417l1.381-.755A.234.234,0,0,0,426.16,317.815Z" transform="translate(-4721.562 -9.99)" fill="#f7931a"/>
    <path id="Path_1092" data-name="Path 1092" d="M448.864,308.916l.415-.758a.13.13,0,0,1,.229,0l.414.758a.13.13,0,0,0,.052.052l.758.415a.13.13,0,0,1,0,.229l-.758.414a.133.133,0,0,0-.052.052l-.414.758a.131.131,0,0,1-.229,0l-.415-.758a.131.131,0,0,0-.052-.052l-.758-.414a.13.13,0,0,1,0-.229l.758-.415A.129.129,0,0,0,448.864,308.916Z" transform="translate(-4738.952 -3.887)" fill="#f3c100"/>
    <path id="Path_1093" data-name="Path 1093" d="M569.762,391.787h-.1c.032,0,.063,0,.1,0Z" transform="translate(-4829.287 -66.022)"/>
    <path id="Path_1094" data-name="Path 1094" d="M578.651,361.337" transform="translate(-4835.958 -43.418)" fill="none" stroke="#000c22" stroke-miterlimit="10" stroke-width="4.748"/>
    <path id="Path_1095" data-name="Path 1095" d="M543.264,342.219a7.719,7.719,0,0,1,1.574-2.06,7.719,7.719,0,0,0-1.574,2.06Z" transform="translate(-4809.686 -27.695)" fill="none"/>
    <path id="Path_1096" data-name="Path 1096" d="M521.77,349.772l.284-.437-.284.437-2.045,3.151-4.766,7.35,4.766-7.35Z" transform="translate(-4788.672 -34.507)" fill="none"/>
    <g id="Group_556" data-name="Group 556" transform="translate(-4287.207 303.217)">
      <path id="Path_1097" data-name="Path 1097" d="M527.27,319.828a2.761,2.761,0,0,0,.829,1.972l-.465.711a2.563,2.563,0,0,0,.647.087,2.762,2.762,0,0,0,.844-.132l.019-.03.033.01a2.76,2.76,0,1,0-1.907-2.619Z" transform="translate(-510.606 -313.869)" fill="none"/>
      <path id="Path_1098" data-name="Path 1098" d="M481.509,304.314a7.748,7.748,0,0,0-.879-.052,7.655,7.655,0,0,0-5.348,2.169l-.157.158a35.431,35.431,0,0,0-2.292,3.194c-.235.35-.484.723-.743,1.116-.072.109-.146.217-.22.33s-.144.22-.22.333c-1.606,2.439-3.581,5.511-5.571,8.636-.861,1.351-1.726,2.712-2.564,4.037l-.093.148-.152.239c-.233.369-.465.733-.692,1.095l.026.015a8.529,8.529,0,0,0,4.274,1.079h1.76C467.147,326.811,479.78,304.512,481.509,304.314Z" transform="translate(-462.579 -304.262)" fill="#133b8c"/>
      <path id="Path_1099" data-name="Path 1099" d="M533.564,316.637a2.75,2.75,0,0,0-.88.146,2.788,2.788,0,0,1,1.5,1.208,1.547,1.547,0,1,0,0,2.835,2.787,2.787,0,0,1-1.481,1.2,2.705,2.705,0,0,0,.863.152,2.771,2.771,0,1,0,0-5.541Z" transform="translate(-514.13 -313.449)" fill="#2e88ff"/>
      <path id="Path_1100" data-name="Path 1100" d="M503.147,337.767a2.562,2.562,0,0,1-.647-.087l-9.085,13.907h1.461l9.115-13.952A2.763,2.763,0,0,1,503.147,337.767Z" transform="translate(-485.472 -329.038)" fill="#133b8c"/>
      <path id="Path_1101" data-name="Path 1101" d="M534.469,337.55l.052-.019-.033-.01Z" transform="translate(-515.95 -328.953)" fill="url(#linear-gradient)"/>
      <path id="Path_1102" data-name="Path 1102" d="M487.461,304.262a7.711,7.711,0,0,0-5.348,2.169l-.157.158a35.474,35.474,0,0,0-2.292,3.194c-.235.35-.484.723-.742,1.116-.072.109-.146.217-.22.33s-.144.22-.22.333c-1.606,2.439-3.581,5.511-5.571,8.636-.861,1.351-1.726,2.712-2.564,4.037-.031.05-.062.1-.094.148l-.151.239c-.233.369-.465.733-.692,1.095l.027.015a8.528,8.528,0,0,0,4.274,1.079h1.884l9.085-13.907.465-.711a2.767,2.767,0,1,1,1.941.8,2.7,2.7,0,0,1-.863-.152l-.052.019-9.115,13.952h4.089l4.766-7.35,2.045-3.151.284-.437.2-.3a7.714,7.714,0,0,1,1.574-2.061,7.558,7.558,0,0,1,.935-.744,7.644,7.644,0,0,1,3.041-1.208,7.8,7.8,0,0,1,1.136-.1A7.679,7.679,0,0,0,487.461,304.262Z" transform="translate(-467.65 -304.262)" fill="url(#linear-gradient-2)"/>
    </g>
    <g id="Group_557" data-name="Group 557" transform="translate(-4275.517 310.409)">
      <path id="Path_1103" data-name="Path 1103" d="M553.286,354.4h1.849a2.771,2.771,0,1,0,0-1.224h-2.514l-.791,1.224Z" transform="translate(-540.529 -346.283)" fill="none"/>
      <path id="Path_1104" data-name="Path 1104" d="M522.97,332.239a7.772,7.772,0,0,0-.918-.056l-.115,0a7.781,7.781,0,0,0-1.137.1,7.643,7.643,0,0,0-3.041,1.208,7.552,7.552,0,0,0-.935.744,7.713,7.713,0,0,0-1.574,2.061l-.2.3-.284.437-2.045,3.151-4.766,7.35h1.8S522.847,332.254,522.97,332.239Z" transform="translate(-507.959 -332.183)" fill="#133b8c"/>
      <path id="Path_1105" data-name="Path 1105" d="M573.5,353.351a2.774,2.774,0,0,1-1.871,2.617,2.737,2.737,0,0,0,.9.153,2.771,2.771,0,0,0,0-5.542,2.745,2.745,0,0,0-.9.153A2.774,2.774,0,0,1,573.5,353.351Z" transform="translate(-555.226 -345.841)" fill="#133b8c"/>
      <path id="Path_1106" data-name="Path 1106" d="M538.353,363.713l-4.676,7.234h1.456l4.676-7.234Z" transform="translate(-527.052 -355.591)" fill="#133b8c"/>
      <path id="Path_1107" data-name="Path 1107" d="M529.052,332.183l-.115,0c-.261,0-.517.025-.771.055-.123.014-.245.027-.366.046a7.643,7.643,0,0,0-3.041,1.208,7.556,7.556,0,0,0-.935.744,7.713,7.713,0,0,0-1.574,2.061l-.2.3-.284.437-2.045,3.151-4.766,7.35h4.822l4.676-7.234.791-1.224h2.514a2.781,2.781,0,0,1,1.794-2.006,2.745,2.745,0,0,1,.9-.153,2.771,2.771,0,0,1,0,5.542,2.738,2.738,0,0,1-.9-.153,2.781,2.781,0,0,1-1.794-2.005h-1.849l-4.676,7.234h7.815c.031,0,.062,0,.1,0a7.676,7.676,0,0,0-.1-15.352Z" transform="translate(-513.156 -332.183)" fill="url(#linear-gradient-2)"/>
    </g>
    <path id="Path_1108" data-name="Path 1108" d="M570.672,358.426a1.547,1.547,0,1,0-1.547-1.547A1.549,1.549,0,0,0,570.672,358.426Z" transform="translate(-4828.886 -38.96)" fill="#2e88ff"/>
    <path id="Path_1109" data-name="Path 1109" d="M541.659,353.963a2.771,2.771,0,1,0,0-1.224h-2.514l-5.467,8.458h1.456l4.676-7.235Zm2.7-2.159a1.547,1.547,0,1,1-1.547,1.547A1.55,1.55,0,0,1,544.356,351.8Z" transform="translate(-4802.569 -35.433)" fill="#fff"/>
    <path id="Path_1110" data-name="Path 1110" d="M504.907,322.178a2.779,2.779,0,1,0-1.941-.8L493.416,336h1.461l9.134-13.982A2.728,2.728,0,0,0,504.907,322.178Zm-1.547-2.771a1.548,1.548,0,1,1,1.547,1.547A1.549,1.549,0,0,1,503.359,319.408Z" transform="translate(-4772.679 -10.233)" fill="#fff"/>
  </g>
</svg>
