<svg xmlns="http://www.w3.org/2000/svg" xmlns:xlink="http://www.w3.org/1999/xlink" width="158" height="135" viewBox="0 0 158 135">
  <defs>
    <clipPath id="clip-path">
      <rect id="Rectangle_502" data-name="Rectangle 502" width="158" height="135" transform="translate(205 802)" fill="#2c2e5f" stroke="#707070" stroke-width="1"/>
    </clipPath>
  </defs>
  <g id="Group_228" data-name="Group 228" transform="translate(-205 -802)" clip-path="url(#clip-path)">
    <path id="Union_17" data-name="Union 17" d="M49.4,106.2l-.128-.077c1.127-1.8,2.279-3.593,3.431-5.415l.755-1.186.461-.726c4.173-6.561,8.462-13.289,12.8-19.978C76.6,63.362,86.42,48.239,94.394,36.109c.385-.56.743-1.108,1.1-1.643s.729-1.1,1.088-1.643c1.281-1.937,2.561-3.823,3.686-5.517,5.607-8.3,9.716-14.016,11.392-15.8l.781-.777a38.177,38.177,0,0,1,64.64,24.848,37.969,37.969,0,0,1,.091,75.935H137.864L161.1,75.734h9.14a13.668,13.668,0,1,0,0-6.052H157.742l-3.93,6.052-23.181,35.79H87.252L132.54,42.518l.268-.088a13.7,13.7,0,0,0,9.557-25.662,13.821,13.821,0,0,0-16.742,5.123,13.676,13.676,0,0,0,1.821,17.341l-2.3,3.516-45.146,68.8H70.637c-.184,0-.369,0-.553,0A42.6,42.6,0,0,1,49.4,106.2ZM29.332,38.224A45.567,45.567,0,0,1,92.155,24.948l-5.186,7.946.066.043-3.009,4.485-.008-.005-33.2,50.877.007,0-2.943,4.51-.007,0L42.656,100.8A45.105,45.105,0,0,1,29.332,38.224Zm146.677,34.5a7.68,7.68,0,1,1,7.681,7.644A7.663,7.663,0,0,1,176.009,72.728Zm-43.368-30.3h.167l-.268.088ZM11.693,40.084,7.942,33.256a1.277,1.277,0,0,0-.473-.459L.607,29.051A1.17,1.17,0,0,1,.607,27l6.861-3.734a1.387,1.387,0,0,0,.473-.471l3.751-6.829a1.179,1.179,0,0,1,2.06,0l3.764,6.829a1.268,1.268,0,0,0,.461.471L24.839,27a1.17,1.17,0,0,1,0,2.051L17.977,32.8a1.135,1.135,0,0,0-.461.459l-3.764,6.829a1.18,1.18,0,0,1-2.06,0ZM129.4,29.56a7.681,7.681,0,1,1,7.681,7.645A7.662,7.662,0,0,1,129.4,29.56ZM36.4,18.488l-2.061-3.823a.614.614,0,0,0-.256-.255L30.317,12.4a.637.637,0,0,1,0-1.121L34.08,9.225a.578.578,0,0,0,.256-.306L36.4,5.174a.654.654,0,0,1,1.139,0L39.6,8.919a.734.734,0,0,0,.256.268l3.764,2.051a.636.636,0,0,1,0,1.12l-3.764,2.051a.819.819,0,0,0-.256.255l-2.061,3.823a.654.654,0,0,1-1.139,0Z" transform="translate(214 825)" fill="#2c2e5f"/>
  </g>
</svg>
