<svg xmlns="http://www.w3.org/2000/svg" xmlns:xlink="http://www.w3.org/1999/xlink" viewBox="0 0 123 123"><defs><style>.cls-1 { fill: none; } .cls-2 { clip-path: url(#clip-path); } .cls-3 { fill: #1d2133; } .cls-4 { fill: #2b2d47; } .cls-5 { fill: #ff7475; } .cls-6 { fill: #853f4d; } .cls-7 { fill: url(#Безымянный_градиент); } .cls-8 { fill: #383c5d; } .cls-9 { fill: url(#Безымянный_градиент_2); } .cls-10 { fill: #3a3f47; } .cls-11, .cls-15 { fill: #f7f8f9; } .cls-11 { stroke: #f7f8f9; stroke-miterlimit: 10; stroke-width: 0.5px; } .cls-12 { fill: #363a5b; } .cls-13 { fill: #ea8; } .cls-14 { fill: #a77860; } .cls-16 { fill: url(#Безымянный_градиент_3); } .cls-17 { fill: #343859; } .cls-18 { fill: #f9f5f4; } .cls-19 { fill: #eea987; }</style><clipPath id="clip-path"><rect width="123" height="123" class="cls-1" rx="15"/></clipPath><linearGradient id="Безымянный_градиент" x1="-30.51" x2="-29.51" y1="154.54" y2="154.54" gradientTransform="matrix(5.07 0 0 -5.46 220 905.09)" gradientUnits="userSpaceOnUse"><stop offset="0" stop-color="#ff8e7b"/><stop offset="1" stop-color="#ffbd7d"/></linearGradient><linearGradient id="Безымянный_градиент_2" x1="-32.3" x2="-31.3" y1="156.47" y2="156.47" gradientTransform="matrix(6.67 0 0 -7.56 303.69 1271.43)" xlink:href="#Безымянный_градиент"/><linearGradient id="Безымянный_градиент_3" x1="-32.69" x2="-31.69" y1="154.71" y2="154.71" gradientTransform="matrix(7.16 0 0 -5.6 294.47 930.35)" gradientUnits="userSpaceOnUse"><stop offset="0" stop-color="#f7a279"/><stop offset="1" stop-color="#ffc785"/></linearGradient></defs><g class="cls-2"><g id="Mask_Group_98"><g id="Group_833"><g id="Group_704"><path id="Path_358" d="M87.93 81.42l5.2 69.8h8s-.16-32.5 1.94-48.53 4.2-19.28 3.24-26.73z" class="cls-3"/><path id="Path_359" d="M87 80.17l3.88 71.06h8s-.16-32.5 1.94-48.54S105 83.4 104 76z" class="cls-4"/><path id="Rectangle_167" d="M77.36 94.42h29.3a1.1 1.1 0 0 1 1.1 1.1v18.3a1.1 1.1 0 0 1-1.1 1.1h-29.3a1.1 1.1 0 0 1-1.1-1.12V95.53a1.1 1.1 0 0 1 1.1-1.1z" class="cls-5"/><path id="Path_360" d="M96.2 92v2.38h-.6v-1.7a.8.8 0 0 0-.8-.8H89.3a.8.8 0 0 0-.8.8v1.74h-.57V92a.8.8 0 0 1 .8-.8h6.68a.8.8 0 0 1 .8.8z" class="cls-6"/><path id="Path_361" d="M70.23 59.56s.07-.9-2.48-.32S64 64.42 66.7 64.5s3.53-1.6 3.53-1.6z" class="cls-7"/><path id="Path_362" d="M88.87 56.63s-8.08 4.14-9.73 4.77-8.9 2.42-8.9 2.42v-5.2s8-2.94 8.4-3.58L88.86 40.4z" class="cls-8"/><path id="Path_371" d="M89.83 85.45s-1.15 2.55-1.47 3.37.7 1.15.7 1.15.2 2 1 2.6 1.52.26 2.73.4 1.77.05 2.1-.84-.14-1.9 0-3.88-.2-2.35-.2-2.35z" class="cls-9"/><path id="Path_363" d="M88.88 17.37s-2.8 0-3.35-.8-1.1-2.52 2.72-3.5 8.9-4 12.28.1-1.47 15.18-1.47 15.18z" class="cls-10"/><path id="Path_364" d="M90.08 83.23l-.25 2.22 4.83.45.45-2.68z" class="cls-11"/><path id="Path_365" d="M102.9 81.62a21.93 21.93 0 0 1-5.35.6c-1.3 0-2.7 0-4.08-.1-4.6-.3-6.8 0-7.9-1.14-.6-.58 1.42-12.67 1-21.23a52.92 52.92 0 0 1 1.58-17.18 19.57 19.57 0 0 1 2.67-5.35l9.1-3.5s3.73 3.58 4.2 6.56a136.67 136.67 0 0 1 1.04 20.62c-.07 4.93 1.67 14.35 1.9 16.27s.5 3.08-4.15 4.45z" class="cls-12"/><path id="Path_366" d="M100.77 64.84c-.25 3.12-2.23 13-3.1 17.27-1.3.1-2.7.12-4.08.1l7-33.4s.5 12.03.17 16.04z" class="cls-3"/><path id="Path_367" d="M100 33.2s-7.1 3.35-6.75 1.4a5.28 5.28 0 0 0 0-1.86 6.67 6.67 0 0 0-.68-1.87 4.64 4.64 0 0 1-1.34.7 3.46 3.46 0 0 1-2.64-.13c-2.06-1-1.3-14.2-1.3-14.2 4.43.54 5.58-.75 6.76-.12s1.87 6 2.84 5.87.5-2.8 1.55-3.12 1.43 2 1 3.42S98 24 98 24c1.12 3.94 2 9.2 2 9.2z" class="cls-13"/><path id="Path_368" d="M95.88 28a10.8 10.8 0 0 1-2.7 4.77 6.45 6.45 0 0 0-.7-1.87 4.9 4.9 0 0 1-1.33.7 18 18 0 0 0 4.73-3.6z" class="cls-14"/><path id="Path_369" d="M100.7 34.83c.82-.37-.5-3.24-1-3.3s-7.47 2.7-8.3 2.85-1.8 4.37-1.8 4.37 8.57-2.75 11.1-3.92z" class="cls-15"/><path id="Path_370" d="M89.38 84.43l5.8.64s4.2-17.94 4.9-21.44 1.92-21.7-2.36-22.7-6.87 1.84-6 10.17.9 11 .77 13.6-3.12 19.73-3.12 19.73z" class="cls-12"/><path id="Path_372" d="M90.22 40.9s-2.22 3.2-2.6 10.37-.23 18.07-.54 19.27A3.46 3.46 0 0 1 85 72.86c-.57 0-.75-2.2-.75-2.9 0-1.34.87-8.8 1.1-15s2-13.53 3.5-14.55z" class="cls-5"/><path id="Path_373" d="M90 38.64c-1.16.37-2.26 3.27-1.8 3.93s4.38-4.25 3.2-4.3a3.47 3.47 0 0 0-1.4.37z" class="cls-5"/></g><g id="Group_705"><path id="Path_375" d="M61.4 67.44a31.42 31.42 0 0 0 3.72-.8c1-.37 3-2 2.4-3.9s-3.45-.18-4.26 0a12.42 12.42 0 0 0-2.6 1.5s-.74 2.64.75 3.2z" class="cls-16"/><path id="Path_376" d="M44.3 20.3a5.63 5.63 0 0 0 3.67-1 3.4 3.4 0 0 0 .36-4.82 3.73 3.73 0 0 0-.73-.64c-2.1-1.26-4.6-.08-8.6-1.75s-6.93-1.62-6.7 2.84c0 0-2.6-.13-2.77 4s2.47 9.72 4 12z" class="cls-10"/><path id="Path_377" d="M45.06 71.78s0 23.2-1.92 44c-.94 10.22-1.78 35.62-1.78 35.62H33.8s-1.6-32.6-1.9-38.77c-.77-16.15-5.55-24.24-4.67-39.37z" class="cls-4"/><path id="Path_378" d="M46.9 72.7a7 7 0 0 1 0 .93c-.37 3.53-1.73 6.13-9.84 6.25s-12.32-1.3-12.88-3.1.8-3.16 1.36-12.26S22.7 50.6 24.94 44 30 35.18 30 35.18s6.8 3.46 9.66 4.7 5 6.2 5.33 16.78a90.78 90.78 0 0 0 1.7 13.76 14.74 14.74 0 0 1 .2 2.3z" class="cls-17"/><path id="Path_379" d="M46.9 72.72c-5.32.94-10.07.54-11.44-.45-1.55-1.1-4.4-2.9-6.7-10.6a43.67 43.67 0 0 1-1.4-15L35 63.6l5.9 2.17 5.85 4.66a16 16 0 0 1 .15 2.3z" class="cls-3"/><path id="Path_380" d="M59.1 64.1l1.27-.1a.42.42 0 0 1 .42.25 7.2 7.2 0 0 1 .6 3.2.42.42 0 0 1-.32.37l-1.78.5z" class="cls-18"/><path id="Path_381" d="M42.75 33a1.5 1.5 0 0 1-1.6.6l-.3-.1a6.9 6.9 0 0 1-2-1.1 19.06 19.06 0 0 0-.33 2.13 15.44 15.44 0 0 0 0 3l-6.13-3A61.53 61.53 0 0 1 34.15 26s-.68.92-1.24-.75-.24-3.34 1.06-3.34.8 3.17 1.54 3.72 1-3.53 2-5.38 2.72-2 3.84-1.24A5 5 0 0 0 45 20.27s.37 9-2.25 12.73z" class="cls-19"/><path id="Path_382" d="M40.85 40.7s-.5-.5-.68-3.1c-.08-1.12-.68-.7-4.46-2.42s-3.7-2.48-4.26-2.1a8.4 8.4 0 0 0-1.44 2.1 19.75 19.75 0 0 0 10.85 5.5z" class="cls-18"/><path id="Path_383" d="M60.65 67a7 7 0 0 0-.46-2.36 1.57 1.57 0 0 0-1.63-1C55 64 43.75 65 40.85 63.54c-3.47-1.8-3.78-4.9-4.27-10.9s-2.23-9.78-4.28-10.28S25.93 43 27.47 53 34 70.54 38.12 71.6c3.48.9 17.3-2.12 21.3-3a1.55 1.55 0 0 0 1.23-1.6z" class="cls-17"/><path id="Path_384" d="M38.8 32.43a16.85 16.85 0 0 0-.33 2.13c-1.92-1.82-2.45-5.2-2.45-5.2a11.16 11.16 0 0 0 2.78 3.07z" class="cls-14"/></g></g></g></g></svg>