<svg xmlns="http://www.w3.org/2000/svg" id="Слой_1" data-name="Слой 1" viewBox="0 0 123 123"><defs><clipPath id="clip-path"><rect width="123" height="123" fill="none" rx="15"/></clipPath><style>.cls-3{fill:#ff7475}.cls-4{fill:#ce5455}.cls-5{fill:#343859}.cls-6{fill:#eea886}.cls-11{fill:#1d2133}</style></defs><g clip-path="url(#clip-path)"><g id="Mask_Group_99" data-name="Mask Group 99"><g id="Group_1055" data-name="Group 1055"><path id="Rectangle_262" d="M54.83 109.33h59.62v7.24H54.83z" class="cls-3" data-name="Rectangle 262"/><path id="Rectangle_263" d="M57.38 102.09H117v7.24H57.38z" class="cls-4" data-name="Rectangle 263"/><path id="Path_1073" d="M55.85 116.57h59.62v7.23H55.85z" class="cls-4" data-name="Path 1073"/><g id="Group_1054" data-name="Group 1054"><g id="Group_1029" data-name="Group 1029"><path id="Path_1077" d="M79.58 53.05s-1.26 7.46-2.27 12.39a30.15 30.15 0 01-1 4.09 57.31 57.31 0 01-5.53 6.13C65.7 80.87 59 87.43 59 87.43l-2.62-5s5.94-7 10-11.62a70.9 70.9 0 013.59-4c.84-.75 1.81-8.17 3.19-14.29A24.49 24.49 0 0177.27 43z" class="cls-5" data-name="Path 1077"/></g><g id="Group_1030" data-name="Group 1030"><path id="Path_1078" d="M70.77 75.66A832.87 832.87 0 0159 87.43l-2.62-5s5.94-7 10-11.61a8.48 8.48 0 014.39 4.84z" class="cls-6" data-name="Path 1078"/></g><g id="Group_1032" data-name="Group 1032"><path id="Path_1080" d="M103.53 86.42c.19.67-34.41 0-34.41 0s9.57-7 10.19-8.83-2.43-13-2.84-16.66C76.16 58 75.36 45 77.27 43s9.22-4.25 9.22-4.25l10.51.42a16.37 16.37 0 013 .94c1.24.57 8.33 3.1 9.48 6.65S102.4 61.7 102.4 61.7v1.35c0 1.12-.07 2.82-.12 4.67 0 2.39-.1 5-.1 6.94a69.41 69.41 0 001.35 11.76z" class="cls-5" data-name="Path 1080"/></g><g id="Group_1033" data-name="Group 1033"><path id="Path_1081" fill="#282b45" d="M103.53 86.42s4.71 6.91 4.78 11.63-8.36 20.53-9.63 22.79c-3.83 6.8-14.33 21.46-14.33 21.46s-1.81-.05-7.46-2.24c0 0 7-19.37 7.87-21.38 3.76-8.52 5.86-14.57 4.59-16s-4.7-2.92-5.7-3.79-18.37 3.28-20.19 3.75c-4.71 1.23-2.56 9.43-1.52 13.1 1.75 6.15 3.27 28.37 3.27 28.37s-3.35 1.43-9 .22c0 0-11-40.11-11.4-44.09s-.51-10.61 26.7-15.61z" data-name="Path 1081"/></g><g id="Group_1034" data-name="Group 1034"><path id="Path_1082" d="M89.37 15.93s-9.12-2.06-7 9.42 4.28 12.4 9.79 10 5-9.74 5.29-13.35-5.16-5.95-8.08-6.07z" class="cls-6" data-name="Path 1082"/></g><g id="Group_1035" data-name="Group 1035"><path id="Path_1083" d="M87 41.72s4 4.29 10.43.39c0 0-1.43-9.29-.67-13.81s-8.34 7-8.34 7 .2.5.22 1.11a12.54 12.54 0 01-.1 1.84c-.23 1.52-.69 3.1-1.54 3.47z" class="cls-6" data-name="Path 1083"/></g><g id="Group_1036" data-name="Group 1036"><path id="Path_1084" fill="#3a3f47" d="M97 27.92s-.24-3.62-1.56-3.73-1.52 1.34-1.52 1.34l-1.34.25s.42-3.17-.9-3.72-8.56 1.74-9.61.81-.57-7.37 1.35-8.25 7.21-2.85 11.09-.23c0 0 3-.34 3.47 2.1s-.19 9.61-.98 11.43z" data-name="Path 1084"/></g><g id="Group_1037" data-name="Group 1037"><path id="Path_1085" fill="#a77860" d="M88.5 38.26c6.59-2 7.09-6 7.1-6.06-2.17 3.73-7 4.22-7 4.22a12.54 12.54 0 01-.1 1.84z" data-name="Path 1085"/></g><g id="Group_1038" data-name="Group 1038"><path id="Path_1086" d="M100.09 40.16s-4.83 9.61-12.63 9-1.32-10.28-1-10.37 8.03-2.01 13.63 1.37z" class="cls-6" data-name="Path 1086"/></g><g id="Group_1039" data-name="Group 1039"><path id="Path_1087" fill="#e3edf4" d="M65.16 85.93s23.9 2.95 38.38.49L75.87 83s-.16.67-10.71 2.93z" data-name="Path 1087"/></g><g id="Group_1040" data-name="Group 1040"><path id="Path_1088" d="M83 81.88l-1.78.9s.41 2.83 1.39 3.68l2-.51s-.39-3.1-1.61-4.07z" class="cls-6" data-name="Path 1088"/></g><g id="Group_1041" data-name="Group 1041"><path id="Path_1089" d="M110.68 76.09c-.35.41-5.05 2.3-10.35 4.34a338.7 338.7 0 01-15.43 5.44l-1.86-4S91.6 77.22 97.39 74a60.5 60.5 0 005.14-3.06c.94-.88 1.18-2.31.49-4.78s-2.26-13.87-2.44-15.2.45-4.88 3.77-5.06a9.94 9.94 0 015 .77s.83.34 1.45 8.41.73 20.03-.12 21.01z" class="cls-5" data-name="Path 1089"/></g><g id="Group_1042" data-name="Group 1042"><path id="Path_1090" d="M102.35 63.05c0 1.12-.08 2.82-.12 4.66a23.32 23.32 0 01-1.34-14.4c-.35 2.16 1.44 9.63 1.46 9.74z" class="cls-11" data-name="Path 1090"/></g><g id="Group_1043" data-name="Group 1043"><path id="Path_1091" d="M77.31 65.45a30.38 30.38 0 01-1 4.08c-1.11-5.36-.11-12.23-.11-12.23a67.66 67.66 0 001.11 8.15z" class="cls-11" data-name="Path 1091"/></g><g id="Group_1044" data-name="Group 1044"><path id="Path_1092" d="M100.33 80.43c-7.25 2.8-15.7 5.57-15.7 5.57L83 81.88s8.6-4.66 14.39-7.88c0 0 2.1 1 2.94 6.43z" class="cls-6" data-name="Path 1092"/></g><g id="Group_1045" data-name="Group 1045"><path id="Path_1093" d="M82.52 84.32L40.8 83.7l21.06 10.7z" class="cls-4" data-name="Path 1093"/></g><g id="Group_1046" data-name="Group 1046"><path id="Path_1094" d="M61.86 94.4l20.66-8v-2.08l-22.29 8z" class="cls-3" data-name="Path 1094"/></g><g id="Group_1048" data-name="Group 1048"><g id="Group_1047" data-name="Group 1047"><path id="Path_1095" d="M81.64 82.84s-2.12-.33-3.59-.67c-1.13-.27-4 .1-4.67.83s-3 5.8-3.44 6.11.22 1 1 .67c0 0 .7 2.22 2.42 1.39s2.89-2.65 3.79-3 6.14-1.93 6.14-1.93-.29-3.94-1.65-3.4z" class="cls-6" data-name="Path 1095"/></g></g><g id="Group_1050" data-name="Group 1050"><g id="Group_1049" data-name="Group 1049"><path id="Path_1096" d="M73.89 82.66a14.37 14.37 0 00-1.71 1c-.36.29-1.8 1.37-2.15 1.62s.52 1 3.1-.14.76-2.48.76-2.48z" class="cls-6" data-name="Path 1096"/></g></g><g id="Group_1051" data-name="Group 1051"><path id="Path_1097" d="M61.86 94.4L49.45 60.51l-40 .66 11.82 31.22z" class="cls-3" data-name="Path 1097"/></g><g id="Group_1052" data-name="Group 1052"><path id="Path_1098" d="M36.65 75.5c1.22 2.44.85 5.1-.82 5.94s-4-.46-5.25-2.9-.85-5.1.83-5.94 4.02.46 5.24 2.9z" class="cls-4" data-name="Path 1098"/></g><g id="Group_1053" data-name="Group 1053"><path id="Path_1099" d="M93.91 24a1.17 1.17 0 012.29.13c.16 1.52-.91 4.19-1.67 3.93s-.78-2.67-.62-4.06z" class="cls-6" data-name="Path 1099"/></g></g></g></g></g></svg>