<svg id="Group_959" data-name="Group 959" xmlns="http://www.w3.org/2000/svg" viewBox="0 0 90 90">
  <defs>
    <style>
      .cls-1 {
        fill: #6c4365;
      }

      .cls-2 {
        fill: #b65c6f;
      }

      .cls-3 {
        fill: #cb6372;
      }

      .cls-4 {
        fill: #98526b;
      }

      .cls-5 {
        fill: #fff;
      }
    </style>
  </defs>
  <g id="network">
    <g id="Group_927" data-name="Group 927">
      <path id="Path_599" data-name="Path 599" class="cls-1" d="M47.51,16.6v9.73a2.36,2.36,0,0,1-4.71.1V16.6a2.36,2.36,0,0,1,4.71-.1Z"/>
      <path id="Path_600" data-name="Path 600" class="cls-1" d="M47.51,63.37v9.42a2.36,2.36,0,0,1-4.71.1V63.37a2.36,2.36,0,0,1,4.71,0Z"/>
    </g>
    <g id="Group_928" data-name="Group 928">
      <path id="Path_601" data-name="Path 601" class="cls-2" d="M72.24,28.19,48.66,14.4A2.35,2.35,0,0,1,51,10.33L74.6,24.11a2.36,2.36,0,1,1-2.36,4.08Z"/>
      <path id="Path_602" data-name="Path 602" class="cls-2" d="M75.91,59.08V31.23a2.36,2.36,0,0,1,4.71,0V59.08a2.36,2.36,0,0,1-4.71,0Z"/>
      <path id="Path_603" data-name="Path 603" class="cls-2" d="M48.63,76.79,72.47,63.18c2.67-1.56,5.06,2.51,2.35,4.07L51,80.87a2.36,2.36,0,1,1-2.36-4.08Z"/>
      <path id="Path_604" data-name="Path 604" class="cls-2" d="M72.81,63.53,60.46,56.61a2.35,2.35,0,1,1,2.34-4.08l12.35,6.92a2.35,2.35,0,0,1-2.34,4.08Z"/>
      <path id="Path_605" data-name="Path 605" class="cls-2" d="M61.24,37.71a2.35,2.35,0,0,1-1.17-4.4l12.51-7c2.67-1.55,5.06,2.53,2.34,4.08l-12.51,7A2.41,2.41,0,0,1,61.24,37.71Z"/>
      <path id="Path_606" data-name="Path 606" class="cls-3" d="M47.51,16.6v9.73a2.26,2.26,0,0,1-2.18,2.35h-.17V14.25a2.27,2.27,0,0,1,2.35,2.18Z"/>
      <path id="Path_607" data-name="Path 607" class="cls-3" d="M47.51,63.37v9.42a2.33,2.33,0,0,1-2.31,2.35h0V61a2.33,2.33,0,0,1,2.35,2.31Z"/>
    </g>
    <g id="Group_929" data-name="Group 929">
      <path id="Path_608" data-name="Path 608" class="cls-1" d="M39.33,80.87,15.19,67.25a2.35,2.35,0,0,1,2.35-4.07L41.68,76.79a2.35,2.35,0,0,1-2.35,4.08Z"/>
      <path id="Path_609" data-name="Path 609" class="cls-1" d="M9.38,59.08V31.23a2.36,2.36,0,0,1,4.71,0V59.08a2.36,2.36,0,0,1-4.71,0Z"/>
      <path id="Path_610" data-name="Path 610" class="cls-1" d="M15.4,24.11,39.3,10.32c2.66-1.55,5.06,2.52,2.35,4.08L17.76,28.19a2.36,2.36,0,0,1-2.36-4.08Z"/>
      <path id="Path_611" data-name="Path 611" class="cls-1" d="M16,63.84a2.36,2.36,0,0,1-1.17-4.4l12.66-6.92a2.36,2.36,0,0,1,2.34,4.09h0L17.19,63.53A2.41,2.41,0,0,1,16,63.84Z"/>
      <path id="Path_612" data-name="Path 612" class="cls-1" d="M29.08,37.71a2.38,2.38,0,0,1-1.17-.31l-12.83-7a2.36,2.36,0,0,1,2.34-4.09l12.83,7a2.37,2.37,0,0,1,.88,3.21,2.34,2.34,0,0,1-2.05,1.19Z"/>
    </g>
    <path id="Path_613" data-name="Path 613" class="cls-4" d="M64,45.16A18.83,18.83,0,1,1,45.16,26.33,18.83,18.83,0,0,1,64,45.16Z"/>
    <g id="Group_930" data-name="Group 930">
      <path id="Path_614" data-name="Path 614" class="cls-1" d="M45.16,4.83a7.06,7.06,0,1,0,7.06,7.06,7.06,7.06,0,0,0-7.06-7.06Z"/>
      <path id="Path_615" data-name="Path 615" class="cls-1" d="M45.16,71.05a7.06,7.06,0,1,0,7.06,7.06,7.06,7.06,0,0,0-7.06-7.06Z"/>
    </g>
    <path id="Path_616" data-name="Path 616" class="cls-3" d="M73.12,31.56a7.06,7.06,0,1,1,10,0h0A7.07,7.07,0,0,1,73.12,31.56Z"/>
    <path id="Path_617" data-name="Path 617" class="cls-1" d="M6.9,68.74a7.06,7.06,0,1,1,10,0h0A7.07,7.07,0,0,1,6.9,68.74Z"/>
    <path id="Path_618" data-name="Path 618" class="cls-3" d="M73.12,68.74a7.06,7.06,0,1,1,10,0h0A7.07,7.07,0,0,1,73.12,68.74Z"/>
    <path id="Path_619" data-name="Path 619" class="cls-1" d="M11.89,33.62a7.05,7.05,0,1,1,5-2.06A7.05,7.05,0,0,1,11.89,33.62Z"/>
    <g id="Group_931" data-name="Group 931">
      <path id="Path_620" data-name="Path 620" class="cls-3" d="M52.22,78.11a7.06,7.06,0,0,1-7,7.06h0V71.05a7,7,0,0,1,7.06,7Z"/>
      <path id="Path_621" data-name="Path 621" class="cls-3" d="M45.16,19V4.83A7.06,7.06,0,0,1,45.33,19Z"/>
    </g>
    <path id="Path_622" data-name="Path 622" class="cls-2" d="M64,45.16A18.84,18.84,0,0,1,45.17,64h0V26.33A18.83,18.83,0,0,1,64,45.15Z"/>
    <path id="Path_623" data-name="Path 623" class="cls-3" d="M45.16,24A21.19,21.19,0,1,0,66.34,45.16,21.19,21.19,0,0,0,45.16,24ZM28.92,47.51h4.61A31.73,31.73,0,0,0,36.12,58.9a16.61,16.61,0,0,1-7.2-11.39Zm4.61-4.71H28.92a16.61,16.61,0,0,1,7.2-11.39A31.77,31.77,0,0,0,33.53,42.8ZM42.8,60.5c-2.25-2.07-4.18-6.87-4.61-13H42.8Zm0-17.7H38.19c.42-6.12,2.36-10.92,4.61-13Zm18.6,0H56.78a31.56,31.56,0,0,0-2.59-11.39A16.63,16.63,0,0,1,61.4,42.8ZM47.51,60.5v-13h4.61c-.42,6.12-2.35,10.92-4.61,13Zm0-17.7v-13c2.26,2.07,4.19,6.87,4.61,13ZM54.2,58.9a31.67,31.67,0,0,0,2.58-11.39H61.4A16.61,16.61,0,0,1,54.19,58.9Z"/>
    <path id="Path_624" data-name="Path 624" class="cls-4" d="M45.16,24V66.34a21.19,21.19,0,0,0,0-42.37ZM61.4,42.8H56.78a31.77,31.77,0,0,0-2.59-11.39A16.63,16.63,0,0,1,61.4,42.8ZM47.51,60.5v-13h4.61c-.42,6.12-2.35,10.92-4.61,13Zm0-17.7v-13c2.26,2.07,4.19,6.87,4.61,13Zm6.68,16.1a31.68,31.68,0,0,0,2.59-11.39H61.4A16.61,16.61,0,0,1,54.19,58.9Z"/>
  </g>
  <path id="Path_1006" data-name="Path 1006" class="cls-1" d="M44.59,23.88a21.2,21.2,0,1,0,21.2,21.2h0A21.24,21.24,0,0,0,44.59,23.88Z"/>
  <path id="Path_1008" data-name="Path 1008" class="cls-5" d="M53.53,44.91a5.76,5.76,0,0,1-4.28,9.63H47.32v1.93a1.86,1.86,0,0,1-1.79,1.93H45.4V50.69h3.85a1.93,1.93,0,1,0,0-3.86H45.4V43h3.85a1.93,1.93,0,0,0,0-3.86H45.4V31.42a1.85,1.85,0,0,1,1.92,1.79.33.33,0,0,1,0,.14v1.92h1.93a5.78,5.78,0,0,1,4.28,9.64Z"/>
  <path id="Path_1009" data-name="Path 1009" class="cls-3" d="M66.41,44.94A21.5,21.5,0,0,1,45,66.3V23.84A21.3,21.3,0,0,1,66.41,44.94Z"/>
  <path id="Path_1007" data-name="Path 1007" class="cls-5" d="M49.25,35.27H47.32V33.35a1.93,1.93,0,1,0-3.85,0h0v1.92H37.69a1.93,1.93,0,0,0,0,3.86h1.92V50.69H37.69a1.93,1.93,0,1,0,0,3.85h5.78v1.93a1.93,1.93,0,0,0,3.85,0V54.54h1.93a5.77,5.77,0,0,0,4.28-9.63,5.78,5.78,0,0,0-4.28-9.64Zm0,15.42H43.47V46.84h5.78a1.93,1.93,0,0,1,0,3.85Zm0-7.71H43.47V39.13h5.78a1.93,1.93,0,0,1,0,3.86Z"/>
</svg>
