<svg id="Слой_1" data-name="Слой 1" xmlns="http://www.w3.org/2000/svg" viewBox="0 0 35 35">
  <defs>
    <style>
      .cls-1 {
        fill: #ff7475;
      }
    </style>
  </defs>
  <title>Монтажн2ая область 1</title>
  <path id="shield" class="cls-1" d="M15.36,28.74A1.22,1.22,0,0,1,14.14,30h0A10.73,10.73,0,0,1,9.29,28.8a12.9,12.9,0,0,1-3.89-3,14.14,14.14,0,0,1-3.54-9.18V8A1.23,1.23,0,0,1,2.58,6.9L13.58,2a1.24,1.24,0,0,1,1,0L25.7,6.9A1.22,1.22,0,0,1,26.42,8v3.8a1.22,1.22,0,1,1-2.44,0v-3L14.09,4.42,4.3,8.81v7.78c0,5.72,4.69,10.93,9.84,10.93A1.22,1.22,0,0,1,15.36,28.74ZM31,20.07a2.12,2.12,0,0,0-1.75.91H15.53A2.14,2.14,0,1,0,15,24a2.26,2.26,0,0,0,.54-.53H29.25A2.14,2.14,0,1,0,31,20.07Zm-2.94-4.59h-7a2.14,2.14,0,0,0-3.51,2.45,2.12,2.12,0,0,0,3,.53,2.09,2.09,0,0,0,.54-.53h7.47a1.22,1.22,0,0,0,.86-.36l2.45-2.44a1.26,1.26,0,0,0,.35-.87V8.44a2.14,2.14,0,1,0-2.44-3.51,2.13,2.13,0,0,0-.53,3,2.09,2.09,0,0,0,.53.54v5.32Zm3,13.39h-.22l-2-2a1.23,1.23,0,0,0-.87-.36h-6.7a2.14,2.14,0,1,0-.08,3,2.19,2.19,0,0,0,.43-.57h5.84l1.55,1.55a2.14,2.14,0,1,0,2.6-1.55,2.33,2.33,0,0,0-.53-.06Z"/>
</svg>
