<svg id="bitcoin" xmlns="http://www.w3.org/2000/svg" viewBox="0 0 90 90">
  <defs>
    <style>
      .cls-1 {
        fill: #6c4365;
      }

      .cls-2 {
        fill: #98526b;
      }

      .cls-3 {
        fill: #b65c6f;
      }

      .cls-4 {
        fill: #fff;
      }

      .cls-5 {
        fill: #cb6372;
      }
    </style>
  </defs>
  <title>Монта2жная область 1</title>
  <path id="Path_538" data-name="Path 538" class="cls-1" d="M75.87,35.39a2.36,2.36,0,0,1-2.36,2.36H59.34A2.36,2.36,0,0,1,57,35.39h0V21.22a2.36,2.36,0,0,1,2.36-2.36h4.73A11.81,11.81,0,0,1,75.87,30.67Z"/>
  <path id="Path_539" data-name="Path 539" class="cls-1" d="M21.21,18.86H11.77a7.08,7.08,0,0,0-7.09,7.08V28.3a9.46,9.46,0,0,0,9.45,9.46h7.09a2.36,2.36,0,0,0,2.36-2.36h0V21.22a2.36,2.36,0,0,0-2.36-2.36Z"/>
  <path id="Path_540" data-name="Path 540" class="cls-2" d="M61.69,37.75H40.12a2.36,2.36,0,0,1-2.36-2.36h0V7a2.36,2.36,0,0,1,2.36-2.36H54.61a7.08,7.08,0,0,1,7.08,7.09Z"/>
  <path id="Path_541" data-name="Path 541" class="cls-3" d="M33,37.75H18.86v-26a7.08,7.08,0,0,1,7.08-7.09h4.73A2.36,2.36,0,0,1,33,7h0Z"/>
  <path id="Path_542" data-name="Path 542" class="cls-1" d="M28.31,4.68V37.75H42.48V4.68Z"/>
  <rect id="Rectangle_234" data-name="Rectangle 234" class="cls-1" x="40.16" y="4.71" width="2.42" height="33.06"/>
  <path id="Path_543" data-name="Path 543" class="cls-3" d="M80.6,44.85V73.51A11.83,11.83,0,0,1,68.78,85.32H16.49A11.81,11.81,0,0,1,4.68,73.51V26a5.47,5.47,0,0,0,.19,1.56,7,7,0,0,0,1.84,3.35,3.1,3.1,0,0,0,1,.9s0,.1.1,0a5.7,5.7,0,0,0,2.36,1,7.4,7.4,0,0,0,1.56.19h57A11.83,11.83,0,0,1,80.6,44.85Z"/>
  <g id="Group_923" data-name="Group 923">
    <path id="Path_544" data-name="Path 544" class="cls-3" d="M80.6,44.85V73.51A11.82,11.82,0,0,1,68.78,85.32H40.12V33H68.78A11.82,11.82,0,0,1,80.6,44.85Z"/>
    <path id="Path_545" data-name="Path 545" class="cls-4" d="M50.09,59a7.08,7.08,0,0,0-5.24-11.81H42.49V44.85a2.37,2.37,0,0,0-4.73,0v2.36H30.67a2.36,2.36,0,0,0,0,4.72H33V66.11H30.67a2.36,2.36,0,0,0,0,4.72h7.09v2.36a2.37,2.37,0,0,0,4.73,0h0V70.83h2.36A7.06,7.06,0,0,0,50.09,59Zm-5.24,7.09H37.76V61.39h7.09a2.36,2.36,0,0,1,0,4.72Zm0-9.45H37.76V51.93h7.09a2.37,2.37,0,0,1,0,4.73Z"/>
  </g>
  <g id="Group_924" data-name="Group 924">
    <path id="Path_546" data-name="Path 546" class="cls-4" d="M51.93,63.75a7.06,7.06,0,0,1-7.06,7.08H42.49v2.36a2.35,2.35,0,0,1-2.32,2.37h-.05V66.11h4.73a2.37,2.37,0,0,0,0-4.73H40.12V56.66h4.73a2.36,2.36,0,1,0,0-4.72H40.12V42.49a2.28,2.28,0,0,1,2.37,2.19v2.53h2.36A7.07,7.07,0,0,1,50.09,59,7,7,0,0,1,51.93,63.75Z"/>
    <path id="Path_547" data-name="Path 547" class="cls-2" d="M85.32,63.74a7.09,7.09,0,0,1-7.09,7.09H68.78a11.81,11.81,0,0,1,0-23.62h9.45a7.09,7.09,0,0,1,7.09,7.09Z"/>
  </g>
  <ellipse id="Ellipse_53" data-name="Ellipse 53" class="cls-5" cx="68.79" cy="58.74" rx="2.02" ry="2.42"/>
</svg>
