<svg xmlns="http://www.w3.org/2000/svg" viewBox="0 0 123 123"><defs><style>.cls-1 { fill: none; } .cls-2 { clip-path: url(#clip-path); } .cls-3 { fill: #efaa88; } .cls-4 { fill: #292c47; } .cls-5 { fill: #ff7475; } .cls-6 { fill: #5d1718; opacity: 0.3; isolation: isolate; } .cls-7 { fill: #282b45; } .cls-8 { fill: #cfbeb6; } .cls-9 { fill: #eea886; } .cls-10 { fill: #eddad3; } .cls-11 { fill: #3d4169; } .cls-12 { fill: #323657; } .cls-13 { fill: #1d2133; } .cls-14 { fill: #a77860; }</style><clipPath id="clip-path"><rect width="123" height="123" class="cls-1" rx="15"/></clipPath></defs><g class="cls-2"><g id="Mask_Group_48"><g id="Group_829"><g id="Group_666"><g id="Group_644"><g id="Group_643"><path id="Path_290" d="M76.42 71.86s-2.18.75-3.1-.2a7.33 7.33 0 0 0-2.86-1.4c-.65-.2-2.43-1.55-2.7-.73s2.84 2.36 3.42 2.8-2.64 1.17-3.12 1.76 1 5.85 3.13 5.1 4-2.93 4.36-3a12.6 12.6 0 0 0 1.6-.46z" class="cls-3"/></g></g><g id="Group_646"><g id="Group_645"><path id="Path_291" d="M68.52 73.8s-6.44 2.7-6.72 3.2-.12.88.5.65l6.3-2.42s-7.1 4.47-7.42 4.86c-.2.22.1.9.43.8s7.64-4.12 7.64-4.12-6.62 4.2-6.8 4.6a.53.53 0 0 0 .35.68.5.5 0 0 0 .42 0c.5-.27 6.87-3.8 6.87-3.8S65.46 81.58 65.5 82c0 .26.26.86 1.42 0s4.14-2.74 4.14-2.74z" class="cls-3"/></g></g><path id="Path_292" d="M105.44 40.6s-8.78 13.13-13.8 18c-1.57 1.5-17.28 12.17-17.87 12.78s1.54 5.85 1.54 5.85 20.1-11.6 21.27-12.34S112.3 47.46 113 45.14s.45-5-1.9-6.13c-3.3-1.52-5.66 1.57-5.66 1.57z" class="cls-4"/><g id="Group_648"><path id="Path_293" d="M68.5 65.16A26.68 26.68 0 1 0 53.77 99.9a26.67 26.67 0 0 0 14.7-34.74z" class="cls-5"/><path id="Path_294" d="M52.3 100.45l-20-49.36a26.68 26.68 0 0 0 20 49.35z" class="cls-5"/><path id="Path_295" d="M68.5 65.16a26.68 26.68 0 0 0-28.42-16.4l19.44 48a26.7 26.7 0 0 0 8.97-31.6z" class="cls-5"/><path id="Path_296" d="M60.68 64A20.27 20.27 0 1 0 55 92.1 20.28 20.28 0 0 0 60.68 64z" class="cls-5"/><path id="Path_298" d="M48 101.52A26.7 26.7 0 0 1 28.5 53.3z" class="cls-5"/><path id="Path_299" d="M59.52 96.72l-19.44-48a26.23 26.23 0 0 0-6.33 1.7c-.5.2-1 .42-1.46.64l20 49.36c.5-.16 1-.35 1.48-.55a26.82 26.82 0 0 0 5.74-3.15z" class="cls-5"/><path id="Union_10" d="M34.85 86.94L31 85.52l9.52-26.2 3.88 1.4 1.4-3.8 3 1.1-1.4 3.8 1.34.48.74.28 1.4-3.82 3 1.08-1.6 4.16a10.1 10.1 0 0 1 2.78 2.5 5.87 5.87 0 0 1 .77 5.83 7.14 7.14 0 0 1-2.12 3.12 6.88 6.88 0 0 1-3.32 1.47 9.45 9.45 0 0 1 2.53 3.76 6 6 0 0 1-.06 4q-1.46 4-4.92 4.85a11.8 11.8 0 0 1-5 .1l-1.2 3.27-3-1.08 1.13-3.08-2.02-.74-1.12 3.08-3-1.08zm8.6-8.78L40.27 77l-2.07 5.7 3.54 1.3a6.38 6.38 0 0 0 3.4.4 2.56 2.56 0 0 0 2-1.75q1-2.78-3.7-4.48zm3.7-10.78l-3-1.08-2.06 5.7 3.33 1.22a3.33 3.33 0 0 0 2.68 0 3.2 3.2 0 0 0 1.62-1.85A2.48 2.48 0 0 0 49.5 69a4.63 4.63 0 0 0-2.36-1.64z" class="cls-6"/></g><g id="Group_651"><path id="Path_302" d="M108.34 95.1c.6-6.1 20.9-19.32 21.9-13.55s-7.4 19-7.94 23.38-.08 5.46 3.2 9.2 17.1 31.37 17.1 31.37c-.4 2.1-7.66 2.75-7.85 2.3S115 121.5 114 120.5s-4.93-5.38-5.52-7.54a47.6 47.6 0 0 1-.62-11.62s.4-5.74.48-6.24z" class="cls-7"/></g><g id="Group_654"><path id="Path_305" d="M102.4 79s-23.5 17.8-26.14 21.43.32 9.06.7 10.83 16.87 33.4 17.04 36.46c0 0 7.2 1 9.06-1.35 0 0-10.46-30.48-12.14-36.2s5.82-6.6 10.44-8.65 24.94-14 26.13-18.48a13.46 13.46 0 0 0 0-7.18s-5.66-3.68-25.1 3.14z" class="cls-7"/></g><g id="Group_655"><path id="Path_306" d="M100.48 35.5s-1.76 7.78-1.33 12.06 4.83 15.17 5.16 17.56-1.9 14.1-1.9 14.1l26.44 4a147 147 0 0 0-1-15c-1-8.13-4-14.56-5.1-19.15-3.66-15.67-17-17.85-17-17.85z" class="cls-8"/></g><g id="Group_656"><path id="Path_307" d="M87.7 18.12s-1.7 4.17-.6 4.67c.93.4-.56 4.48-.74 5.14s1.7.93 2.12 1.3 2.1 5.26 3.63 5.25 8.07-3.1 9.7-5.2 2.26-10.95.64-14.48-11.7-4-14.75 3.3z" class="cls-9"/></g><g id="Group_657"><path id="Path_308" d="M96.52 32.93s.23.4.56 1l.47.85.4.75a25.63 25.63 0 0 1 2.1 4.66c.4 1.9 4.76-8.8 4.76-8.8a93.2 93.2 0 0 1-5.63-12.07c-2.5-6.62-2.65 13.6-2.65 13.6z" class="cls-9"/></g><g id="Group_658"><path id="Path_309" d="M87.36 19a6.1 6.1 0 0 1 1-7.6c3.62-3.6 11.48 1.2 12.33 1.32s5.44-.06 4 8.38c-1.24 7.33-1.62 7.1-1.62 7.1s-1.86-3.45-2.78-4c-1.4-.8-4.3-.2-4.3-.2s1-3.85-1.23-4.14-5.3-1.86-7.4-.86z" class="cls-7"/></g><g id="Group_659"><path id="Path_310" d="M98.1 21.6c.13-.54.52-2.8 2.53-1.7s-.6 5.5-.92 5.6-2.77.5-1.6-3.9z" class="cls-9"/></g><g id="Group_660"><path id="Path_311" d="M104.32 30.5s-2.73 6.38-5.07 8.55l1.1 3.8 5.34-11.6z" class="cls-10"/></g><path id="Path_312" d="M102.4 79.1l.46-2.46 25.92 3.8.07 2.66z" class="cls-11"/><g id="Group_661"><path id="Path_313" d="M101.2 50.47c.66 1.37 1.3 2.76 1.9 4.16 1.33 3.08 2.52 6.2 3.56 9.26.38 1.08.73 2.17 1.07 3.24a64.74 64.74 0 0 0 12 21.58s10.37-1.94 12.62-3.92a189.58 189.58 0 0 0-7.1-29c-.4-1.1-.78-2.17-1.2-3.24-3.6-13.85-10.35-21.28-18.37-21.28-.12.16-8 12-4.5 19.2z" class="cls-12"/></g><path id="Path_315" d="M113.8 45.23c3.52 3.08 11.45 10.47 11.45 10.47-.38-1.1-.77-2.17-1.18-3.24-2.75-2.24-10.15-7.15-10.26-7.23z" class="cls-13"/><path id="Path_316" d="M96.52 32.93s.23.4.56 1l.47.85c3.34-3.07 4-5.1 4-5.17a36.67 36.67 0 0 1-5.03 3.33z" class="cls-14"/><g id="Group_663"><g id="Group_662"><path id="Path_317" d="M99.2 42.7s2.36 9.24 10.5 9c7.3-.18 18.18 2.35 21.87 4.78l4.6 3.23-1.52-4.7s-3.85-7.4-25-4.2c0 0-6.37 1.9-9.68-9.18.03-.03-.97.64-.78 1.1z" class="cls-5"/></g></g><path id="Path_318" d="M99.3 39.22a12.94 12.94 0 0 0-.1 3.57c.1.35 1.1-.23 1.1-.23z" class="cls-5"/><g id="Group_664"><path id="Path_319" d="M68.77 67.2a2 2 0 0 1-1.15.44c-1 0-2.15-1.16-3.24-.18s1.06 5.3 1.85 5.83 2.65-.35 4.67-2.68-2.13-3.4-2.13-3.4z" class="cls-9"/></g><g id="Group_665"><path id="Path_320" d="M64.8 67.18a41.6 41.6 0 0 0-4.3 1.68c-1.95.9-4.25 2.28-4 2.77.33.75 2.08-.6 4.07-1.36 1.83-.7 1.6-.24 1.6-.24s.05-.14-1.8 1-4.07 2.65-3.9 3.06.28.54 1.08.2c-.42.3-.4.45-.3.64.55 1 3.75-.4 5-.93-1 .43-1.63.84-.92 1.22s5.26-1.7 6.93-2.3-3.47-5.74-3.47-5.74z" class="cls-9"/></g><path id="Path_321" d="M103.9 35.8s-10.25 13.9-16 18.94c-1.8 1.58-19.78 11.4-20.46 12s1.67 7.5 1.67 7.5S91.67 62.63 93 61.9 112.2 41 113.08 38.46s-.38-2.78-2.9-4.08c-3.52-1.83-6.28 1.42-6.28 1.42z" class="cls-12"/></g></g></g></g></svg>