<svg id="bitcoin" xmlns="http://www.w3.org/2000/svg" viewBox="0 0 90 90">
  <defs>
    <style>
      .cls-1 {
        fill: #6c4365;
      }

      .cls-2 {
        fill: #cb6372;
      }

      .cls-3 {
        fill: #b65c6f;
      }

      .cls-4 {
        fill: #fff;
      }
    </style>
  </defs>
  <path id="Path_557" data-name="Path 557" class="cls-1" d="M77.09,14.14C64.16,14.14,53,9.65,46.63,4.33a2.59,2.59,0,0,0-3.26,0c-6.27,5.32-17.48,9.81-30.46,9.81a2.43,2.43,0,0,0-2.47,2.37V47.34c0,19.09,12,32.87,33.92,38.81a2.76,2.76,0,0,0,.64.1h0a2.35,2.35,0,0,0,.59-.1c21.87-5.94,33.92-19.72,33.92-38.82V16.56a2.43,2.43,0,0,0-2.42-2.42Z"/>
  <path id="Path_558" data-name="Path 558" class="cls-1" d="M67.61,23.38a62.57,62.57,0,0,1-21.37-7.25,2.48,2.48,0,0,0-2.47,0,62.69,62.69,0,0,1-21.38,7.25,2.36,2.36,0,0,0-2.08,2.35V47.34c0,13.58,8.25,23.41,23.9,28.44a3.25,3.25,0,0,0,1.58,0c15.65-5,23.9-14.86,23.9-28.44V25.73A2.35,2.35,0,0,0,67.61,23.38Z"/>
  <path id="Path_559" data-name="Path 559" class="cls-2" d="M79.56,16.56V47.34c0,19.09-12,32.87-33.92,38.81a2.35,2.35,0,0,1-.59.1h0V3.75a2.5,2.5,0,0,1,1.63.58C53,9.65,64.15,14.14,77.09,14.14a2.43,2.43,0,0,1,2.47,2.37Z"/>
  <path id="Path_560" data-name="Path 560" class="cls-3" d="M69.69,25.73V47.34c0,13.58-8.25,23.41-23.9,28.44a2,2,0,0,1-.79.1V15.8a2.66,2.66,0,0,1,1.23.33,62.62,62.62,0,0,0,21.38,7.25A2.36,2.36,0,0,1,69.69,25.73Z"/>
  <path id="Path_561" data-name="Path 561" class="cls-4" d="M49.94,33H47.47V30.51a2.47,2.47,0,0,0-4.94,0V33h-7.4a2.47,2.47,0,0,0,0,4.94H37.6V52.72H35.13c-3.26,0-3.26,4.94,0,4.94h7.4v2.47a2.47,2.47,0,0,0,4.94.1V57.66h2.47a7.39,7.39,0,0,0,5.48-12.34A7.4,7.4,0,0,0,49.94,33Zm0,19.75H42.53V47.79h7.41A2.47,2.47,0,0,1,49.94,52.72Zm0-9.87H42.53V37.91h7.41C53.2,37.91,53.2,42.85,49.94,42.85Z"/>
  <path id="Path_562" data-name="Path 562" class="cls-4" d="M55.42,45.32a7.39,7.39,0,0,1-5.48,12.34H47.47v2.47a2.39,2.39,0,0,1-2.29,2.47H45V52.72h4.94c3.25,0,3.25-4.93,0-4.93H45V42.85h4.94c3.25,0,3.25-4.94,0-4.94H45V28a2.38,2.38,0,0,1,2.47,2.29V33h2.47a7.39,7.39,0,0,1,5.48,12.34Z"/>
</svg>
