<svg id="bitcoin" xmlns="http://www.w3.org/2000/svg" viewBox="0 0 90 90">
  <defs>
    <style>
      .cls-1 {
        fill: #6c4365;
      }

      .cls-2 {
        fill: #b65c6f;
      }

      .cls-3 {
        fill: #fff;
      }
    </style>
  </defs>
  <path id="Path_573" data-name="Path 573" class="cls-1" d="M47.49,55V85.6a2.54,2.54,0,1,1-5.08,0h0V55a2.54,2.54,0,1,1,5.08,0Z"/>
  <path id="Path_574" data-name="Path 574" class="cls-2" d="M47.49,55V85.6A2.51,2.51,0,0,1,45,88.14h0V52.48A2.51,2.51,0,0,1,47.49,55Z"/>
  <path id="Path_575" data-name="Path 575" class="cls-1" d="M81.14,58.92A33.13,33.13,0,0,1,48.3,88.34c-1.06,0-2.18-.1-3.3-.2h0c-1.12.1-2.18.2-3.25.2A33.13,33.13,0,0,1,8.86,58.92,2.45,2.45,0,0,1,11,56.23h.13a32.34,32.34,0,0,1,24.24,7A32.77,32.77,0,0,1,45,75.59s0,0,0,.1A32.88,32.88,0,0,1,78.9,56.22a2.42,2.42,0,0,1,2.24,2.6Z"/>
  <path id="Path_576" data-name="Path 576" class="cls-2" d="M81.14,58.92A33.13,33.13,0,0,1,48.3,88.34c-1.06,0-2.18-.1-3.3-.2h0V75.59s0,0,0,.1A32.89,32.89,0,0,1,78.9,56.22a2.43,2.43,0,0,1,2.24,2.6Z"/>
  <path id="Path_577" data-name="Path 577" class="cls-1" d="M45,1.66a28,28,0,1,0,28,28A27.95,27.95,0,0,0,45,1.66Z"/>
  <path id="Path_578" data-name="Path 578" class="cls-2" d="M45,57.56V1.66a28,28,0,1,1,0,55.9Z"/>
  <path id="Path_579" data-name="Path 579" class="cls-3" d="M50,16.68H47.49V14.14a2.54,2.54,0,0,0-5.08,0v2.54H34.79c-3.36,0-3.36,5.08,0,5.08h2.54V37H34.79c-3.36,0-3.36,5.08,0,5.08h7.62v2.55a2.54,2.54,0,1,0,5.08,0V42.09H50a7.6,7.6,0,0,0,5.64-12.7A7.61,7.61,0,0,0,50,16.68ZM50,37H42.41V31.93H50C53.39,31.93,53.39,37,50,37Zm0-10.16H42.41V21.77H50C53.39,21.77,53.39,26.85,50,26.85Z"/>
  <path id="Path_580" data-name="Path 580" class="cls-3" d="M55.67,29.39A7.6,7.6,0,0,1,50,42.09H47.49v2.55a2.45,2.45,0,0,1-2.36,2.54H45V37H50c3.35,0,3.35-5.08,0-5.08H45V26.85H50c3.36,0,3.36-5.09,0-5.09H45V11.6A2.45,2.45,0,0,1,47.49,14v2.72H50a7.61,7.61,0,0,1,5.64,12.71Z"/>
</svg>
