<svg id="Слой_1" data-name="Слой 1" xmlns="http://www.w3.org/2000/svg" viewBox="0 0 35 35">
  <defs>
    <style>
      .cls-1 {
        fill: #ff7475;
      }
    </style>
  </defs>
  <title>Монтажная область 1</title>
  <path id="network" class="cls-1" d="M18.54,16.9v12a2.14,2.14,0,1,1-3,.54,2.47,2.47,0,0,1,.53-.54v-12a2.14,2.14,0,1,1,3-.53A1.91,1.91,0,0,1,18.54,16.9Zm-6.66-.78A2.14,2.14,0,0,0,10.66,20v7.09L9.14,28.63a2.14,2.14,0,1,0,1.18,2.78,2.44,2.44,0,0,0,.15-.66l2.27-2.27a1.22,1.22,0,0,0,.36-.86V20a2.14,2.14,0,0,0-1.22-3.9ZM26.12,28.47a2,2,0,0,0-.43,0L24.16,27V21.79a2.14,2.14,0,1,0-3-.53,2.22,2.22,0,0,0,.53.53v5.7a1.22,1.22,0,0,0,.36.86L24,30.28a2.14,2.14,0,1,0,2.44-1.79l-.33,0Zm4-17.07v-.81a8.33,8.33,0,0,0-16-3.16,5.45,5.45,0,0,0-7.92,4.85v1.11a5.46,5.46,0,0,0-2.72,9.14,5.31,5.31,0,0,0,3.82,1.6,1.23,1.23,0,1,0,0-2.45A2.93,2.93,0,0,1,4.3,18.75v-.06a3,3,0,0,1,3.05-3h0a1.22,1.22,0,0,0,1.22-1.22h0v-2.2a3,3,0,0,1,5.24-2,1.22,1.22,0,0,0,1.72.1,1.14,1.14,0,0,0,.4-.72,5.89,5.89,0,0,1,11.7.91v1.5a1.21,1.21,0,0,0,.65,1.07,4.53,4.53,0,0,1-1.1,8.41A1.22,1.22,0,1,0,27.74,24,7,7,0,0,0,30.09,11.4Z"/>
</svg>
