<svg id="bitcoin" xmlns="http://www.w3.org/2000/svg" viewBox="0 0 90 90">
  <defs>
    <style>
      .cls-1 {
        fill: #b65c6f;
      }

      .cls-2 {
        fill: #cb6372;
      }

      .cls-3 {
        fill: #6c4365;
      }

      .cls-4 {
        fill: #98526b;
      }

      .cls-5 {
        fill: #fff;
      }
    </style>
  </defs>
  <path id="Path_581" data-name="Path 581" class="cls-1" d="M46,75.13a22.85,22.85,0,0,1-5.08-5.83,2.51,2.51,0,0,0-3-1.06A41.45,41.45,0,0,1,25,70.1c-11.43,0-18-3.58-18-5A2.49,2.49,0,0,0,4.6,62.54h0A2.49,2.49,0,0,0,2,65V75.13C2,81.73,13.75,85.2,25,85.2c10.17,0,18.58-2.62,21.5-6.65A2.52,2.52,0,0,0,46,75.13Z"/>
  <path id="Path_582" data-name="Path 582" class="cls-2" d="M46,75.13a2.52,2.52,0,0,1,.5,3.42C43.6,82.58,35.2,85.2,25,85.2V70.1A41.36,41.36,0,0,0,38,68.24a2.52,2.52,0,0,1,3,1.05A22.76,22.76,0,0,0,46,75.13Z"/>
  <path id="Path_583" data-name="Path 583" class="cls-3" d="M40.94,69.29a23.48,23.48,0,0,1-3.07-8.2A2.5,2.5,0,0,0,35,59l-.17,0A47,47,0,0,1,25,60c-11.43,0-18-3.58-18-5,0-3.32-5-3.32-5,0V65.06c0,6.6,11.71,10.07,23,10.07A45.19,45.19,0,0,0,39.58,73a2.54,2.54,0,0,0,1.56-3.23A2.28,2.28,0,0,0,40.94,69.29Z"/>
  <path id="Path_584" data-name="Path 584" class="cls-3" d="M40.94,69.29A2.54,2.54,0,0,1,40,72.76a3.1,3.1,0,0,1-.45.21A45.15,45.15,0,0,1,25,75.13V60a47.64,47.64,0,0,0,9.82-1,2.49,2.49,0,0,1,3,1.88,1.16,1.16,0,0,1,0,.18A23.48,23.48,0,0,0,40.94,69.29Z"/>
  <path id="Path_585" data-name="Path 585" class="cls-1" d="M35.25,48.8A43.42,43.42,0,0,1,25,50c-11.43,0-18-3.58-18-5,0-3.32-5-3.32-5,0V55c0,6.6,11.71,10.07,23,10.07A54.1,54.1,0,0,0,36,64a2.54,2.54,0,0,0,1.92-2.87,22.46,22.46,0,0,1,.45-9.16,2.55,2.55,0,0,0-1.83-3.11A2.6,2.6,0,0,0,35.25,48.8Z"/>
  <path id="Path_586" data-name="Path 586" class="cls-2" d="M36,64A54.82,54.82,0,0,1,25,65.06V50A43.42,43.42,0,0,0,35.25,48.8a2.55,2.55,0,0,1,3.08,1.88,2.52,2.52,0,0,1,0,1.25,22.46,22.46,0,0,0-.45,9.16A2.56,2.56,0,0,1,36,64Z"/>
  <path id="Path_587" data-name="Path 587" class="cls-3" d="M42.65,34.85c0,1.47-6.19,5-17.62,5s-18-3.57-18-5c0-3.32-5-3.32-5,0V44.92C2,51.52,13.75,55,25,55a46.67,46.67,0,0,0,11.23-1.26,2.46,2.46,0,0,0,2.11-1.86,22.49,22.49,0,0,1,8.31-12.49,2.45,2.45,0,0,0,1-2V34.85C47.69,31.53,42.65,31.53,42.65,34.85Z"/>
  <path id="Path_588" data-name="Path 588" class="cls-3" d="M47.68,34.85v2.52a2.47,2.47,0,0,1-1,2,22.43,22.43,0,0,0-8.31,12.48,2.46,2.46,0,0,1-2.11,1.86A46.67,46.67,0,0,1,25,55V39.89c11.43,0,17.62-3.57,17.62-5C42.65,31.53,47.68,31.53,47.68,34.85Z"/>
  <path id="Path_589" data-name="Path 589" class="cls-1" d="M42.65,24.79c0,1.46-6.19,5-17.62,5s-18-3.57-18-5a2.52,2.52,0,0,0-5,0V34.85c0,6.6,11.71,10.07,23,10.07s22.65-3.47,22.65-10.07V24.79C47.69,21.46,42.65,21.46,42.65,24.79Z"/>
  <path id="Path_590" data-name="Path 590" class="cls-2" d="M47.68,24.79V34.86c0,6.6-11.37,10.06-22.65,10.06V29.82c11.43,0,17.62-3.57,17.62-5A2.52,2.52,0,0,1,47.68,24.79Z"/>
  <path id="Path_591" data-name="Path 591" class="cls-3" d="M42.65,14.72c0,1.46-6.19,5-17.62,5s-18-3.57-18-5a2.52,2.52,0,0,0-5,0V24.79c0,6.6,11.71,10.07,23,10.07s22.65-3.48,22.65-10.07V14.72C47.69,11.4,42.65,11.4,42.65,14.72Z"/>
  <path id="Path_592" data-name="Path 592" class="cls-3" d="M47.68,14.72V24.79c0,6.6-11.37,10.07-22.65,10.07V19.76c11.43,0,17.62-3.58,17.62-5C42.65,11.4,47.68,11.4,47.68,14.72Z"/>
  <path id="Path_593" data-name="Path 593" class="cls-3" d="M25,4.8C13.7,4.8,2,8.07,2,14.72S13.75,24.79,25,24.79s22.65-3.48,22.65-10.07S36.36,4.8,25,4.8Z"/>
  <path id="Path_594" data-name="Path 594" class="cls-1" d="M25,24.79V4.8c11.33,0,22.65,3.27,22.65,9.92S36.31,24.79,25,24.79Z"/>
  <path id="Path_595" data-name="Path 595" class="cls-4" d="M60.27,29.82A27.69,27.69,0,1,0,88,57.51,27.69,27.69,0,0,0,60.27,29.82Z"/>
  <path id="Path_596" data-name="Path 596" class="cls-2" d="M88,57.51A27.74,27.74,0,0,1,60.27,85.2V29.82A27.74,27.74,0,0,1,88,57.51Z"/>
  <path id="Path_597" data-name="Path 597" class="cls-5" d="M65.31,47.69H62.79V45.17a2.52,2.52,0,1,0-5,0v2.52H50.2c-3.32,0-3.32,5,0,5h2.52v15.1H50.2c-3.32,0-3.32,5,0,5h7.55v2.51a2.52,2.52,0,1,0,5,0V72.86h2.52a7.54,7.54,0,0,0,5.58-12.59,7.53,7.53,0,0,0-5.58-12.58Zm0,20.13H57.75v-5h7.56C68.63,62.79,68.63,67.82,65.31,67.82Zm0-10.07H57.75v-5h7.56c3.32,0,3.32,5,0,5Z"/>
  <path id="Path_598" data-name="Path 598" class="cls-5" d="M70.89,60.27a7.54,7.54,0,0,1-5.58,12.59H62.79v2.51a2.43,2.43,0,0,1-2.34,2.52h-.18V67.82h5c3.32,0,3.32-5,0-5h-5v-5h5c3.32,0,3.32-5,0-5h-5V42.65A2.43,2.43,0,0,1,62.79,45v2.69h2.52a7.53,7.53,0,0,1,5.58,12.59Z"/>
</svg>
