<svg xmlns="http://www.w3.org/2000/svg" width="608.845" height="312.553" viewBox="0 0 608.845 312.553">
  <g id="Group_1081" data-name="Group 1081" transform="translate(-291 -2758)">
    <path id="Union_13" data-name="Union 13" d="M140,297.552l-.362-.215c3.193-5.035,6.458-10.066,9.722-15.171l2.138-3.322,1.306-2.034c11.825-18.384,23.979-37.234,36.274-55.975,28-43.3,55.826-85.678,78.424-119.664,1.09-1.568,2.106-3.1,3.121-4.6s2.067-3.068,3.082-4.6c3.63-5.427,7.257-10.712,10.447-15.457,15.889-23.242,27.534-39.271,32.284-44.267l2.213-2.178A109.381,109.381,0,0,1,432.907,7.152c39.356,14.962,66.266,51.09,68.925,92.527,59.218.573,107.031,48,107.012,106.412.023,58.243-47.576,105.662-106.755,106.346h-111.4l65.836-100.242h25.9a39.167,39.167,0,0,0,38.086,29.915,39.173,39.173,0,0,0,34.792-18.85,37.882,37.882,0,0,0,0-39.088,41,41,0,0,0-47.485-16.742,38.773,38.773,0,0,0-25.393,27.807H447.024l-11.136,16.958L370.2,312.472H247.261L375.6,119.127l.761-.247A38.734,38.734,0,0,0,426.91,90.025a38.329,38.329,0,0,0-23.463-43.046A39.416,39.416,0,0,0,356,61.334a38,38,0,0,0,5.161,48.585l-6.529,9.851L226.693,312.543H200.178c-.522.007-1.047.01-1.568.01A121.806,121.806,0,0,1,140,297.552ZM83.122,107.1c38.752-58.616,118.423-75.265,178.033-37.2l-14.7,22.265.188.12-8.527,12.566-.024-.015L144.005,247.383l.019.013-8.341,12.636-.019-.012-14.783,22.4C61.265,244.263,44.361,165.772,83.122,107.1Zm415.666,96.672a21.767,21.767,0,1,1,21.766,21.417A21.6,21.6,0,0,1,498.789,203.771ZM375.89,118.88h.473l-.761.247ZM33.137,112.31,22.507,93.177a3.6,3.6,0,0,0-1.342-1.285L1.72,81.4a3.261,3.261,0,0,1,0-5.748L21.165,65.186a3.908,3.908,0,0,0,1.342-1.32l10.63-19.133a3.359,3.359,0,0,1,5.837,0L49.64,63.866a3.572,3.572,0,0,0,1.306,1.32L70.39,75.647a3.261,3.261,0,0,1,0,5.748l-19.444,10.5a3.2,3.2,0,0,0-1.306,1.285L38.974,112.31a3.362,3.362,0,0,1-5.837,0ZM366.712,82.822a21.768,21.768,0,1,1,21.766,21.42A21.593,21.593,0,0,1,366.712,82.822ZM103.145,51.8,97.3,41.09a1.729,1.729,0,0,0-.725-.713L85.914,34.738a1.774,1.774,0,0,1,0-3.142l10.666-5.748a1.625,1.625,0,0,0,.725-.858L103.145,14.5a1.864,1.864,0,0,1,3.229,0l5.841,10.493a2.067,2.067,0,0,0,.725.752L123.6,31.49a1.771,1.771,0,0,1,0,3.139l-10.666,5.748a2.309,2.309,0,0,0-.725.713L106.373,51.8a1.864,1.864,0,0,1-3.229,0Z" transform="translate(291 2758)" fill="#2c2e5f"/>
  </g>
</svg>
