<svg id="bitcoin" xmlns="http://www.w3.org/2000/svg" viewBox="0 0 90 90">
  <defs>
    <style>
      .cls-1 {
        fill: #6c4365;
      }

      .cls-2 {
        fill: #cb6372;
      }

      .cls-3 {
        fill: #fff;
      }

      .cls-4 {
        fill: #b65c6f;
      }
    </style>
  </defs>
  <path id="Path_563" data-name="Path 563" class="cls-1" d="M45.17,16.3C29.46,16.3,16.3,29.11,16.3,44.83A29.16,29.16,0,0,0,45.17,73.7c15.72,0,28.53-13.15,28.53-28.87A28.58,28.58,0,0,0,45.17,16.3Z"/>
  <path id="Path_564" data-name="Path 564" class="cls-2" d="M73.7,44.83c0,15.71-12.81,28.87-28.53,28.87V16.3A28.58,28.58,0,0,1,73.7,44.83Z"/>
  <g id="Group_925" data-name="Group 925">
    <path id="Path_565" data-name="Path 565" class="cls-1" d="M89.26,44.83a45.19,45.19,0,0,1-7,24.15c-1.82,2.9-6.23.1-4.36-2.8a39.84,39.84,0,0,0,6.17-21.35,38.92,38.92,0,0,0-38.9-38.9,39.57,39.57,0,0,0-26.9,10.48c-2.49,2.33-6.07-1.46-3.53-3.79A44.69,44.69,0,0,1,45.17.74,44.13,44.13,0,0,1,89.26,44.83Z"/>
    <path id="Path_566" data-name="Path 566" class="cls-1" d="M75.25,77.38A43.8,43.8,0,0,1,45.17,89.26,44.71,44.71,0,0,1,.74,44.83,44.17,44.17,0,0,1,7.74,21c1.82-2.9,6.18-.05,4.36,2.8a38.62,38.62,0,0,0-6.17,21A39.5,39.5,0,0,0,45.17,84.07,38.75,38.75,0,0,0,71.73,73.59a2.59,2.59,0,0,1,3.52,3.79Z"/>
  </g>
  <path id="Path_567" data-name="Path 567" class="cls-1" d="M13.71,26.68a7.78,7.78,0,1,1,7.78-7.78h0A7.8,7.8,0,0,1,13.71,26.68Z"/>
  <path id="Path_568" data-name="Path 568" class="cls-3" d="M50.36,31.86H47.77V29.27a2.6,2.6,0,0,0-5.19,0v2.59H34.8c-3.42,0-3.42,5.19,0,5.19h2.59V52.61H34.8c-3.42,0-3.42,5.18,0,5.18h7.78v2.6a2.6,2.6,0,0,0,5.19,0v-2.6h2.59a7.76,7.76,0,0,0,5.76-13,7.77,7.77,0,0,0-5.76-13Zm0,20.75H42.58V47.42h7.78c3.42,0,3.42,5.19,0,5.19Zm0-10.38H42.58V37.05h7.78c3.42,0,3.42,5.18,0,5.18Z"/>
  <g id="Group_926" data-name="Group 926">
    <path id="Path_569" data-name="Path 569" class="cls-4" d="M75.25,77.38A43.8,43.8,0,0,1,45.17,89.26V84.07A38.81,38.81,0,0,0,71.73,73.6a2.58,2.58,0,0,1,3.52,3.78Z"/>
    <path id="Path_570" data-name="Path 570" class="cls-4" d="M89.26,44.83a45.19,45.19,0,0,1-7,24.15c-1.82,2.9-6.23.1-4.36-2.8a39.84,39.84,0,0,0,6.17-21.35,38.91,38.91,0,0,0-38.9-38.9V.74A44.13,44.13,0,0,1,89.26,44.83Z"/>
  </g>
  <path id="Path_571" data-name="Path 571" class="cls-3" d="M56.12,44.83a7.77,7.77,0,0,1-5.76,13H47.77v2.6A2.5,2.5,0,0,1,45.36,63h-.19V52.61h5.19c3.42,0,3.42-5.19,0-5.19H45.17V42.24h5.19c3.42,0,3.42-5.19,0-5.19H45.17V26.68a2.5,2.5,0,0,1,2.6,2.4v2.78h2.59a7.77,7.77,0,0,1,5.76,13Z"/>
  <path id="Path_572" data-name="Path 572" class="cls-2" d="M76.29,78.88a7.78,7.78,0,1,1,7.78-7.78h0A7.77,7.77,0,0,1,76.29,78.88Z"/>
</svg>
