<svg xmlns="http://www.w3.org/2000/svg" xmlns:xlink="http://www.w3.org/1999/xlink" width="348.5" height="318.765" viewBox="0 0 348.5 318.765">
  <defs>
    <filter id="Path_1129" x="0" y="22" width="270" height="210" filterUnits="userSpaceOnUse">
      <feOffset dy="61" input="SourceAlpha"/>
      <feGaussianBlur stdDeviation="15" result="blur"/>
      <feFlood flood-color="#000e44" flood-opacity="0.161"/>
      <feComposite operator="in" in2="blur"/>
      <feComposite in="SourceGraphic"/>
    </filter>
    <filter id="Rectangle_300" x="117.5" y="163.765" width="231" height="155" filterUnits="userSpaceOnUse">
      <feOffset dy="23" input="SourceAlpha"/>
      <feGaussianBlur stdDeviation="8.5" result="blur-2"/>
      <feFlood flood-color="#000e44" flood-opacity="0.161"/>
      <feComposite operator="in" in2="blur-2"/>
      <feComposite in="SourceGraphic"/>
    </filter>
  </defs>
  <g id="Group_2269" data-name="Group 2269" transform="translate(-743 -1895.235)">
    <g id="Group_1203" data-name="Group 1203" transform="translate(788 1895.235)">
      <g transform="matrix(1, 0, 0, 1, -45, 0)" filter="url(#Path_1129)">
        <path id="Path_1129-2" data-name="Path 1129" d="M0,0H152a28,28,0,0,1,28,28V76a28,28,0,0,1-28,28H28A28,28,0,0,1,0,76Z" transform="translate(45 22)" fill="#2e3061"/>
      </g>
      <g id="Group_1202" data-name="Group 1202" transform="translate(27.19 63.467)">
        <path id="Path_1125" data-name="Path 1125" d="M3142.521-6709.533h86.933" transform="translate(-3142.521 6709.533)" fill="none" stroke="#6c4365" stroke-linecap="round" stroke-width="8"/>
        <path id="Path_1126" data-name="Path 1126" d="M3142.521-6709.533h46.241" transform="translate(-3142.521 6728.533)" fill="none" stroke="#6c4365" stroke-linecap="round" stroke-width="8"/>
        <path id="Path_1127" data-name="Path 1127" d="M3142.521-6709.533h86.933" transform="translate(-3142.521 6747.533)" fill="none" stroke="#6c4365" stroke-linecap="round" stroke-width="8"/>
      </g>
      <ellipse id="Ellipse_82" data-name="Ellipse 82" cx="24" cy="24.5" rx="24" ry="24.5" transform="translate(23)" fill="#6c4365"/>
    </g>
    <g id="Group_1204" data-name="Group 1204" transform="translate(886 2039.5)">
      <g transform="matrix(1, 0, 0, 1, -143, -144.26)" filter="url(#Rectangle_300)">
        <path id="Rectangle_300-2" data-name="Rectangle 300" d="M0,0H152a28,28,0,0,1,28,28V76a28,28,0,0,1-28,28H28A28,28,0,0,1,0,76V0A0,0,0,0,1,0,0Z" transform="translate(143 166.26)" fill="#2e3061"/>
      </g>
      <path id="Path_1125-2" data-name="Path 1125" d="M3142.521-6709.533h86.933" transform="translate(-3096.021 6773)" fill="none" stroke="#6c4365" stroke-linecap="round" stroke-width="8"/>
      <path id="Path_1126-2" data-name="Path 1126" d="M3142.521-6709.533h46.241" transform="translate(-3076.021 6792)" fill="none" stroke="#6c4365" stroke-linecap="round" stroke-width="8"/>
      <path id="Path_1127-2" data-name="Path 1127" d="M3142.521-6709.533h86.933" transform="translate(-3096.021 6811)" fill="none" stroke="#6c4365" stroke-linecap="round" stroke-width="8"/>
      <ellipse id="Ellipse_82-2" data-name="Ellipse 82" cx="24" cy="24.5" rx="24" ry="24.5" transform="translate(66)" fill="#6c4365"/>
    </g>
  </g>
</svg>
