<svg id="Слой_1" data-name="Слой 1" xmlns="http://www.w3.org/2000/svg" viewBox="0 0 35 35">
  <defs>
    <style>
      .cls-1 {
        fill: #ff7475;
      }
    </style>
  </defs>
  <title>Монтажная область 1</title>
  <path id="server" class="cls-1" d="M24.83,18.87v-.34H29a2.13,2.13,0,0,0,1.71.81,2,2,0,0,0,2.09-1.9,2,2,0,0,0-2.09-1.9,2.13,2.13,0,0,0-1.71.81H24.83V16a3.08,3.08,0,0,0-.91-2.16,2.09,2.09,0,0,0,.2-.22h4.16a1.27,1.27,0,0,0,.85-.32l2.38-2.17a1,1,0,0,0,.35-.76V7.08a1.87,1.87,0,0,0,.9-1.55,2.1,2.1,0,0,0-4.18,0,1.85,1.85,0,0,0,.9,1.55V10l-1.69,1.53h-3V8.87a3.43,3.43,0,0,0-3.58-3.24H5.82A3.44,3.44,0,0,0,2.24,8.87v2.85a3.1,3.1,0,0,0,.91,2.15A3.1,3.1,0,0,0,2.24,16v2.84A3.09,3.09,0,0,0,3.16,21a3.09,3.09,0,0,0-.92,2.16V26a3.44,3.44,0,0,0,3.58,3.25H15.3a1.09,1.09,0,0,0,.2-2.17H5.82A1.13,1.13,0,0,1,4.63,26V23.19a1.13,1.13,0,0,1,1.19-1.08h5v2.54a1.19,1.19,0,0,0,2.38,0V22.11h8.05a1.14,1.14,0,0,1,1.19,1.08V26a1.15,1.15,0,0,1-1.2,1.08A1.09,1.09,0,0,0,21,29.26h.21A3.43,3.43,0,0,0,24.83,26V23.4h3l1.69,1.53v3a1.86,1.86,0,0,0-1,1.59,2.1,2.1,0,0,0,4.17,0A1.84,1.84,0,0,0,31.92,28V24.49a1,1,0,0,0-.35-.77l-2.38-2.17a1.28,1.28,0,0,0-.85-.32H24.11l-.19-.2a3.08,3.08,0,0,0,.91-2.16Zm-20.2-10A1.14,1.14,0,0,1,5.82,7.8h5v2.49a1.19,1.19,0,0,0,2.38,0V7.8h8.05a1.14,1.14,0,0,1,1.19,1.07v2.85a1.15,1.15,0,0,1-1.2,1.07H5.82a1.14,1.14,0,0,1-1.19-1.07ZM5.82,19.94a1.14,1.14,0,0,1-1.19-1.07V16A1.13,1.13,0,0,1,5.82,15h5V17.5a1.19,1.19,0,0,0,2.38,0V15h8.05A1.14,1.14,0,0,1,22.45,16v2.84a1.14,1.14,0,0,1-1.2,1.07Zm.77-9.65a1.15,1.15,0,0,1,1.2-1.08A1.14,1.14,0,0,1,9,10.29a1.15,1.15,0,0,1-1.19,1.09A1.16,1.16,0,0,1,6.59,10.29ZM9,17.5a1.14,1.14,0,0,1-1.19,1.08,1.09,1.09,0,1,1-.21-2.16.74.74,0,0,1,.21,0A1.14,1.14,0,0,1,9,17.5ZM7.84,23.57a1.09,1.09,0,0,1,.21,2.17.74.74,0,0,1-.21,0,1.09,1.09,0,0,1-.2-2.17A.67.67,0,0,1,7.84,23.57Z"/>
</svg>
