<svg xmlns="http://www.w3.org/2000/svg" width="157.001" height="134.105" viewBox="0 0 157.001 134.105">
  <g id="Group_2268" data-name="Group 2268" transform="translate(-50.999 -758.771)">
    <path id="Path_1104" data-name="Path 1104" d="M28.467,37.792,41.908,14.149a4.3,4.3,0,0,1,7.385,0L62.78,37.792a4.5,4.5,0,0,0,1.651,1.632L89.019,52.348a3.984,3.984,0,0,1,0,7.1L64.431,72.418a4.007,4.007,0,0,0-1.651,1.588L49.293,97.649a4.3,4.3,0,0,1-7.385,0L28.467,74.006a4.51,4.51,0,0,0-1.7-1.588L2.183,59.45a3.984,3.984,0,0,1,0-7.1L26.77,39.424a4.909,4.909,0,0,0,1.7-1.632Z" transform="translate(208.006 858.514) rotate(180)" fill="#2c2e5f"/>
    <path id="Path_1105" data-name="Path 1105" d="M38.985,17.872,46.346,4.946a2.378,2.378,0,0,1,4.069,0l7.361,12.926a2.6,2.6,0,0,0,.914.923l13.443,7.079a2.159,2.159,0,0,1,0,3.869L58.692,36.822a2.873,2.873,0,0,0-.914.879l-7.361,13.19a2.378,2.378,0,0,1-4.069,0L38.985,37.7a2.155,2.155,0,0,0-.914-.879L24.628,29.875a2.159,2.159,0,0,1,0-3.869L38.07,18.927A2,2,0,0,0,38.985,17.872Z" transform="translate(124.334 896.675) rotate(180)" fill="#2c2e5f"/>
  </g>
</svg>
