<svg xmlns="http://www.w3.org/2000/svg" width="276" height="43.832" viewBox="0 0 276 43.832">
  <g id="Group_841" data-name="Group 841" transform="translate(-242 -170)">
    <path id="Path_1" data-name="Path 1" d="M646.744,338.039v9.7h14.563v6.25H646.744v18.947H639.39V331.506h27.29v6.533Z" transform="translate(-397.39 -159.667)" fill="#fff"/>
    <path id="Path_2" data-name="Path 2" d="M693.284,350.194a7.412,7.412,0,0,0-4.157-1.245,5.643,5.643,0,0,0-4.369,2.234,8.116,8.116,0,0,0-1.909,5.458v17.25h-7.07V343.6h7.07v2.771a10.046,10.046,0,0,1,7.89-3.336,11.307,11.307,0,0,1,5.542,1.1Z" transform="translate(-400.411 -160.625)" fill="#fff"/>
    <path id="Path_3" data-name="Path 3" d="M729.619,360.912H707.986a7.682,7.682,0,0,0,2.489,5.627,9.018,9.018,0,0,0,6.165,2.007q4.836,0,7.353-2.516l2.742,5.4q-3.733,3.026-11.141,3.025-6.928,0-10.958-4.058t-4.03-11.326a15.711,15.711,0,0,1,4.425-11.594,14.463,14.463,0,0,1,10.619-4.439q6.59,0,10.576,3.93a13.459,13.459,0,0,1,3.988,10.011A19.742,19.742,0,0,1,729.619,360.912ZM708.24,355.6h14.875q-.736-6.645-7.352-6.645Q709.71,348.95,708.24,355.6Z" transform="translate(-402.472 -160.625)" fill="#fff"/>
    <path id="Path_4" data-name="Path 4" d="M765.916,360.912H744.283a7.682,7.682,0,0,0,2.489,5.627,9.021,9.021,0,0,0,6.165,2.007q4.836,0,7.353-2.516l2.743,5.4q-3.733,3.026-11.142,3.025-6.929,0-10.958-4.058T736.9,359.073a15.707,15.707,0,0,1,4.425-11.594,14.462,14.462,0,0,1,10.619-4.439q6.588,0,10.576,3.93a13.461,13.461,0,0,1,3.987,10.011A19.76,19.76,0,0,1,765.916,360.912ZM744.538,355.6h14.874q-.734-6.645-7.352-6.645Q746.007,348.95,744.538,355.6Z" transform="translate(-405.485 -160.625)" fill="#fff"/>
    <path id="Path_5" data-name="Path 5" d="M780.313,371.1l-1.584,2.234h-3.987V331.2l7.07-1.7v14.14a11.619,11.619,0,0,1,6.165-1.725,14.253,14.253,0,0,1,10.718,4.2,14.818,14.818,0,0,1,4.071,10.76q0,7.608-4.1,12.033t-11.114,4.425A11.849,11.849,0,0,1,780.313,371.1Zm1.5-21.407V365.5a5.229,5.229,0,0,0,4.214,1.839q5.118,0,7.253-2.432t2.135-7.777q0-9.219-8.823-9.22A6.175,6.175,0,0,0,781.812,349.692Z" transform="translate(-408.627 -159.501)" fill="#ff7475"/>
    <path id="Path_6" data-name="Path 6" d="M813.8,372.881v-24.49h-3.874v-5.8h11.028v30.287Zm3.648-42.023a4.1,4.1,0,1,1-2.9,1.2A3.95,3.95,0,0,1,817.451,330.858Z" transform="translate(-411.549 -159.614)" fill="#ff7475"/>
    <path id="Path_7" data-name="Path 7" d="M831.785,348.547h-3.505v-5.684h3.505V336.7l7.07-2.6v8.766h8.314v5.684h-8.314V361.81q0,3.251,1.018,4.595a4.209,4.209,0,0,0,3.564,1.343,8.765,8.765,0,0,0,4.751-1.387v6.5a22.509,22.509,0,0,1-7.013.848q-4.524,0-6.956-2.559t-2.432-7.281Z" transform="translate(-413.072 -159.882)" fill="#ff7475"/>
    <path id="Path_8" data-name="Path 8" d="M891.037,373.892V354.917q0-5.967-5.345-5.967a5.614,5.614,0,0,0-3.053.934,5.431,5.431,0,0,0-2.064,2.148v21.86H873.5V353.814a4.662,4.662,0,0,0-1.386-3.549,5.447,5.447,0,0,0-3.9-1.315,5.529,5.529,0,0,0-2.9.99,6.769,6.769,0,0,0-2.277,2.178v21.775h-7.07V343.6h4.865l1.442,2.658a9.825,9.825,0,0,1,7.606-3.223q6.023,0,9.078,3.28a9.116,9.116,0,0,1,3.7-2.39,13.439,13.439,0,0,1,4.751-.89q5.062,0,7.876,2.9a10.946,10.946,0,0,1,2.814,7.961v19.993Z" transform="translate(-415.371 -160.625)" fill="#ff7475"/>
    <path id="Path_9" data-name="Path 9" d="M937.1,360.912H915.47a7.682,7.682,0,0,0,2.489,5.627,9.019,9.019,0,0,0,6.165,2.007q4.836,0,7.352-2.516l2.742,5.4q-3.733,3.026-11.141,3.025-6.928,0-10.958-4.058t-4.03-11.326a15.712,15.712,0,0,1,4.425-11.594,14.463,14.463,0,0,1,10.619-4.439q6.589,0,10.577,3.93a13.46,13.46,0,0,1,3.988,10.011A19.74,19.74,0,0,1,937.1,360.912ZM915.725,355.6H930.6q-.736-6.645-7.352-6.645Q917.194,348.95,915.725,355.6Z" transform="translate(-419.698 -160.625)" fill="#ff7475"/>
  </g>
</svg>
