<svg xmlns="http://www.w3.org/2000/svg" xmlns:xlink="http://www.w3.org/1999/xlink" viewBox="0 0 59.2 29.74"><defs><linearGradient id="a" x1="-21.33" y1="5.89" x2="-20.33" y2="5.89" gradientTransform="translate(738.36 -160.32) scale(33.91 29.74)" gradientUnits="userSpaceOnUse"><stop offset="0" stop-color="#014cff"/><stop offset="1" stop-color="#4db2ff"/></linearGradient><linearGradient id="b" x1="-21.21" y1="8.51" x2="-20.21" y2="8.51" gradientTransform="translate(638.2 -152.76) scale(28.65 20.25)" xlink:href="#a"/></defs><title>Слой 1</title><path d="M7.82,10.19a12.06,12.06,0,0,0,3.53,16.68L24.5,6.65A12,12,0,0,0,7.83,10.18Z" style="fill:#f7931a"/><path d="M11.15,12.36,10,11.58a9.53,9.53,0,0,0,2.79,13.17l.78-1.2A8.1,8.1,0,0,1,11.15,12.36Z" style="fill:#f3c100"/><path d="M10,11.58l1.2.78A8.08,8.08,0,0,1,22.33,10h0l.78-1.2A9.52,9.52,0,0,0,10,11.58Z" style="fill:#e2790c"/><path d="M2.14,6.08l1-1.82a.31.31,0,0,1,.42-.13h0a.4.4,0,0,1,.13.13l1,1.82a.34.34,0,0,0,.12.12l1.82,1a.33.33,0,0,1,.13.43.49.49,0,0,1-.13.12l-1.82,1a.34.34,0,0,0-.12.12l-1,1.82a.32.32,0,0,1-.43.12.34.34,0,0,1-.12-.12l-1-1.82A.32.32,0,0,0,2,8.75l-1.82-1A.31.31,0,0,1,0,7.35v0A.3.3,0,0,1,.15,7.2L2,6.2A.43.43,0,0,0,2.14,6.08Z" style="fill:#f7931a"/><path d="M9.15,2.39l.54-1a.18.18,0,0,1,.24-.06.12.12,0,0,1,.06.06l.55,1a.16.16,0,0,0,.07.07l1,.55a.16.16,0,0,1,.07.22h0l-.06.07-1,.54a.16.16,0,0,0-.07.07l-.55,1A.18.18,0,0,1,9.76,5l-.07-.07-.54-1-.07,0-1-.54A.16.16,0,0,1,8,3.1s0,0,0,0A.11.11,0,0,1,8.1,3l1-.55Z" style="fill:#f3c100"/><path d="M15.27,28.3l.91-1.43.2-.31.12-.2c1.1-1.75,2.25-3.55,3.38-5.33,2.63-4.16,5.23-8.16,7.35-11.41l.29-.44.29-.43c.34-.52.67-1,1-1.47a46.07,46.07,0,0,1,3-4.22L32,2.87C33.63,1.31,37,.27,39.18,0H36.76a10.27,10.27,0,0,0-7,2.86l-.21.2a46.07,46.07,0,0,0-3,4.22l-1,1.47-.29.43L25,9.63c-2.18,3.24-4.78,7.24-7.41,11.38l-3.38,5.33-.12.2-.2.31-.92,1.45h0a11.23,11.23,0,0,0,5.64,1.42H20.9a11.23,11.23,0,0,1-5.64-1.42Z" style="fill:#133b8c"/><polygon points="43.79 2.7 34.73 2.7 22.3 20.62 22.3 29.74 33.04 29.74 43.79 11.51 43.79 2.7" style="fill:#fff"/><path d="M38.56,9.87a2,2,0,1,0-2-2A2,2,0,0,0,38.56,9.87Z" style="fill:#2e88ff"/><path d="M39,0a10.17,10.17,0,0,0-7,2.87l-.21.21a45.92,45.92,0,0,0-3,4.21l-1,1.47-.29.44-.29.44c-2.13,3.23-4.73,7.23-7.36,11.38L16.5,26.34l-.12.2-.2.32-.91,1.44h0a11.23,11.23,0,0,0,5.64,1.42h2.48l12-18.34.61-.94a3.63,3.63,0,1,1,2.56,1.08,3.32,3.32,0,0,1-1.13-.2h-.07l-12,18.4H36.52L49.18,9.49A10.13,10.13,0,0,0,39,0Z" style="fill:url(#a)"/><path d="M28.36,29.74h2.37L37,20l2.69-4.17.37-.58,1.34-2a7,7,0,0,1,1-1.1,9.94,9.94,0,0,1,1.23-1,10.16,10.16,0,0,1,4-1.59l1.75-.13H46.78a9.29,9.29,0,0,0-1.5.13,10.16,10.16,0,0,0-4,1.59,13.09,13.09,0,0,0-1.23,1A5.64,5.64,0,0,0,39,13.39" style="fill:#133b8c"/><polygon points="56.17 14.51 43.26 14.51 36.12 29.74 42.43 29.74 56.17 24.28 56.17 14.51" style="fill:#fff"/><path d="M51.18,21.43a2,2,0,1,0-2-2A2,2,0,0,0,51.18,21.43Z" style="fill:#2e88ff"/><path d="M39.72,15.87,37,20l-6.28,9.7h6.36l6.16-9.54,1-1.62h3.31A3.62,3.62,0,0,1,50,15.94a3.42,3.42,0,0,1,1.19-.2,3.65,3.65,0,0,1,0,7.3A3.18,3.18,0,0,1,50,22.87a3.64,3.64,0,0,1-2.37-2.64H45.18L39,29.74H49.45a10.13,10.13,0,0,0-.13-20.25h-.15a8.26,8.26,0,0,0-1,.07,1.38,1.38,0,0,0-.49.06,10.16,10.16,0,0,0-4,1.59,13.09,13.09,0,0,0-1.23,1,7.3,7.3,0,0,0-1,1.15" style="fill:url(#b)"/></svg>