<svg xmlns="http://www.w3.org/2000/svg" xmlns:xlink="http://www.w3.org/1999/xlink" viewBox="0 0 175.23 30"><defs><linearGradient id="a" x1="-10.68" y1="112.81" x2="-9.68" y2="112.81" gradientTransform="matrix(33.91, 0, 0, -29.74, 377.26, 3369.79)" gradientUnits="userSpaceOnUse"><stop offset="0" stop-color="#014cff"/><stop offset="1" stop-color="#4db2ff"/></linearGradient><linearGradient id="b" x1="-10.62" y1="111.48" x2="-9.62" y2="111.48" gradientTransform="matrix(28.65, 0, 0, -20.25, 334.81, 2277.74)" xlink:href="#a"/></defs><title>logo</title><path d="M75.7,11.81V15.4h5.4v2.32H75.7v7H73V9.39H83.09v2.42Z" style="fill:#fff"/><path d="M91.83,16a2.83,2.83,0,0,0-1.54-.46,2.1,2.1,0,0,0-1.62.83,3,3,0,0,0-.71,2v6.39H85.34V13.51H88v1a3.7,3.7,0,0,1,2.92-1.23,4.29,4.29,0,0,1,2.06.4Z" style="fill:#fff"/><path d="M104.52,19.93h-8A2.85,2.85,0,0,0,97.43,22a3.33,3.33,0,0,0,2.29.74,3.63,3.63,0,0,0,2.72-.93l1,2a6.46,6.46,0,0,1-4.13,1.12,5.46,5.46,0,0,1-4.06-1.5,5.7,5.7,0,0,1-1.5-4.2,5.88,5.88,0,0,1,1.64-4.3,5.76,5.76,0,0,1,7.86-.19,5,5,0,0,1,1.47,3.71A6.61,6.61,0,0,1,104.52,19.93ZM96.6,18h5.51a2.46,2.46,0,0,0-2.44-2.48h-.28A2.71,2.71,0,0,0,96.6,18Z" style="fill:#fff"/><path d="M116.86,19.93h-8a2.85,2.85,0,0,0,.92,2.08,3.34,3.34,0,0,0,2.29.74,3.63,3.63,0,0,0,2.72-.93l1,2a6.46,6.46,0,0,1-4.13,1.12,5.46,5.46,0,0,1-4.06-1.5,5.65,5.65,0,0,1-1.49-4.2,5.83,5.83,0,0,1,1.63-4.3,5.76,5.76,0,0,1,7.86-.19,5,5,0,0,1,1.47,3.71A7.24,7.24,0,0,1,116.86,19.93Zm-7.92-2h5.51A2.47,2.47,0,0,0,112,15.48h-.28A2.7,2.7,0,0,0,108.94,18Z" style="fill:#fff"/><path d="M121,24.12l-.59.82H119V9.33l2.62-.62v5.23a4.39,4.39,0,0,1,2.28-.64,5.33,5.33,0,0,1,4,1.56,5.5,5.5,0,0,1,1.5,4,6.25,6.25,0,0,1-1.52,4.45,5.31,5.31,0,0,1-4.11,1.64A4.34,4.34,0,0,1,121,24.12Zm.55-7.93V22a1.91,1.91,0,0,0,1.56.68,3.43,3.43,0,0,0,2.69-.9,4.27,4.27,0,0,0,.79-2.88c0-2.28-1.09-3.41-3.27-3.41A2.25,2.25,0,0,0,121.58,16.19Z" style="fill:#fff"/><path d="M132.35,24.73V15.66h-1.44V13.51H135V24.73ZM133.7,9.17a1.52,1.52,0,1,1-1.07.44,1.44,1.44,0,0,1,1.07-.44Z" style="fill:#fff"/><path d="M138.45,15.62h-1.3V13.51h1.3V11.23l2.62-1v3.24h3.08v2.11h-3.08v4.91a2.87,2.87,0,0,0,.38,1.7,1.52,1.52,0,0,0,1.32.5,3.17,3.17,0,0,0,1.76-.51v2.41a8.2,8.2,0,0,1-2.6.31,3.38,3.38,0,0,1-2.58-.94,3.76,3.76,0,0,1-.9-2.7Z" style="fill:#fff"/><path d="M159.55,24.73v-7c0-1.47-.66-2.21-2-2.21a2.12,2.12,0,0,0-1.13.35,2,2,0,0,0-.77.8v8.1h-2.62V17.3a1.69,1.69,0,0,0-.51-1.31,2,2,0,0,0-1.45-.49,2.09,2.09,0,0,0-1.07.37,2.6,2.6,0,0,0-.85.8v8.07h-2.61V13.52h1.8l.53,1a3.64,3.64,0,0,1,2.82-1.2,4.37,4.37,0,0,1,3.36,1.22,3.36,3.36,0,0,1,1.37-.89,5,5,0,0,1,1.76-.33,3.93,3.93,0,0,1,2.92,1.07,4.06,4.06,0,0,1,1,2.95v7.41Z" style="fill:#fff"/><path d="M175,19.93h-8a2.86,2.86,0,0,0,.93,2.08,3.3,3.3,0,0,0,2.28.74,3.62,3.62,0,0,0,2.72-.93l1,2a6.44,6.44,0,0,1-4.13,1.12,5.46,5.46,0,0,1-4.06-1.5,5.73,5.73,0,0,1-1.49-4.2,5.84,5.84,0,0,1,1.64-4.3,5.75,5.75,0,0,1,7.85-.19,5,5,0,0,1,1.48,3.71A7.25,7.25,0,0,1,175,19.93Zm-7.92-2h5.51a2.46,2.46,0,0,0-2.44-2.48h-.28A2.7,2.7,0,0,0,167.09,18Z" style="fill:#fff"/><path d="M7.79,10.32A12.06,12.06,0,0,0,11.32,27L24.47,6.78A12.05,12.05,0,0,0,7.79,10.32Z" style="fill:#f7931a"/><path d="M11.12,12.49l-1.2-.78a9.53,9.53,0,0,0,2.79,13.17l.78-1.2A8.1,8.1,0,0,1,11.12,12.49Z" style="fill:#f3c100"/><path d="M9.92,11.71l1.2.78A8.08,8.08,0,0,1,22.3,10.12l.78-1.2A9.52,9.52,0,0,0,9.92,11.71Z" style="fill:#e2790c"/><path d="M2.11,6.21l1-1.82a.31.31,0,0,1,.42-.13.33.33,0,0,1,.13.13l1,1.82a.34.34,0,0,0,.12.12l1.82,1a.33.33,0,0,1,.13.43.37.37,0,0,1-.13.12l-1.82,1A.3.3,0,0,0,4.66,9l-1,1.82a.32.32,0,0,1-.43.12.34.34,0,0,1-.12-.12L2.11,9A.27.27,0,0,0,2,8.88l-1.82-1A.31.31,0,0,1,0,7.46a.3.3,0,0,1,.12-.13L2,6.33A.3.3,0,0,0,2.11,6.21Z" style="fill:#f7931a"/><path d="M9.12,2.52l.54-1a.18.18,0,0,1,.24-.06.12.12,0,0,1,.06.06l.55,1a.16.16,0,0,0,.07.07l1,.55a.16.16,0,0,1,.06.23s0,0-.06.07l-1,.54a.16.16,0,0,0-.07.07l-.55,1a.17.17,0,0,1-.23.07.23.23,0,0,1-.07-.07l-.54-1A.23.23,0,0,0,9.05,4l-1-.54A.17.17,0,0,1,8,3.2a.13.13,0,0,1,.07-.06l1-.55Z" style="fill:#f3c100"/><path d="M15.24,28.43,16.15,27l.2-.31.12-.2c1.1-1.75,2.25-3.55,3.38-5.33C22.48,17,25.08,13,27.2,9.75l.29-.44.29-.43c.34-.52.67-1,1-1.47a48.29,48.29,0,0,1,3-4.22L32,3c1.6-1.56,4.94-2.6,7.15-2.86-.94,0-1.81,0-2.42,0a10.29,10.29,0,0,0-7,2.86l-.21.2a48.29,48.29,0,0,0-3,4.22c-.31.46-.64.95-1,1.47l-.29.43-.29.44C22.76,13,20.16,17,17.53,21.14l-3.38,5.33-.12.2-.2.31-.92,1.45,0,0a11.21,11.21,0,0,0,5.64,1.42h2.32a11.23,11.23,0,0,1-5.64-1.42Z" style="fill:#133b8c"/><polygon points="43.76 2.83 34.7 2.83 22.27 20.75 22.27 29.87 33.01 29.87 43.76 11.64 43.76 2.83" style="fill:#fff"/><path d="M38.53,10a2,2,0,1,0-2-2A2,2,0,0,0,38.53,10Z" style="fill:#2e88ff"/><path d="M39,.13A10.19,10.19,0,0,0,32,3l-.21.21a48.14,48.14,0,0,0-3,4.21l-1,1.47-.29.44-.29.44C25.08,13,22.48,17,19.85,21.15l-3.38,5.32-.12.2-.2.32-.91,1.44,0,0a11.23,11.23,0,0,0,5.64,1.42h2.48l12-18.34.61-.94a3.65,3.65,0,1,1,5.17,0,3.61,3.61,0,0,1-2.61,1.08,3.36,3.36,0,0,1-1.13-.2l-.07,0-12,18.4H36.49L49.15,9.62A10.13,10.13,0,0,0,39,.13Z" style="fill:url(#a)"/><path d="M28.33,29.87H30.7L37,20.17,39.69,16l.37-.58,1.34-2a7.2,7.2,0,0,1,1-1.1,10.66,10.66,0,0,1,1.23-1,10.27,10.27,0,0,1,4-1.59l1.75-.13c-1.1,0-1.69,0-2.48,0h-.15a9.5,9.5,0,0,0-1.5.13,10.12,10.12,0,0,0-4,1.59,12.89,12.89,0,0,0-1.23,1,5.77,5.77,0,0,0-1.09,1.2" style="fill:#133b8c"/><polygon points="56.14 14.64 43.23 14.64 36.09 29.87 42.4 29.87 56.14 24.41 56.14 14.64" style="fill:#fff"/><path d="M51.15,21.56a2,2,0,1,0-2-2A2,2,0,0,0,51.15,21.56Z" style="fill:#2e88ff"/><path d="M39.69,16,37,20.17l-6.28,9.7h6.36l6.16-9.54,1.05-1.62h3.31A3.65,3.65,0,0,1,50,16.07a3.42,3.42,0,0,1,1.19-.2,3.65,3.65,0,0,1,0,7.3A3.2,3.2,0,0,1,50,23a3.65,3.65,0,0,1-2.37-2.64H45.15L39,29.87H49.42a10.13,10.13,0,0,0-.13-20.25h-.15a8.42,8.42,0,0,0-1,.07c-.16,0-.33,0-.49.06a10.12,10.12,0,0,0-4,1.59,12.89,12.89,0,0,0-1.23,1,7.6,7.6,0,0,0-1,1.15" style="fill:url(#b)"/></svg>