<svg xmlns="http://www.w3.org/2000/svg" xmlns:xlink="http://www.w3.org/1999/xlink" width="175.23" height="29.737" viewBox="0 0 175.23 29.737">
  <defs>
    <linearGradient id="linear-gradient" x1="-0.001" y1="0.501" x2="0.999" y2="0.501" gradientUnits="objectBoundingBox">
      <stop offset="0" stop-color="#014cff"/>
      <stop offset="1" stop-color="#4db2ff"/>
    </linearGradient>
    <linearGradient id="linear-gradient-2" x1="0" y1="0.5" x2="1" y2="0.5" xlink:href="#linear-gradient"/>
  </defs>
  <g id="Group_576" transform="translate(-424.562 -304.262)">
    <g id="Group_572" transform="translate(497.542 312.836)">
      <g id="Group_571" transform="translate(0)">
        <path id="Path_1129" d="M642.114,333.926v3.593h5.4v2.316h-5.4v7.019H639.39V331.506H649.5v2.42Z" transform="translate(-639.39 -330.825)" fill="#fff"/>
        <path id="Path_1130" d="M682.265,345.69a2.746,2.746,0,0,0-1.54-.461,2.09,2.09,0,0,0-1.618.828,3.007,3.007,0,0,0-.707,2.022v6.391H675.78v-11.22H678.4v1.027a3.722,3.722,0,0,1,2.923-1.236,4.19,4.19,0,0,1,2.053.408Z" transform="translate(-663.418 -338.441)" fill="#fff"/>
        <path id="Path_1131" d="M711.354,349.661h-8.015a2.846,2.846,0,0,0,.922,2.085,3.341,3.341,0,0,0,2.284.744,3.69,3.69,0,0,0,2.724-.932l1.016,2a6.452,6.452,0,0,1-4.128,1.121,5.464,5.464,0,0,1-4.06-1.5,5.694,5.694,0,0,1-1.493-4.2,5.82,5.82,0,0,1,1.639-4.3,5.751,5.751,0,0,1,7.852-.189,4.986,4.986,0,0,1,1.477,3.709A7.314,7.314,0,0,1,711.354,349.661Zm-7.92-1.97h5.51a2.461,2.461,0,0,0-2.724-2.462A2.7,2.7,0,0,0,703.434,347.691Z" transform="translate(-679.809 -338.441)" fill="#fff"/>
        <path id="Path_1132" d="M747.652,349.661h-8.015a2.846,2.846,0,0,0,.922,2.085,3.343,3.343,0,0,0,2.284.744,3.692,3.692,0,0,0,2.724-.932l1.016,2a6.452,6.452,0,0,1-4.128,1.121,5.464,5.464,0,0,1-4.06-1.5,5.694,5.694,0,0,1-1.493-4.2,5.819,5.819,0,0,1,1.639-4.3,5.751,5.751,0,0,1,7.852-.189,4.987,4.987,0,0,1,1.477,3.709A7.319,7.319,0,0,1,747.652,349.661Zm-7.92-1.97h5.51a2.461,2.461,0,0,0-2.724-2.462A2.7,2.7,0,0,0,739.732,347.691Z" transform="translate(-703.776 -338.441)" fill="#fff"/>
        <path id="Path_1133" d="M776.806,344.912l-.587.828h-1.477V330.13l2.619-.629v5.238a4.3,4.3,0,0,1,2.284-.639,5.28,5.28,0,0,1,3.971,1.556,5.49,5.49,0,0,1,1.508,3.986,6.3,6.3,0,0,1-1.519,4.458,5.339,5.339,0,0,1-4.117,1.639A4.39,4.39,0,0,1,776.806,344.912Zm.555-7.931v5.856a1.937,1.937,0,0,0,1.561.681,3.427,3.427,0,0,0,2.687-.9,4.312,4.312,0,0,0,.791-2.881q0-3.415-3.269-3.415A2.287,2.287,0,0,0,777.361,336.981Z" transform="translate(-728.761 -329.501)" fill="#fff"/>
        <path id="Path_1134" d="M811.364,346.426v-9.073h-1.435v-2.148h4.086v11.22Zm1.351-15.568a1.521,1.521,0,1,1-1.074.445A1.463,1.463,0,0,1,812.716,330.858Z" transform="translate(-751.994 -330.397)" fill="#fff"/>
        <path id="Path_1135" d="M829.578,339.45h-1.3v-2.106h1.3V335.06l2.619-.964v3.248h3.08v2.106H832.2v4.914a2.9,2.9,0,0,0,.377,1.7,1.559,1.559,0,0,0,1.32.5,3.247,3.247,0,0,0,1.76-.514v2.41a8.339,8.339,0,0,1-2.6.314,3.385,3.385,0,0,1-2.577-.948,3.762,3.762,0,0,1-.9-2.7Z" transform="translate(-764.111 -332.535)" fill="#fff"/>
        <path id="Path_1136" d="M868.962,354.47v-7.03q0-2.21-1.98-2.211a2.08,2.08,0,0,0-1.131.346,2.012,2.012,0,0,0-.765.8v8.1h-2.619v-7.438a1.727,1.727,0,0,0-.513-1.315,2.018,2.018,0,0,0-1.446-.487,2.048,2.048,0,0,0-1.074.367,2.507,2.507,0,0,0-.844.807v8.067h-2.619v-11.22h1.8l.534.985a3.64,3.64,0,0,1,2.818-1.194,4.376,4.376,0,0,1,3.363,1.215,3.376,3.376,0,0,1,1.372-.885,4.979,4.979,0,0,1,1.76-.33,3.879,3.879,0,0,1,2.918,1.073,4.055,4.055,0,0,1,1.043,2.949v7.407Z" transform="translate(-782.395 -338.441)" fill="#fff"/>
        <path id="Path_1137" d="M918.838,349.661h-8.015a2.846,2.846,0,0,0,.922,2.085,3.341,3.341,0,0,0,2.284.744,3.69,3.69,0,0,0,2.724-.932l1.016,2a6.452,6.452,0,0,1-4.128,1.121,5.464,5.464,0,0,1-4.06-1.5,5.694,5.694,0,0,1-1.493-4.2,5.82,5.82,0,0,1,1.64-4.3,5.751,5.751,0,0,1,7.852-.189,4.986,4.986,0,0,1,1.477,3.709A7.314,7.314,0,0,1,918.838,349.661Zm-7.92-1.97h5.511a2.461,2.461,0,0,0-2.724-2.462A2.7,2.7,0,0,0,910.918,347.691Z" transform="translate(-816.808 -338.441)" fill="#fff"/>
      </g>
    </g>
    <g id="Group_573" transform="translate(430.396 308.962)">
      <path id="Path_1138" d="M443.686,323.584a12.062,12.062,0,0,0,3.536,16.687l13.151-20.224A12.062,12.062,0,0,0,443.686,323.584Z" transform="translate(-441.735 -318.096)" fill="#f7931a"/>
      <path id="Path_1139" d="M451.969,339.114l-1.2-.782a9.529,9.529,0,0,0,2.791,13.17l.782-1.2A8.094,8.094,0,0,1,451.969,339.114Z" transform="translate(-446.683 -331.458)" fill="#f3c100"/>
      <path id="Path_1140" d="M453.752,329.921l1.2.782a8.094,8.094,0,0,1,11.184-2.37l.782-1.2A9.529,9.529,0,0,0,453.752,329.921Z" transform="translate(-449.67 -323.046)" fill="#e2790c"/>
    </g>
    <path id="Path_1141" d="M426.67,318.295l1-1.821a.313.313,0,0,1,.549,0l1,1.821a.31.31,0,0,0,.124.124l1.821,1a.313.313,0,0,1,0,.549l-1.821,1a.312.312,0,0,0-.124.124l-1,1.821a.313.313,0,0,1-.549,0l-1-1.821a.31.31,0,0,0-.124-.124l-1.821-1a.313.313,0,0,1,0-.549l1.821-1A.308.308,0,0,0,426.67,318.295Z" transform="translate(0 -7.956)" fill="#f7931a"/>
    <path id="Path_1142" d="M449.144,309.179l.547-1a.172.172,0,0,1,.3,0l.547,1a.172.172,0,0,0,.068.068l1,.547a.172.172,0,0,1,0,.3l-1,.547a.175.175,0,0,0-.068.069l-.547,1a.172.172,0,0,1-.3,0l-.547-1a.172.172,0,0,0-.068-.069l-1-.547a.172.172,0,0,1,0-.3l1-.547A.17.17,0,0,0,449.144,309.179Z" transform="translate(-15.467 -2.527)" fill="#f3c100"/>
    <path id="Path_1143" d="M569.793,391.788h-.128c.042,0,.083,0,.125,0Z" transform="translate(-95.81 -57.79)"/>
    <path id="Path_1144" d="M578.651,361.337" transform="translate(-101.743 -37.686)" fill="none" stroke="#000c22" stroke-miterlimit="10" stroke-width="4.748"/>
    <path id="Path_1145" d="M543.264,342.876a10.178,10.178,0,0,1,2.076-2.717,10.178,10.178,0,0,0-2.076,2.717Z" transform="translate(-78.377 -23.702)" fill="none"/>
    <path id="Path_1146" d="M523.941,349.912l.374-.577-.374.577-2.7,4.155-6.286,9.693,6.286-9.693Z" transform="translate(-59.688 -29.761)" fill="none"/>
    <g id="Group_574" transform="translate(437.477 304.262)">
      <path id="Path_1147" d="M527.27,320.665a3.642,3.642,0,0,0,1.093,2.6l-.613.938a3.378,3.378,0,0,0,.853.115,3.643,3.643,0,0,0,1.113-.175l.025-.039.044.014a3.64,3.64,0,1,0-2.515-3.454Z" transform="translate(-505.294 -312.807)" fill="none"/>
      <path id="Path_1148" d="M464.9,332.556c.3-.477.605-.956.913-1.443l.2-.315c.041-.064.082-.128.123-.2,1.1-1.748,2.245-3.543,3.381-5.324,2.625-4.122,5.23-8.173,7.347-11.39.1-.149.195-.295.29-.439s.195-.292.29-.436c.341-.518.669-1.01.979-1.472a46.782,46.782,0,0,1,3.022-4.212l.208-.208a10.1,10.1,0,0,1,5.891-2.792,10.206,10.206,0,0,0-1.16-.069,10.1,10.1,0,0,0-7.052,2.861l-.208.208a46.731,46.731,0,0,0-3.022,4.212c-.31.461-.639.954-.979,1.472-.1.143-.192.287-.29.436s-.19.29-.29.439c-2.117,3.217-4.722,7.267-7.347,11.39-1.136,1.782-2.276,3.576-3.381,5.324-.041.067-.082.131-.123.2l-.2.315c-.307.487-.613.966-.913,1.443l.035.02A11.249,11.249,0,0,0,468.25,334h2.321a11.247,11.247,0,0,1-5.636-1.423Z" transform="translate(-462.579 -304.262)" fill="#133b8c"/>
      <path id="Path_1149" d="M534.058,316.637a3.627,3.627,0,0,0-1.16.192,3.676,3.676,0,0,1,1.975,1.593,2.04,2.04,0,1,0,0,3.738,3.677,3.677,0,0,1-1.953,1.585,3.567,3.567,0,0,0,1.139.2,3.654,3.654,0,1,0,0-7.308Z" transform="translate(-508.428 -312.433)" fill="#2e88ff"/>
      <path id="Path_1150" d="M506.249,337.81a3.38,3.38,0,0,1-.853-.115l-11.981,18.34h1.926l12.02-18.4A3.644,3.644,0,0,1,506.249,337.81Z" transform="translate(-482.94 -326.298)" fill="#133b8c"/>
      <path id="Path_1151" d="M534.469,337.559c.023-.007.046-.017.069-.025l-.044-.014Z" transform="translate(-510.047 -326.222)" fill="url(#linear-gradient)"/>
      <path id="Path_1152" d="M493.215,304.262a10.169,10.169,0,0,0-7.052,2.861l-.208.208a46.789,46.789,0,0,0-3.022,4.212c-.31.461-.638.954-.979,1.472-.1.143-.192.287-.29.436s-.19.29-.29.439c-2.117,3.217-4.722,7.267-7.347,11.39-1.136,1.782-2.276,3.576-3.381,5.324-.041.067-.082.131-.123.2l-.2.315c-.308.487-.613.966-.913,1.443l.035.02A11.247,11.247,0,0,0,475.081,334h2.484l11.981-18.34.613-.938a3.649,3.649,0,1,1,2.56,1.053,3.567,3.567,0,0,1-1.139-.2c-.023.008-.046.018-.069.025L479.491,334h5.392l6.286-9.693,2.7-4.156.374-.577.259-.4a10.169,10.169,0,0,1,2.076-2.717,9.972,9.972,0,0,1,1.233-.982,10.079,10.079,0,0,1,4.01-1.593,10.271,10.271,0,0,1,1.5-.133A10.127,10.127,0,0,0,493.215,304.262Z" transform="translate(-467.089 -304.262)" fill="url(#linear-gradient-2)"/>
    </g>
    <g id="Group_575" transform="translate(452.893 313.747)">
      <path id="Path_1153" d="M553.751,355.434h2.439a3.654,3.654,0,1,0,0-1.614h-3.316l-1.044,1.614Z" transform="translate(-536.926 -344.723)" fill="none"/>
      <path id="Path_1154" d="M519.319,338.587l.374-.577.259-.4a10.168,10.168,0,0,1,2.076-2.717,9.974,9.974,0,0,1,1.233-.982,10.08,10.08,0,0,1,4.01-1.593c.159-.026.321-.042.483-.061a10.244,10.244,0,0,0-1.211-.074l-.151,0a10.282,10.282,0,0,0-1.5.133,10.08,10.08,0,0,0-4.01,1.593,9.971,9.971,0,0,0-1.233.982,10.173,10.173,0,0,0-2.076,2.717l-.259.4-.374.577-2.7,4.155-6.286,9.693h2.378l6.286-9.693Z" transform="translate(-507.959 -332.183)" fill="#133b8c"/>
      <path id="Path_1155" d="M574.093,354.234a3.658,3.658,0,0,1-2.467,3.452,3.61,3.61,0,0,0,1.191.2,3.654,3.654,0,0,0,0-7.308,3.62,3.62,0,0,0-1.191.2A3.659,3.659,0,0,1,574.093,354.234Z" transform="translate(-549.997 -344.33)" fill="#133b8c"/>
      <path id="Path_1156" d="M539.844,363.713l-6.167,9.541H535.6l6.167-9.541Z" transform="translate(-524.94 -353.002)" fill="#133b8c"/>
      <path id="Path_1157" d="M533.544,332.183l-.151,0c-.344.005-.682.034-1.016.072-.162.019-.324.035-.483.061a10.08,10.08,0,0,0-4.01,1.593,9.966,9.966,0,0,0-1.233.982,10.172,10.172,0,0,0-2.076,2.717l-.259.4-.374.577-2.7,4.155-6.286,9.693h6.359l6.167-9.541,1.044-1.614h3.316a3.667,3.667,0,0,1,2.365-2.645,3.619,3.619,0,0,1,1.191-.2,3.654,3.654,0,0,1,0,7.308,3.61,3.61,0,0,1-1.191-.2,3.667,3.667,0,0,1-2.365-2.645h-2.439l-6.167,9.541h10.306c.041,0,.082-.005.126-.005a10.124,10.124,0,0,0-.126-20.246Z" transform="translate(-512.581 -332.183)" fill="url(#linear-gradient-2)"/>
    </g>
    <path id="Path_1158" d="M571.166,359.412a2.04,2.04,0,1,0-2.041-2.04A2.043,2.043,0,0,0,571.166,359.412Z" transform="translate(-95.453 -33.721)" fill="#2e88ff"/>
    <path id="Path_1159" d="M544.2,355.042a3.654,3.654,0,1,0,0-1.614h-3.316l-7.21,11.155H535.6l6.167-9.541Zm3.557-2.847a2.04,2.04,0,1,1-2.041,2.04A2.043,2.043,0,0,1,547.76,352.195Z" transform="translate(-72.047 -30.584)" fill="#fff"/>
    <path id="Path_1160" d="M508.57,323.945a3.664,3.664,0,1,0-2.56-1.053L493.416,342.17h1.926l12.045-18.439A3.6,3.6,0,0,0,508.57,323.945Zm-2.041-3.654a2.041,2.041,0,1,1,2.041,2.04A2.043,2.043,0,0,1,506.529,320.291Z" transform="translate(-45.463 -8.171)" fill="#fff"/>
  </g>
</svg>
