<svg xmlns="http://www.w3.org/2000/svg" width="159.685" height="23.553" viewBox="0 0 159.685 23.553">
  <g id="Group_1022" data-name="Group 1022" transform="translate(-140 -18)">
    <path id="Union_15" data-name="Union 15" d="M10.772,22.423l-.028-.016c.246-.379.5-.759.748-1.143l.165-.25.1-.153c.91-1.385,1.845-2.806,2.791-4.218,2.155-3.263,4.3-6.456,6.034-9.018.084-.118.162-.234.24-.347s.159-.231.237-.347c.279-.409.558-.807.8-1.165a39.476,39.476,0,0,1,2.484-3.336l.17-.164A8.547,8.547,0,0,1,33.308.539a8.051,8.051,0,0,1,5.3,6.973,8.167,8.167,0,0,1,8.234,8.019,8.161,8.161,0,0,1-8.214,8.014H30.06l5.065-7.554h1.993a2.946,2.946,0,0,0,1.954,2.1,3.066,3.066,0,0,0,.977.159,3.03,3.03,0,0,0,2.677-1.42,2.8,2.8,0,0,0,0-2.946,3.03,3.03,0,0,0-2.677-1.42,3.066,3.066,0,0,0-.977.159,2.945,2.945,0,0,0-1.954,2.1H34.394l-.857,1.278-5.054,7.557H19.024L28.9,8.977l.059-.019a3.063,3.063,0,0,0,.935.159,2.981,2.981,0,0,0,2.954-2.333A2.878,2.878,0,0,0,31.041,3.54a3.069,3.069,0,0,0-3.65,1.082,2.82,2.82,0,0,0,.4,3.661l-.5.742L17.442,23.552H15.281A9.527,9.527,0,0,1,10.772,22.423ZM6.4,8.071a10.134,10.134,0,0,1,13.7-2.8L18.963,6.945l.014.009-.656.947h0L11.08,18.642h0l-.642.952h0L9.3,21.282A9.344,9.344,0,0,1,6.4,8.071Zm31.981,7.285a1.676,1.676,0,1,1,1.675,1.614A1.645,1.645,0,0,1,38.377,15.356Zm-9.456-6.4h.036l-.059.019ZM2.55,8.463,1.732,7.022a.275.275,0,0,0-.1-.1l-1.5-.791a.243.243,0,0,1,0-.433l1.5-.788a.3.3,0,0,0,.1-.1L2.55,3.371a.261.261,0,0,1,.449,0l.821,1.442a.272.272,0,0,0,.1.1l1.5.788a.243.243,0,0,1,0,.433l-1.5.791a.244.244,0,0,0-.1.1L3,8.463a.261.261,0,0,1-.449,0ZM28.215,6.241A1.676,1.676,0,1,1,29.89,7.855,1.645,1.645,0,0,1,28.215,6.241ZM7.936,3.9,7.487,3.1a.132.132,0,0,0-.056-.054L6.61,2.618a.132.132,0,0,1,0-.237l.821-.433a.123.123,0,0,0,.056-.065l.449-.791a.145.145,0,0,1,.248,0l.449.791a.157.157,0,0,0,.056.057l.821.433a.132.132,0,0,1,0,.237l-.821.433a.176.176,0,0,0-.056.054L8.184,3.9a.145.145,0,0,1-.248,0Z" transform="translate(140 18)" fill="#ff7475"/>
    <g id="Group_1021" data-name="Group 1021" transform="translate(208 23)">
      <g id="Group_1" data-name="Group 1" transform="translate(0 0)">
        <path id="Path_1" data-name="Path 1" d="M641.833,333.676V336.9h4.838v2.076h-4.838v6.294H639.39V331.506h9.065v2.17Z" transform="translate(-639.39 -330.895)" fill="#fff"/>
        <path id="Path_2" data-name="Path 2" d="M681.595,345.417a2.462,2.462,0,0,0-1.381-.413,1.874,1.874,0,0,0-1.451.742,2.7,2.7,0,0,0-.634,1.813v5.73H675.78V343.228h2.349v.921a3.337,3.337,0,0,1,2.621-1.108,3.756,3.756,0,0,1,1.841.366Z" transform="translate(-664.695 -338.916)" fill="#fff"/>
        <path id="Path_3" data-name="Path 3" d="M710.243,348.977h-7.186a2.552,2.552,0,0,0,.827,1.869,3,3,0,0,0,2.048.667,3.309,3.309,0,0,0,2.442-.836l.911,1.794a5.785,5.785,0,0,1-3.7,1,4.9,4.9,0,0,1-3.64-1.348,5.106,5.106,0,0,1-1.339-3.762,5.219,5.219,0,0,1,1.47-3.852,5.156,5.156,0,0,1,7.041-.169,4.471,4.471,0,0,1,1.325,3.325A6.554,6.554,0,0,1,710.243,348.977Zm-7.1-1.766h4.941A2.207,2.207,0,0,0,705.64,345,2.418,2.418,0,0,0,703.141,347.211Z" transform="translate(-681.958 -338.916)" fill="#fff"/>
        <path id="Path_4" data-name="Path 4" d="M746.541,348.977h-7.187a2.552,2.552,0,0,0,.827,1.869,3,3,0,0,0,2.048.667,3.31,3.31,0,0,0,2.443-.836l.911,1.794a5.786,5.786,0,0,1-3.7,1,4.9,4.9,0,0,1-3.64-1.348,5.106,5.106,0,0,1-1.338-3.762,5.218,5.218,0,0,1,1.47-3.852,5.156,5.156,0,0,1,7.041-.169,4.472,4.472,0,0,1,1.324,3.325A6.566,6.566,0,0,1,746.541,348.977Zm-7.1-1.766h4.941A2.207,2.207,0,0,0,741.938,345,2.417,2.417,0,0,0,739.439,347.211Z" transform="translate(-707.199 -338.916)" fill="#fff"/>
        <path id="Path_5" data-name="Path 5" d="M776.593,343.319l-.526.742h-1.325v-14l2.349-.564v4.7a3.859,3.859,0,0,1,2.048-.573,4.735,4.735,0,0,1,3.56,1.395,4.922,4.922,0,0,1,1.352,3.574,5.652,5.652,0,0,1-1.362,4,4.788,4.788,0,0,1-3.692,1.47A3.936,3.936,0,0,1,776.593,343.319Zm.5-7.111v5.251a1.737,1.737,0,0,0,1.4.611,3.073,3.073,0,0,0,2.41-.808,3.866,3.866,0,0,0,.709-2.583q0-3.062-2.931-3.063A2.051,2.051,0,0,0,777.091,336.208Z" transform="translate(-733.512 -329.501)" fill="#fff"/>
        <path id="Path_6" data-name="Path 6" d="M811.216,344.817v-8.135h-1.287v-1.926h3.664v10.061Zm1.212-13.959a1.363,1.363,0,1,1-.963.4A1.312,1.312,0,0,1,812.428,330.858Z" transform="translate(-757.981 -330.445)" fill="#fff"/>
        <path id="Path_7" data-name="Path 7" d="M829.444,338.9h-1.165v-1.888h1.165V334.96l2.349-.864v2.912h2.762V338.9h-2.762V343.3a2.6,2.6,0,0,0,.338,1.526,1.4,1.4,0,0,0,1.184.446,2.912,2.912,0,0,0,1.578-.461v2.161a7.477,7.477,0,0,1-2.33.282,3.035,3.035,0,0,1-2.311-.85,3.373,3.373,0,0,1-.808-2.419Z" transform="translate(-770.741 -332.696)" fill="#fff"/>
        <path id="Path_8" data-name="Path 8" d="M867.62,353.289v-6.3q0-1.982-1.776-1.982a1.865,1.865,0,0,0-1.014.31,1.8,1.8,0,0,0-.686.714v7.262H861.8v-6.67a1.548,1.548,0,0,0-.46-1.179,1.809,1.809,0,0,0-1.3-.437,1.836,1.836,0,0,0-.963.329,2.248,2.248,0,0,0-.756.723v7.233h-2.349V343.228h1.616l.479.883a3.264,3.264,0,0,1,2.527-1.071,3.924,3.924,0,0,1,3.016,1.09,3.028,3.028,0,0,1,1.23-.794,4.465,4.465,0,0,1,1.578-.3,3.478,3.478,0,0,1,2.616.963,3.636,3.636,0,0,1,.935,2.645v6.641Z" transform="translate(-789.998 -338.916)" fill="#fff"/>
        <path id="Path_9" data-name="Path 9" d="M917.727,348.977h-7.186a2.552,2.552,0,0,0,.827,1.869,3,3,0,0,0,2.048.667,3.309,3.309,0,0,0,2.442-.836l.911,1.794a5.785,5.785,0,0,1-3.7,1,4.9,4.9,0,0,1-3.64-1.348,5.106,5.106,0,0,1-1.339-3.762,5.219,5.219,0,0,1,1.47-3.852,5.157,5.157,0,0,1,7.041-.169,4.471,4.471,0,0,1,1.325,3.325A6.553,6.553,0,0,1,917.727,348.977Zm-7.1-1.766h4.941A2.207,2.207,0,0,0,913.124,345,2.417,2.417,0,0,0,910.626,347.211Z" transform="translate(-826.24 -338.916)" fill="#fff"/>
      </g>
    </g>
  </g>
</svg>
