<svg xmlns="http://www.w3.org/2000/svg" xmlns:xlink="http://www.w3.org/1999/xlink" viewBox="0 0 39.25 44.38">
    <defs>
        <linearGradient id="a" x1="-26.3" y1="116.86" x2="-25.3" y2="116.86" gradientTransform="matrix(39.25, 0, 0, -13.64, 1032.25, 1631.12)" gradientUnits="userSpaceOnUse">
            <stop offset="0" stop-color="#b8cdff"/>
            <stop offset="1" stop-color="#4db2ff"/>
        </linearGradient>
        <linearGradient id="b" x1="-26.3" y1="116.84" x2="-25.3" y2="116.84" gradientTransform="matrix(39.22, 0, 0, -13.6, 1031.5, 1619.49)" gradientUnits="userSpaceOnUse">
            <stop offset="0" stop-color="#6996ff"/>
            <stop offset="1" stop-color="#0091ff"/>
        </linearGradient>
        <linearGradient id="c" x1="-25.66" y1="119.38" x2="-25.93" y2="118.52" gradientTransform="matrix(39.22, 0, 0, -21.66, 1031.49, 2595.81)" gradientUnits="userSpaceOnUse">
            <stop offset="0" stop-color="#014cff"/>
            <stop offset="1" stop-color="#4db2ff"/>
        </linearGradient>
        <linearGradient id="d" x1="-25.49" y1="97.55" x2="-25.43" y2="95.08" gradientTransform="matrix(26.31, 0, 0, -2.94, 689.5, 302.14)" gradientUnits="userSpaceOnUse">
            <stop offset="0" stop-color="#0b5aff"/>
            <stop offset="0.26" stop-color="#0d5dff"/>
            <stop offset="0.46" stop-color="#1466ff"/>
            <stop offset="0.64" stop-color="#2077ff"/>
            <stop offset="0.81" stop-color="#328eff"/>
            <stop offset="0.97" stop-color="#48acff"/>
            <stop offset="1" stop-color="#4db2ff"/>
        </linearGradient>
    </defs>
    <path d="M38,31.85l-2.12-1.1-14.6,7.6a3.84,3.84,0,0,1-3.37,0l-14.6-7.6-2.12,1.1A1.81,1.81,0,0,0,.1,34.16a1.84,1.84,0,0,0,1.13,1.13L18,44a3.86,3.86,0,0,0,3.38,0L38,35.29a1.82,1.82,0,0,0,0-3.44Z" style="fill:url(#a)"/>
    <path d="M38,24.51l-2-1.06-14.7,7.66a3.83,3.83,0,0,1-3.4,0L3.24,23.44l-2,1a1.82,1.82,0,0,0,0,3.43l16.7,8.72a3.83,3.83,0,0,0,3.4,0L38,27.92a1.82,1.82,0,0,0,0-3.43Z" style="fill:url(#b)"/>
    <path d="M18,8.53,1.23,17.25a1.82,1.82,0,0,0,0,3.43L18,29.4a3.79,3.79,0,0,0,3.38,0L38,20.68a1.81,1.81,0,0,0,1.1-2.32A1.83,1.83,0,0,0,38,17.25L21.33,8.53A3.86,3.86,0,0,0,18,8.53Z" style="fill:url(#c)"/>
    <path d="M31.32,20.44H8A1.47,1.47,0,1,1,8,17.5H31.32a1.47,1.47,0,0,1,0,2.94Z" style="fill:url(#d)"/>
    <path d="M19.61,7.45a11.4,11.4,0,0,0-11.4,11.4H31a11.39,11.39,0,0,0-11.4-11.4Z" style="fill:#f7931a"/>
    <path d="M19.61,11.21V9.85a9,9,0,0,0-9,9H12a7.65,7.65,0,0,1,7.63-7.64Z" style="fill:#f3c100"/>
    <path d="M19.61,9.85v1.36a7.64,7.64,0,0,1,7.66,7.64h1.36a9,9,0,0,0-9-9Z" style="fill:#e2790c"/>
    <path d="M20.07,1,22,.86a.29.29,0,0,1,.33.26.25.25,0,0,1,0,.17L21.38,3a.41.41,0,0,0,0,.16l.15,2a.31.31,0,0,1-.28.32.38.38,0,0,1-.17,0L19.32,4.5a.23.23,0,0,0-.16,0l-2,.15a.32.32,0,0,1-.31-.29.32.32,0,0,1,0-.14l.93-1.72a.27.27,0,0,0,0-.17L17.74.34A.3.3,0,0,1,18,0a.25.25,0,0,1,.17,0L19.91,1A.45.45,0,0,0,20.07,1Z" style="fill:#f7931a"/>
    <path d="M26.51,4.64l-1-.5a.15.15,0,0,0-.21.07.19.19,0,0,0,0,.08l.08,1.07a.12.12,0,0,1,0,.1l-.5.94a.16.16,0,0,0,.08.21l.06,0,1.08-.1a.1.1,0,0,1,.1,0l.94.5A.17.17,0,0,0,27.37,7a.13.13,0,0,0,0-.08l-.1-1.08a.15.15,0,0,1,0-.1l.52-.94a.16.16,0,0,0-.07-.22.11.11,0,0,0-.08,0l-1.08.08-.1,0Z" style="fill:#f3c100"/>
</svg>
