<svg width="120" height="120" viewBox="0 0 120 120" fill="none" xmlns="http://www.w3.org/2000/svg">
<mask id="mask0" mask-type="alpha" maskUnits="userSpaceOnUse" x="0" y="0" width="120" height="120">
<path d="M120 120L0 120L1.43099e-06 -1.66898e-05C66.2308 -1.59e-05 120 53.7692 120 120Z" fill="#272754"/>
</mask>
<g mask="url(#mask0)">
<path d="M63.8275 77.1443C68.4393 69.7958 75.3779 59.2996 84.9131 46.6992C85.8593 45.2057 85.6798 43.3601 84.528 42.2678C83.3214 41.1208 81.3544 41.1174 79.9109 42.2325C65.5927 59.4516 58.4199 68.0475 58.3925 68.0201C58.3925 68.0201 65.5082 59.4266 79.7669 42.2671C82.1102 40.088 82.02 36.7846 80.309 35.4306C78.9834 34.4026 76.7558 34.4956 74.96 35.8535C57.2454 55.2101 48.3459 64.8759 48.2911 64.8212C48.2364 64.7665 56.7313 55.2316 73.8604 36.2416C74.496 34.6755 74.5949 32.9893 73.7489 32.0838C72.5246 30.681 69.1248 30.8514 66.5566 33.6386C49.6775 52.105 41.1969 61.2972 41.1148 61.2151C41.06 61.1603 46.8951 54.559 58.6473 41.4384C58.7163 41.1504 59.227 39.162 58.1621 38.0375C56.933 36.7489 53.9628 36.8729 51.6445 39.1365C38.7416 51.8204 28.6604 61.7922 21.4271 68.4234C18.878 70.7536 13.8714 75.2676 10.8541 82.6636C9.61742 85.6517 9.05074 88.2983 8.77569 90.1059C3.26916 95.6672 -2.26474 101.201 -7.77127 106.762C-5.92012 111.589 -1.84283 119.772 6.97796 124.963C8.7307 126.001 10.4656 126.784 12.1232 127.371C15.2841 124.046 18.445 120.721 21.638 117.309C24.0848 114.698 26.5019 112.116 28.8916 109.508C30.2839 108.936 32.3962 108.193 35.0725 107.596C42.009 106.023 44.3757 107.379 48.5623 105.436C50.8602 104.342 49.3204 104.35 55.5682 99.4702C55.5682 99.4702 62.7883 93.8374 64.501 90.3732C64.8104 89.7901 64.9759 89.2415 64.9759 89.2415C65.2032 88.5763 65.2271 88.0051 65.8985 85.5822C67.5126 79.6989 70.176 77.3639 69.1504 75.9812C68.3663 74.9591 66.323 75.4151 65.9779 75.4865C64.9998 75.6984 63.893 76.2578 60.9261 79.7173C59.9371 80.8705 58.703 82.433 57.3105 84.3728C56.8452 85.2761 55.6812 87.2063 53.3939 88.7273C51.2828 90.1269 49.2717 90.496 48.3256 90.621C46.7145 89.605 43.8682 88.1273 39.9259 87.6362C35.3053 87.0023 31.4699 88.0463 29.504 88.6986C33.5937 91.1222 42.2516 95.4362 50.5186 92.0405C56.2914 89.6612 59.0943 84.669 63.8275 77.1443Z" fill="url(#paint0_linear)"/>
<path d="M63.8275 77.1443C68.4393 69.7958 75.3779 59.2996 84.9131 46.6992C85.8593 45.2057 85.6798 43.3601 84.528 42.2678C83.3214 41.1208 81.3544 41.1174 79.9109 42.2325C65.5927 59.4516 58.4199 68.0475 58.3925 68.0201C58.3925 68.0201 65.5082 59.4266 79.7669 42.2671C82.1102 40.088 82.02 36.7846 80.309 35.4306C78.9834 34.4026 76.7558 34.4956 74.96 35.8535C57.2454 55.2101 48.3459 64.8759 48.2911 64.8212C48.2364 64.7665 56.7313 55.2316 73.8604 36.2416C74.496 34.6755 74.5949 32.9893 73.7489 32.0838C72.5246 30.681 69.1248 30.8514 66.5566 33.6386C49.6775 52.105 41.1969 61.2972 41.1148 61.2151C41.06 61.1603 46.8951 54.559 58.6473 41.4384C58.7163 41.1504 59.227 39.162 58.1621 38.0375C56.933 36.7489 53.9628 36.8729 51.6445 39.1365C38.7416 51.8204 28.6604 61.7922 21.4271 68.4234C18.878 70.7536 13.8714 75.2676 10.8541 82.6636C9.61742 85.6517 9.05074 88.2983 8.77569 90.1059C3.26916 95.6672 -2.26474 101.201 -7.77127 106.762C-5.92012 111.589 -1.84283 119.772 6.97796 124.963C8.7307 126.001 10.4656 126.784 12.1232 127.371C15.2841 124.046 18.445 120.721 21.638 117.309C24.0848 114.698 26.5019 112.116 28.8916 109.508C30.2839 108.936 32.3962 108.193 35.0725 107.596C42.009 106.023 44.3757 107.379 48.5623 105.436C50.8602 104.342 49.3204 104.35 55.5682 99.4702C55.5682 99.4702 62.7883 93.8374 64.501 90.3732C64.8104 89.7901 64.9759 89.2415 64.9759 89.2415C65.2032 88.5763 65.2271 88.0051 65.8985 85.5822C67.5126 79.6989 70.176 77.3639 69.1504 75.9812C68.3663 74.9591 66.323 75.4151 65.9779 75.4865C64.9998 75.6984 63.893 76.2578 60.9261 79.7173C59.9371 80.8705 58.703 82.433 57.3105 84.3728C56.8452 85.2761 55.6812 87.2063 53.3939 88.7273C51.2828 90.1269 49.2717 90.496 48.3256 90.621C46.7145 89.605 43.8682 88.1273 39.9259 87.6362C35.3053 87.0023 31.4699 88.0463 29.504 88.6986C33.5937 91.1222 42.2516 95.4362 50.5186 92.0405C56.2914 89.6612 59.0943 84.669 63.8275 77.1443Z" fill="url(#paint1_linear)"/>
<path d="M64.323 75.8095C71.2896 65.9836 78.2264 56.1875 85.1358 46.3639C86.0816 44.8683 85.898 43.0174 84.741 41.9199C83.529 40.7675 81.5567 40.7603 80.1115 41.8756C65.7885 59.1129 58.6132 67.7178 58.5857 67.6903C58.5857 67.6903 65.7037 59.0877 79.9672 41.9099C82.2827 39.7594 82.1859 36.447 80.4677 35.0861C79.1366 34.0527 76.9032 34.1417 75.1052 35.4997C57.3809 54.8737 48.4763 64.548 48.4214 64.493C48.3664 64.4381 56.8655 54.8942 74.0035 35.8867C74.6377 34.3177 74.7336 32.6271 73.8836 31.7176C72.6533 30.3086 69.2448 30.473 66.6751 33.2626C49.7867 51.7456 41.3013 60.9458 41.2188 60.8633C41.1638 60.8084 47.0016 54.2007 58.7598 41.0679C58.8285 40.7793 59.3367 38.7865 58.2667 37.657C57.0318 36.3625 54.0539 36.4811 51.7338 38.7462C38.8211 51.439 28.7323 61.4178 21.4926 68.0527C18.9411 70.3842 13.9299 74.9006 10.9189 82.3105C9.68473 85.3042 9.12168 87.9567 8.8494 89.7686L-8.07072 107.04M12.2781 127.14C15.441 123.812 18.6039 120.484 21.7988 117.069C24.2471 114.456 26.6656 111.872 29.0567 109.261C30.4516 108.691 32.5681 107.949 35.2504 107.357C42.2024 105.793 44.5781 107.157 48.772 105.217C51.0739 104.125 49.53 104.129 55.7851 99.2487C55.7851 99.2487 63.0135 93.6149 64.7241 90.1447C65.0332 89.5607 65.198 89.0109 65.198 89.0109C65.4247 88.3444 65.4475 87.7717 66.116 85.3437C67.723 79.4477 70.389 77.1117 69.3579 75.7233C68.5698 74.697 66.522 75.1502 66.1761 75.2211C65.1957 75.4317 64.0871 75.9904 61.119 79.4535C60.1296 80.6078 58.8952 82.1721 57.5028 84.1144C57.0379 85.0191 55.8746 86.9523 53.5841 88.4729C51.4701 89.8722 49.4543 90.2383 48.506 90.3619C46.8886 89.3399 44.0318 87.8528 40.078 87.3527C35.4438 86.7082 31.6002 87.7476 29.6303 88.3978" stroke="#8B8ECE" stroke-miterlimit="10" stroke-linecap="round" stroke-linejoin="round"/>
<path d="M9.22187 89.7493C9.75302 90.2804 11.266 91.4019 13.0688 91.6387" stroke="#8B8ECE" stroke-miterlimit="10" stroke-linecap="round" stroke-linejoin="round"/>
</g>
<defs>
<linearGradient id="paint0_linear" x1="83.8057" y1="38.9003" x2="1.64852" y2="121.058" gradientUnits="userSpaceOnUse">
<stop stop-color="#5E60A6"/>
<stop offset="1" stop-color="#26274D" stop-opacity="0"/>
</linearGradient>
<linearGradient id="paint1_linear" x1="83.8057" y1="38.9003" x2="1.64852" y2="121.058" gradientUnits="userSpaceOnUse">
<stop stop-color="#5E60A6"/>
<stop offset="1" stop-color="#272856"/>
</linearGradient>
</defs>
</svg>
