<svg width="140" height="140" viewBox="0 0 140 140" fill="none" xmlns="http://www.w3.org/2000/svg">
<mask id="mask0" mask-type="alpha" maskUnits="userSpaceOnUse" x="0" y="0" width="140" height="140">
<circle cx="70" cy="70" r="70" fill="#C4C4C4"/>
</mask>
<g mask="url(#mask0)">
<path d="M46.049 143.13C46.049 143.13 49.0637 127.095 49.7679 117.283C50.774 103.266 50.1086 90.9529 48.8333 81.0686C48.7483 73.1473 48.9718 64.6374 49.6257 55.5261C50.1504 47.5414 50.9619 39.9441 51.9527 32.8847C52.5983 31.9827 53.244 31.0808 54.0116 30.1661C57.0816 28.8727 61.8014 26.851 67.5613 24.1646C72.9697 21.6539 73.7803 21.1521 76.3769 20.0471C82.3017 17.7609 93.2761 14.2534 94.5525 17.0422C95.0329 18.1052 93.9568 19.6085 93.4331 20.4977C91.8333 22.8903 89.208 23.72 86.9846 23.6732C86.6188 23.7113 86.2386 23.6117 86.2386 23.6117C88.046 24.3975 89.8345 24.7083 91.6418 25.4941C95.5114 27.5955 97.4277 29.7467 101.057 34.1332C100.612 34.5969 99.7001 35.7084 98.6677 36.209C97.5559 36.1856 95.9845 35.536 95.8122 36.2495C95.6257 36.8255 97.3252 37.4549 98.3364 38.88C100.086 41.4804 101.535 44.6439 102.503 48.0213C102.89 49.3722 104.564 51.6459 101.778 50.9324C100.25 51.6479 99.0306 51.7749 98.1627 51.7261C95.909 50.8988 94.3456 47.4722 89.9441 43.8166C88.7104 43.8059 87.8139 43.4819 87.1755 43.2701C85.5044 42.6092 84.4143 41.6097 82.5997 41.9377C82.4777 41.9504 82.3558 41.9631 82.3558 41.9631C81.5452 42.4649 80.2612 43.155 78.5971 43.7456C76.0005 44.8506 75.1994 45.3873 73.9727 46.628C73.2984 47.2547 72.279 48.4618 71.7337 50.3272C71.2746 50.6532 69.6968 51.7725 69.266 54.7389C68.9932 56.8542 69.1346 58.2257 69.4501 58.8885C69.8086 59.9642 71.0036 62.2802 73.3201 64.4042C75.364 66.2783 77.1953 66.9864 78.0775 67.1728C79.9318 67.2265 88.6899 60.8047 94.3824 54.4847C97.5747 53.1823 97.9332 51.8891 100.63 51.7475C102.459 51.5571 106.897 51.8097 107.449 53.5609C107.643 54.2364 106.892 55.7158 105.723 57.507C104.661 59.1479 102.798 60.7376 100.965 63.907C100.298 65.7851 98.6679 67.3842 97.1758 69.6264C93.8829 74.6994 89.8319 77.0793 87.1707 78.7476C84.3156 81.1911 81.0593 81.6097 77.6302 86.5578C74.0934 91.6562 73.2966 97.0259 73.16 99.2662C73.1234 104.835 73.4452 111.48 74.477 119.024C75.6881 127.106 79.3372 139.665 79.3372 139.665C79.3372 139.665 69.5455 146.09 62.4999 146.643C56.0052 147.153 46.049 143.13 46.049 143.13Z" fill="url(#paint0_linear)"/>
<path d="M87.928 23.7762C88.8448 23.5414 89.3103 23.4929 90.3291 23.1081C93.8509 21.9053 94.8313 17.7613 93.8875 16.6051C93.0887 15.7127 88.8685 16.9882 87.2391 17.1578C82.2202 17.5408 75.0763 21.0812 74.0575 21.466" stroke="#FF7475" stroke-miterlimit="10" stroke-linecap="round"/>
<path d="M50.214 50.0024C50.7263 45.2102 51.253 40.556 51.7654 35.7638C51.7223 35.3502 51.6177 33.1311 53.4317 31.1303C54.5673 29.8971 55.8997 29.3403 56.3855 29.1504C63.2154 26.7669 68.0304 24.4538 71.513 22.6976C73.6775 21.636 76.2992 20.1087 79.2469 20.4988C79.3719 20.4858 81.0692 21.006 84.2423 22.3482C85.4394 22.9205 87.151 23.5786 89.2521 24.3355C93.3292 25.8624 95.2131 28.1751 97.1502 29.7854C98.8761 30.5814 101.303 33.2556 101.014 34.122C100.643 35.415 98.7 36.1748 97.1708 36.0552C95.7811 36.0605 94.8197 35.3243 94.2765 34.9627" stroke="#FF7475" stroke-width="0.8637" stroke-miterlimit="10" stroke-linecap="round"/>
<path d="M79.2642 139.664C69.7624 103.021 73.5685 89.8025 79.3612 84.7395C83.0754 81.5654 91.6763 76.7676 97.6001 69.3215C99.164 67.3468 100.291 63.6057 103.241 60.3718C106.191 57.1378 107.629 55.1761 107.472 53.6594C107.203 52.2936 104.891 50.7224 101.558 51.4875C98.3499 52.2395 95.5068 54.0686 93.1639 55.8456C90.821 57.6226 89.1894 60.1618 88.5786 60.3648C87.9678 60.5678 80.9576 67.2907 78.8032 67.2361C76.6488 67.1816 72.1494 64.0262 70.204 59.908C68.2443 55.6519 69.2548 54.4317 71.0934 51.4528C73.0571 48.4609 73.3563 46.4785 74.4243 45.8098C75.4922 45.1411 79.1859 44.1991 83.0539 41.2878C84.3186 41.2955 87.4528 43.478 90.8863 43.6781C91.6796 44.0137 93.8074 48.6704 96.3984 50.4914C98.9894 52.3123 102.587 51.6591 103.433 51.2922C103.429 50.0383 100.883 45.007 100.855 44.7312C99.4339 39.5828 97.6895 37.3949 95.5023 35.8107C93.1757 34.1016 87.1717 29.8484 85.1239 28.389C82.9367 26.8048 79.3434 28.7119 74.4177 31.1759C69.4921 33.6399 60.5017 38.3389 56.6297 39.9963C55.2973 40.5531 54.3544 41.2088 53.5509 41.9893C50.6013 45.2232 50.1996 49.8645 50.1361 51.683C49.0073 76.052 48.366 88.1052 49.2128 96.2403C50.2503 107.422 50.386 123.297 45.6288 143.165" stroke="#FF7475" stroke-miterlimit="10" stroke-linecap="round"/>
<path opacity="0.2" d="M46.0034 143.126C46.0034 143.126 49.0151 127.063 49.7176 117.234C50.7211 103.192 48.892 91.5837 48.7762 80.9543C48.6897 73.0188 48.9116 64.4938 49.5639 55.3664C50.0871 47.3674 50.8972 39.7568 51.8867 32.6849C52.5322 31.7815 53.1777 30.878 53.9451 29.9619C57.015 28.6667 61.7345 26.6423 67.494 23.9522C72.9021 21.438 73.7125 20.9355 76.309 19.829C82.2335 17.5398 93.2075 14.0281 94.4844 16.8221C94.965 17.8871 93.8892 19.3928 93.3656 20.2836C91.7662 22.6801 89.1411 23.5108 86.9175 23.4635C86.5517 23.5016 86.2935 23.3891 86.1716 23.4018C87.9791 24.1893 89.801 25.1147 91.6086 25.9022C95.4786 28.0081 97.362 29.5498 100.992 33.9448C100.547 34.4092 99.6355 35.5225 98.6032 36.0239C97.4914 36.0002 95.9198 35.3491 95.7477 36.0639C95.5613 36.6409 97.261 37.2717 98.2724 38.6996C100.023 41.305 101.472 44.4743 102.44 47.8579C102.828 49.2114 104.502 51.4894 101.716 50.7741C100.188 51.4907 98.969 51.6176 98.1011 51.5685C95.8472 50.7394 94.2831 47.3064 89.8808 43.6435C88.6471 43.6325 87.7505 43.3077 87.1122 43.0954C85.4409 42.4331 84.3506 41.4316 82.5359 41.7598C82.414 41.7725 82.2921 41.7852 82.2921 41.7852C81.4816 42.2877 80.1977 42.9788 78.5337 43.5702C75.9372 44.6767 75.1362 45.2142 73.9097 46.4569C73.2355 47.0846 72.2164 48.2936 71.6713 50.1623C71.2123 50.4888 69.6347 51.6097 69.2045 54.5814C68.932 56.7004 69.0737 58.0744 69.3893 58.7384C69.748 59.8161 70.9435 62.1365 73.2603 64.2647C75.3046 66.1426 77.1362 66.8522 78.0184 67.0391C79.8728 67.0933 88.6298 60.6616 94.3213 54.3314C95.7916 53.0633 97.8716 51.7318 100.569 51.5905C102.398 51.4001 106.836 51.654 107.388 53.4084C107.582 54.0851 106.832 55.567 105.663 57.3612C104.601 59.0049 103.129 61.4496 100.906 63.7717C100.239 65.653 98.4461 66.7247 96.9543 68.9706C93.6623 74.0521 89.7749 76.9655 87.1139 78.6363C85.2204 79.3909 81.003 81.5024 77.5747 86.4587C74.0388 91.5655 73.2429 96.9447 73.1067 99.1889C73.0712 104.768 73.3943 111.424 74.4275 118.982C75.6401 127.079 79.2916 139.661 79.2916 139.661C79.2916 139.661 69.5009 146.095 62.4553 146.649C55.9606 147.158 46.0034 143.126 46.0034 143.126Z" fill="#FF7475"/>
</g>
<defs>
<linearGradient id="paint0_linear" x1="68.431" y1="18.3793" x2="81.5757" y2="144.662" gradientUnits="userSpaceOnUse">
<stop stop-color="#5E60A6"/>
<stop offset="1" stop-color="#26274D" stop-opacity="0"/>
</linearGradient>
</defs>
</svg>
