<svg width="141" height="140" viewBox="0 0 141 140" fill="none" xmlns="http://www.w3.org/2000/svg">
<mask id="mask0" mask-type="alpha" maskUnits="userSpaceOnUse" x="0" y="0" width="141" height="140">
<circle cx="70.871" cy="70" r="70" fill="#C4C4C4"/>
</mask>
<g mask="url(#mask0)">
<path d="M89.7001 136.06C89.7001 136.118 89.6435 136.118 89.5868 136.176C84.2071 143.493 75.9959 145.699 75.4296 145.873C65.6895 148.37 57.8181 143.609 56.3457 142.68C57.4783 137.512 58.441 131.125 58.441 123.692C58.441 119.569 58.1579 115.737 57.7048 112.369C53.7975 109.35 51.4757 106.156 50.1732 104.066C46.0393 97.3881 42.3018 85.7748 46.6622 79.2714C47.5683 77.9358 48.7575 76.8326 49.6069 74.3938C50.1732 72.7679 50.2865 71.2001 50.0033 66.3226C49.8901 64.116 49.6636 61.2127 49.2672 57.8449C48.984 56.161 48.4743 53.4899 47.7382 50.2382C45.9261 42.1089 44.3971 38.1604 42.6416 31.4828C41.7922 28.0568 40.6029 23.0631 39.6403 16.7339C40.3764 14.4693 41.2825 13.2499 42.3018 13.0757C45.2465 12.6693 49.3804 20.9147 54.7035 37.812C56.5156 41.8766 58.3278 45.9993 60.1965 50.064C60.4796 50.6446 61.0459 51.806 62.2918 52.7931C63.8207 54.0125 65.463 54.2448 66.1425 54.3028C67.2185 45.8251 68.4077 37.1733 69.7101 28.3472C70.7861 21.0889 71.9753 13.9467 73.1645 6.97875C73.9007 6.16582 74.5802 5.29483 75.3164 4.4819C76.5056 4.42383 77.6382 4.3077 78.8274 4.24963C79.5069 5.35289 80.1865 6.45616 80.866 7.55942C80.9226 11.566 80.866 17.663 80.2997 25.0955C79.1671 40.1927 76.6189 52.5608 79.2804 53.4899C80.9793 54.1286 80.7977 48.6515 86.812 49.5414C89.5868 49.6575 91.6821 52.2124 92.9846 54.1867C92.8713 55.1158 92.8147 56.0448 92.7014 56.9739C91.9652 59.4127 92.2484 60.2256 92.6448 60.574C93.5509 61.3289 95.363 59.4707 97.5149 60.1095C98.874 60.5159 99.6668 61.7353 100.12 62.4902C102.838 66.8452 100.969 74.568 100.516 76.368C98.1378 85.6587 95.5895 92.6266 94.9099 94.6009C90.7194 106.214 88.0579 107.003 88.0579 117.189C87.4349 121.834 87.4349 128.221 89.7001 136.06Z" fill="url(#paint0_linear)"/>
<path opacity="0.2" d="M89.7001 136.06C89.7001 136.118 89.6435 136.118 89.5868 136.176C91.871 138.994 85.6604 140.922 75.1787 141.148C64.697 141.374 58.3434 139.385 56.871 138.456C58.0036 133.288 58.441 131.125 58.441 123.692C58.441 119.569 58.1579 115.737 57.7048 112.369C53.7975 109.35 51.4757 106.156 50.1732 104.066C46.0393 97.3881 42.3018 85.7748 46.6622 79.2714C47.5683 77.9358 48.7575 76.8326 49.6069 74.3938C50.1732 72.7679 50.2865 71.2001 50.0033 66.3226C49.8901 64.116 49.6636 61.2127 49.2672 57.8449C48.984 56.161 48.4743 53.4899 47.7382 50.2382C45.9261 42.1089 44.3971 38.1604 42.6416 31.4828C41.7922 28.0568 40.6029 23.0631 39.6403 16.7339C40.3764 14.4693 41.2825 13.2499 42.3018 13.0757C45.2465 12.6693 49.3804 20.9147 54.7035 37.812C56.5156 41.8766 58.3278 45.9993 60.1965 50.064C60.4796 50.6447 61.0459 51.806 62.2918 52.7931C63.8207 54.0125 65.463 54.2448 66.1425 54.3028C67.2185 45.8251 68.4077 37.1733 69.7101 28.3472C70.7861 21.0889 71.9753 13.9467 73.1645 6.97875C73.9007 6.16582 74.5802 5.29483 75.3164 4.4819C76.5056 4.42383 77.6382 4.3077 78.8274 4.24963C79.5069 5.35289 80.1865 6.45616 80.866 7.55942C80.9226 11.566 80.866 17.663 80.2997 25.0955C79.1671 40.1927 76.6189 52.5608 79.2804 53.4899C80.9793 54.1286 80.2681 48.4681 86.812 49.5414C89.5868 49.6575 91.6821 52.2124 92.9846 54.1867C92.8713 55.1158 92.8147 56.0448 92.7014 56.9739C91.9652 59.4127 92.2484 60.2256 92.6448 60.574C93.5509 61.3289 95.363 59.4707 97.5149 60.1095C98.874 60.5159 99.6668 61.7353 100.12 62.4902C102.838 66.8452 100.969 74.568 100.516 76.368C98.1378 85.6587 95.5895 92.6266 94.9099 94.6009C90.7194 106.214 88.0579 106.736 88.0579 117.189C87.4349 121.834 87.4349 128.221 89.7001 136.06Z" fill="#FF7475"/>
<path d="M56.2296 142.39C59.9671 120.208 59.0044 113.356 56.9658 111.963C56.7393 111.847 55.6633 111.092 54.3042 109.814C53.6813 109.176 52.209 107.666 50.68 104.995C46.3762 97.3881 45.7533 88.504 45.7533 88.504C45.7533 84.7297 45.3003 82.1748 46.5461 79.2714C47.3955 77.2972 47.8486 77.5295 50.9065 73.5229C55.2669 67.8324 55.8332 65.3355 58.8912 64.4065C59.0611 64.3484 58.9478 64.4065 62.3455 63.9419C63.648 63.7677 67.159 63.3032 68.6313 63.0709C76.1629 61.8515 78.8245 59.2386 80.4101 60.6902C81.5993 61.7935 81.1463 64.1161 80.9198 65.1033C80.2402 68.6453 77.2955 70.6196 75.8798 71.5486C71.8592 74.2777 67.612 74.1035 65.9131 73.9293C65.8565 75.4391 65.63 77.7617 64.554 80.3747C62.9118 84.2071 60.3069 86.4136 59.0044 87.3427" stroke="#FF7475" stroke-miterlimit="10" stroke-linecap="round" stroke-linejoin="round"/>
<path d="M49.4341 75.0326C50.057 66.9033 49.5473 60.2837 48.981 55.4642L40.3735 22.6567C40.2602 22.3664 38.3348 16.0372 41.2229 13.5403C41.5627 13.25 41.9024 12.9597 42.4121 12.9016C45.7532 12.4371 49.2075 21.9599 49.2075 21.9599C54.5873 38.5088 59.514 50.2963 61.6659 52.2706C62.8551 53.3738 64.0443 53.8384 64.0443 53.8384C64.0443 53.8384 65.0636 54.2448 68.6878 54.419" stroke="#FF7475" stroke-miterlimit="10" stroke-linecap="round" stroke-linejoin="round"/>
<path d="M65.9131 54.0125L72.5386 9.18533C72.5386 9.18533 72.9917 4.07549 77.3521 3.84322C81.7125 3.66903 80.9197 12.1467 80.9197 12.1467L78.2581 51.3415C78.2581 51.5737 78.3148 52.1544 78.7112 52.7931C79.051 53.3157 79.504 53.548 79.7305 53.6061" stroke="#FF7475" stroke-miterlimit="10" stroke-linecap="round" stroke-linejoin="round"/>
<path d="M78.7678 59.8772C78.7678 59.8772 79.504 53.8383 80.4101 52.3286C80.6932 51.806 81.7125 50.6447 83.4114 49.9479C84.0909 49.6575 86.2994 48.8446 88.7345 49.9479C90.8298 50.8769 91.7924 52.6189 92.0756 53.1996C92.0756 53.1996 93.0383 54.2448 92.4154 57.4384C91.7924 60.6901 91.7924 60.6901 91.7924 60.6901C92.6419 60.4579 96.3794 59.4127 98.8144 61.5031C100.004 62.5482 100.627 64.116 100.91 66.4387C101.759 74.568 97.5686 87.1103 96.436 90.4782C96.436 90.4782 89.5839 105.924 89.2441 107.201C88.508 110.337 86.1296 117.711 89.5839 136.06" stroke="#FF7475" stroke-miterlimit="10" stroke-linecap="round" stroke-linejoin="round"/>
<path d="M75.9929 71.5486C75.9929 71.5486 73.7278 82.0005 73.6712 82.9296C73.6145 83.8586 73.1615 86.8781 74.6339 87.9813C76.1062 89.0846 78.3147 89.3749 79.9003 88.5039C81.0329 87.8652 81.5426 86.8781 81.7125 86.5297C83.1282 83.6844 87.0356 73.9293 91.9056 60.574C89.3007 67.4839 86.6392 74.3358 84.0342 81.2456C83.8643 81.7682 83.6945 82.465 83.6945 83.3941C83.6945 83.7425 83.6945 86.6458 85.2801 87.5168C86.6392 88.2717 88.5079 87.0523 89.0742 86.762C91.5659 85.1942 92.6984 82.2908 94.907 76.5423C95.2467 75.6713 96.0395 73.5809 97.6818 71.1421C97.9649 70.6776 98.2481 70.3292 98.4179 70.0969" stroke="#FF7475" stroke-miterlimit="10" stroke-linecap="round" stroke-linejoin="round"/>
<path d="M56.0032 111.266C56.8526 111.556 57.8719 111.789 59.0045 111.905C60.7034 112.137 62.2323 112.079 63.4215 111.905" stroke="#FF7475" stroke-miterlimit="10" stroke-linecap="round" stroke-linejoin="round"/>
</g>
<defs>
<linearGradient id="paint0_linear" x1="70.6022" y1="4.24963" x2="70.6022" y2="146.589" gradientUnits="userSpaceOnUse">
<stop stop-color="#5E60A6"/>
<stop offset="1" stop-color="#26274D" stop-opacity="0"/>
</linearGradient>
</defs>
</svg>
