<svg width="138" height="144" viewBox="0 0 138 144" fill="none" xmlns="http://www.w3.org/2000/svg">
<path d="M88.5835 55.272C86.3045 45.3121 83.3419 30.7935 80.7895 12.3604C80.3337 10.3288 78.6473 8.94134 76.7785 8.99089C74.8186 9.04044 73.1778 10.6756 72.9043 12.8064C75.32 39.0686 76.5051 52.1998 76.4595 52.1998C76.4595 52.1998 75.2288 39.1182 72.8132 12.955C72.9499 9.1891 70.124 6.51332 67.5716 6.81063C65.6117 7.05838 63.8341 8.99089 63.4695 11.6171C64.8369 42.4877 65.475 57.9478 65.3838 57.9478C65.2926 57.9478 64.4267 42.9337 62.877 12.8559C62.1021 11.0225 60.7803 9.53596 59.3218 9.48641C57.134 9.33775 54.4449 12.3108 54.6272 16.7705C55.949 46.2041 56.5415 60.9209 56.4048 60.9209C56.3136 60.9209 55.6755 50.5646 54.536 29.8521C54.3537 29.5548 53.1231 27.4736 51.2999 27.424C49.2033 27.3745 46.8332 29.9512 46.7876 33.7666C46.6053 55.0738 46.5141 71.7726 46.0128 83.3181C45.8305 87.3814 45.4203 95.3096 49.0666 103.981C50.5251 107.499 52.2571 110.175 53.5333 111.909C53.5789 121.126 53.5789 130.343 53.6245 139.559C59.1851 142.037 69.3948 145.456 81.0629 142.433C83.3875 141.838 85.4841 141.046 87.3528 140.154C87.2161 134.753 87.0794 129.351 86.897 123.851C86.7603 119.639 86.6236 115.477 86.4413 111.315C87.1249 109.68 88.2644 107.301 89.9964 104.576C94.4631 97.4899 97.5625 96.6475 99.4312 91.5437C100.434 88.7192 99.1578 90.0076 100.297 80.7415C100.297 80.7415 101.619 70.0383 100.161 65.7274C99.9326 64.9841 99.6136 64.3895 99.6136 64.3895C99.2489 63.6462 98.7931 63.1507 97.3346 60.574C93.7795 54.3305 94.0529 50.1682 92.0475 49.8709C90.5434 49.6727 89.2216 51.7538 88.9937 52.1007C88.3556 53.0917 87.8998 54.4792 88.31 59.8307C88.4467 61.6146 88.7202 63.9435 89.176 66.7184C89.5406 67.8581 90.1787 70.4347 89.5406 73.606C88.9481 76.5296 87.5807 78.5116 86.897 79.4036C84.7093 79.8991 81.1085 81.0388 77.4166 83.9128C73.0411 87.2327 70.7165 91.2959 69.6226 93.4762C75.0465 92.0887 85.8487 88.4715 89.9053 78.7594C92.7311 71.9708 90.908 65.4796 88.5835 55.272Z" fill="url(#paint0_linear)"/>
<path opacity="0.2" d="M88.5835 55.272C86.3045 45.3121 83.3419 30.7935 80.7895 12.3604C80.3337 10.3288 78.6473 8.94134 76.7785 8.99089C74.8186 9.04044 73.1778 10.6756 72.9043 12.8064C75.32 39.0686 76.5051 52.1998 76.4595 52.1998C76.4595 52.1998 75.2288 39.1182 72.8132 12.955C72.9499 9.1891 70.124 6.51332 67.5716 6.81063C65.6117 7.05838 63.8341 8.99089 63.4695 11.6171C64.8369 42.4877 65.475 57.9478 65.3838 57.9478C65.2926 57.9478 64.4267 42.9337 62.877 12.8559C62.1021 11.0225 60.7803 9.53596 59.3218 9.48641C57.134 9.33775 54.4449 12.3108 54.6272 16.7705C55.949 46.2041 56.5415 60.9209 56.4048 60.9209C56.3136 60.9209 55.6755 50.5646 54.536 29.8521C54.3537 29.5548 53.1231 27.4736 51.2999 27.424C49.2033 27.3745 46.8332 29.9512 46.7876 33.7666C46.6053 55.0738 46.5141 71.7726 46.0128 83.3181C45.8305 87.3814 45.4203 95.3096 49.0666 103.981C50.5251 107.499 52.2571 110.175 53.5333 111.909C53.5789 121.126 53.5789 130.343 53.6245 139.559C59.1851 142.037 69.3948 145.456 81.0629 142.433C83.3875 141.838 85.4841 141.046 87.3528 140.154C87.2161 134.753 87.0794 129.351 86.897 123.851C86.7603 119.639 86.6236 115.477 86.4413 111.315C87.1249 109.68 88.2644 107.301 89.9964 104.576C94.4631 97.4899 97.5625 96.6475 99.4312 91.5437C100.434 88.7192 99.1578 90.0076 100.297 80.7415C100.297 80.7415 101.619 70.0383 100.161 65.7274C99.9326 64.9841 99.6136 64.3895 99.6136 64.3895C99.2489 63.6462 98.7931 63.1507 97.3346 60.574C93.7795 54.3305 94.0529 50.1682 92.0475 49.8709C90.5434 49.6727 89.2216 51.7538 88.9937 52.1007C88.3556 53.0917 87.8998 54.4792 88.31 59.8307C88.4467 61.6146 88.7202 63.9435 89.176 66.7184C89.5406 67.8581 90.1787 70.4347 89.5406 73.606C88.9481 76.5296 87.5807 78.5116 86.897 79.4036C84.7093 79.8991 81.1085 81.0388 77.4166 83.9128C73.0411 87.2327 70.7165 91.2959 69.6226 93.4762C75.0465 92.0887 85.8487 88.4715 89.9053 78.7594C92.7311 71.9708 90.908 65.4796 88.5835 55.272Z" fill="#FF7475"/>
<path d="M87.8859 53.748C85.5048 39.7642 83.1238 25.8301 80.697 11.8959C80.2391 9.86284 78.5449 8.47439 76.6676 8.52398C74.6986 8.57356 73.0502 10.21 72.7755 12.3422C75.2023 38.6237 76.3928 51.7645 76.347 51.7645C76.347 51.7645 75.1107 38.6733 72.6839 12.491C72.8213 8.77191 69.9824 6.09418 67.4182 6.3917C65.4492 6.63964 63.6635 8.57356 63.2971 11.2017C64.6708 42.0949 65.3119 57.5662 65.2203 57.5662C65.1287 57.5662 64.2587 42.5412 62.7019 12.4414C61.9235 10.6067 60.5956 9.11903 59.1303 9.06944C56.9325 8.92068 54.2309 11.8959 54.4141 16.3588C55.742 45.814 56.3372 60.5415 56.1998 60.5415C56.1083 60.5415 55.4672 50.1777 54.3225 29.45C54.1393 29.1525 52.903 27.0698 51.0715 27.0202C48.9652 26.9706 46.5841 29.5492 46.5384 33.3674C46.3552 54.6902 46.2636 71.4012 45.7599 82.9552C45.5768 87.0214 45.1647 94.9554 48.8278 103.633C50.2931 107.154 52.033 109.832 53.3151 111.567L53.6077 140.04M87.2906 139.832C87.1532 134.427 87.0159 129.022 86.8327 123.518C86.6954 119.303 86.558 115.138 86.3748 110.972C87.0617 109.336 88.2064 106.956 89.9464 104.228C94.4337 97.1373 97.5474 96.2943 99.4247 91.1867C100.432 88.3602 99.15 89.6495 100.295 80.3766C100.295 80.3766 101.623 69.6656 100.157 65.3515C99.9284 64.6077 99.6079 64.0126 99.6079 64.0126C99.2416 63.2688 98.7837 62.773 97.3184 60.1944C93.7469 53.9463 94.0216 49.781 92.0069 49.4834C90.4959 49.2851 89.168 51.3678 88.939 51.7149C88.298 52.7066 87.8401 54.0951 88.2522 59.4506C88.3896 61.2357 88.6643 63.5664 89.1222 66.3433C89.4885 67.4838 90.1295 70.0624 89.4885 73.236C88.8932 76.1616 87.5196 78.1452 86.8327 79.0377C84.6349 79.5336 81.0175 80.6741 77.3086 83.5502C72.9129 86.8726 70.5776 90.9388 69.4787 93.1207" stroke="#FF7475" stroke-miterlimit="10" stroke-linecap="round" stroke-linejoin="round"/>
<path d="M53.6077 111.241C54.4923 111.241 56.6862 110.915 58.3846 109.611" stroke="#FF7475" stroke-linecap="round"/>
<defs>
<linearGradient id="paint0_linear" x1="73.3729" y1="6.78809" x2="73.3729" y2="143.619" gradientUnits="userSpaceOnUse">
<stop stop-color="#5E60A6"/>
<stop offset="1" stop-color="#26274D" stop-opacity="0"/>
</linearGradient>
</defs>
</svg>
