<svg width="140" height="140" viewBox="0 0 140 140" fill="none" xmlns="http://www.w3.org/2000/svg">
<mask id="mask0" mask-type="alpha" maskUnits="userSpaceOnUse" x="0" y="0" width="140" height="140">
<circle cx="70" cy="70" r="70" fill="#C4C4C4"/>
</mask>
<g mask="url(#mask0)">
<path d="M81.0209 116.111C79.2886 117.412 73.4252 121.575 64.7634 121.705C55.9683 121.705 49.8384 117.412 48.2393 116.111C48.6391 107.656 48.3726 97.3788 46.6402 85.9312C44.5081 72.5323 41.0434 61.3449 37.7119 52.6291C36.7791 47.4256 37.8451 43.0027 40.3771 41.7018C40.9101 41.4417 42.2427 40.9213 43.8418 40.9213C46.3737 40.7912 47.04 41.8319 48.1061 41.4417C48.8763 39.5448 48.9056 35.848 51.704 34.1568C52.9034 33.2462 54.6357 33.1161 55.9683 33.3763C57.7007 33.7666 58.2337 34.9373 58.9 34.6772C60.0993 34.2869 58.7668 30.9047 60.6324 28.433C62.2315 26.3516 65.2964 25.9614 66.096 25.9614C68.2281 25.8313 69.8272 26.6118 70.4935 27.0021C71.9594 23.7499 74.7578 21.5385 77.6895 21.5385C77.956 21.5385 80.3546 21.5385 82.2203 23.2296C83.4196 24.2703 83.6861 25.5711 84.2191 27.1322C84.8854 29.3436 85.5517 31.9454 86.6178 35.5878C87.0176 36.1081 87.5506 36.4984 87.9504 37.0187C88.8832 37.2789 89.816 37.6692 90.6156 37.9293C93.8138 43.0027 96.3457 46.7752 97.9448 49.2468C101.41 54.3202 102.875 56.5317 102.742 59.7838C102.609 61.8652 101.943 63.2962 100.077 66.4183C97.9448 70.1908 95.2796 74.6137 92.4812 79.4269C91.0153 80.9879 89.0165 83.3295 86.6178 86.3215C81.9537 91.9152 81.4207 93.086 81.1542 93.7364C80.2214 96.208 80.3546 97.7691 80.6212 105.314C80.7544 107.526 80.8877 111.298 81.0209 116.111Z" fill="url(#paint0_linear)"/>
<path opacity="0.2" d="M81.0209 137.826C79.2886 139.127 73.4252 139.87 64.7634 140C55.9683 140 49.8384 139.127 48.2393 137.826C48.6391 129.371 48.3726 97.3788 46.6402 85.9312C44.5081 72.5323 41.0434 61.3449 37.7119 52.6291C36.7791 47.4256 37.8451 43.0027 40.3771 41.7018C40.9101 41.4417 42.2427 40.9213 43.8418 40.9213C46.3737 40.7912 47.04 41.8319 48.1061 41.4417C49.0461 39.6553 48.9056 35.848 51.704 34.1568C52.9034 33.2462 54.6357 33.1161 55.9683 33.3763C57.7007 33.7666 58.2337 34.9373 58.9 34.6772C60.0993 34.2869 58.7667 30.9047 60.6324 28.433C62.2315 26.3516 65.2964 25.9614 66.096 25.9614C68.2281 25.8313 69.8272 26.6118 70.4935 27.0021C71.9593 23.7499 74.7578 21.5385 77.6895 21.5385C77.956 21.5385 80.3546 21.5385 82.2203 23.2296C83.4196 24.2703 83.6861 25.5711 84.2191 27.1322C84.8854 29.3436 85.5517 31.9454 86.6178 35.5878C87.0176 36.1081 87.5506 36.4984 87.9504 37.0187C88.8832 37.2789 89.816 37.6692 90.6156 37.9293C93.8138 43.0027 96.3457 46.7752 97.9448 49.2468C101.41 54.3202 102.875 56.5317 102.742 59.7838C102.609 61.8652 101.943 63.2962 100.077 66.4182C97.9448 70.1908 95.2796 74.6137 92.4812 79.4269C91.0153 80.9879 89.0164 83.3295 86.6178 86.3215C81.9537 91.9152 81.4207 93.086 81.1542 93.7364C80.2214 96.208 80.3546 97.7691 80.6212 105.314C80.7544 107.526 80.8877 133.013 81.0209 137.826Z" fill="#FF7475"/>
<path d="M47.8918 137.827C47.8918 137.827 48.5581 103.838 47.8918 94.7324C46.959 82.5042 43.2277 70.2761 39.6298 58.3082C37.6309 51.9339 36.2983 46.9907 38.5637 43.6084C40.8291 40.0961 45.7597 39.966 48.5581 41.7872C47.7585 37.6244 50.2905 33.982 53.4887 33.3316C55.6208 32.9413 58.0195 33.982 59.6186 35.9333C58.4192 32.9413 59.2188 29.429 61.8839 27.4777C64.5491 25.3963 68.1471 25.3963 70.8123 27.3476C71.6118 24.3556 73.8772 22.1442 76.5424 21.6238C76.9422 21.6238 79.0743 21.3636 81.2064 22.4043C82.539 23.0548 83.4718 24.3556 85.604 30.7299C86.2703 32.5511 86.9366 34.6325 87.6029 36.974C88.0026 36.974 88.9354 36.8439 89.735 37.2342C91.2008 37.7545 91.8671 39.0554 92.1336 39.4457C94.5323 43.6084 102.128 54.4056 102.928 58.1781C103.327 59.9993 101.995 63.2515 100.129 66.8939C98.2635 70.2761 95.8649 73.7885 94.1325 76.6504C88.1359 86.4068 82.9388 89.1387 81.7395 92.7811C80.5402 96.2934 80.9399 137.827 80.9399 137.827" stroke="#FF7475" stroke-miterlimit="10" stroke-linecap="round" stroke-linejoin="round"/>
<path d="M71.0786 27.3486C72.6777 31.7715 74.1436 36.3245 75.7427 40.7475" stroke="#FF7475" stroke-width="0.9538" stroke-miterlimit="10" stroke-linecap="round"/>
<path d="M87.3361 36.8448C79.3405 39.7067 71.4783 42.4386 63.4828 45.1704C63.083 49.073 64.6821 52.5853 67.6138 54.2764C69.4794 55.3171 71.345 55.3171 72.4111 55.3171" stroke="#FF7475" stroke-miterlimit="10" stroke-linecap="round"/>
<path d="M41.4952 63.7728C43.4941 65.8542 46.4258 66.7648 48.8245 65.8542C52.1559 64.8135 54.4213 60.5206 53.0887 56.2278C51.6229 51.2845 49.9937 46.6323 48.5279 41.689" stroke="#FF7475" stroke-width="0.9874" stroke-miterlimit="10" stroke-linecap="round"/>
<path d="M59.4708 35.5046C60.6702 38.7568 62.1503 42.3085 63.3496 45.5607" stroke="#FF7475" stroke-miterlimit="10" stroke-linecap="round" stroke-linejoin="round"/>
<path d="M53.7551 58.4393C56.0205 60.3905 58.9522 61.041 61.4841 60.1304C64.1493 59.0897 66.0149 56.2278 65.8817 53.1057" stroke="#FF7475" stroke-width="0.9937" stroke-miterlimit="10" stroke-linecap="round"/>
</g>
<defs>
<linearGradient id="paint0_linear" x1="70.0643" y1="21.5385" x2="70.0643" y2="121.705" gradientUnits="userSpaceOnUse">
<stop stop-color="#5E60A6"/>
<stop offset="1" stop-color="#26274D" stop-opacity="0"/>
</linearGradient>
</defs>
</svg>
