<svg width="140" height="140" viewBox="0 0 140 140" fill="none" xmlns="http://www.w3.org/2000/svg">
<mask id="mask0" mask-type="alpha" maskUnits="userSpaceOnUse" x="0" y="0" width="140" height="140">
<circle cx="70" cy="70" r="70" fill="#C4C4C4"/>
</mask>
<g mask="url(#mask0)">
<path d="M51.1493 143.033C51.1493 143.033 56.3993 125.125 52.316 117.192C48.2327 109.2 46.366 111.825 43.9743 100.392C43.216 96.8334 43.6243 75.075 42.6327 70.0583C40.4743 59.5 38.8993 52.9667 37.9077 48.9417C37.5577 47.6 37.1493 46.4333 36.6243 44.0417C35.2827 38.0333 35.7493 36.4583 36.566 35.5833C37.266 34.8833 38.141 34.7667 38.4327 34.7083C41.0577 34.0667 44.091 38.5583 51.266 64.1667C51.266 64.1667 40.1827 28.7583 41.2327 22.3417C41.6993 19.4833 43.1577 19.25 43.6243 19.1917C49.7493 18.4917 56.516 60.3167 63.691 59.85C65.1493 59.7333 66.9577 57.9833 68.766 50.925C68.766 50.925 74.891 13.7667 75.2993 11.6667C76.5243 4.66667 81.4243 4.95834 82.1827 10.7917C82.591 13.9417 82.4743 14.4667 79.8493 48.7667C79.8493 49.9333 79.7327 51.3917 79.3827 53.025C79.0327 54.5417 78.566 55.7667 78.1577 56.7583C78.1577 56.7 79.266 55.125 79.5577 52.0917C79.6743 50.8083 79.8493 49.175 80.0243 47.3083C82.4743 23.5083 83.816 17.4417 87.0827 15.9833C87.491 15.8083 88.2493 15.5167 89.0077 15.8667C92.041 17.5 90.5827 29.1083 89.9993 35.7C88.5993 50.925 88.1327 78.1084 93.4993 81.2584C94.4327 81.55 96.3577 82.3083 96.416 83.3583C96.4743 84.5833 94.141 85.925 90.466 86.8C91.0493 86.625 92.0993 86.275 93.3827 85.6334C101.899 81.6084 102.133 74.9 110.299 70.2917C112.049 69.3 116.424 66.9083 119.633 68.6C119.983 68.775 121.324 69.475 121.791 70.875C122.491 73.2667 119.749 75.6583 114.966 80.5583C110.358 85.2833 108.024 87.675 105.633 90.825C103.124 94.0917 102.891 95.1417 101.608 97.4167C101.024 98.4667 100.499 99.225 99.216 101.033C96.1827 105.408 94.6077 107.625 94.0827 108.092C91.691 110.192 90.5827 109.783 88.3077 112.058C86.7327 113.633 85.7993 115.267 85.216 116.433C84.0493 132.767 86.3827 147.35 86.3827 147.35" fill="url(#paint0_linear)"/>
<path opacity="0.2" d="M50.6827 142.975C50.6827 142.975 55.9327 125.067 51.8493 117.133C47.766 109.142 45.8993 111.767 43.5077 100.333C42.7493 96.775 43.1577 75.0166 42.166 70C40.066 59.5 38.491 52.9083 37.4993 48.9416C37.1493 47.6 36.741 46.4333 36.216 44.0416C34.8743 38.0333 35.341 36.4583 36.1577 35.5833C36.8577 34.8833 37.7327 34.7666 38.0243 34.7083C40.591 34.0666 43.6827 38.5583 50.7993 64.1666C50.7993 64.1666 39.716 28.7583 40.766 22.3416C41.2327 19.4833 42.691 19.25 43.1577 19.1916C49.2827 18.4916 56.0493 60.3166 63.2243 59.85C64.6827 59.7333 66.491 57.9833 68.2993 50.925C68.2993 50.925 74.4243 13.7666 74.8327 11.6666C76.0577 4.60832 80.9577 4.89998 81.716 10.7333C82.1243 13.8833 82.0077 14.4083 79.3827 48.7083C79.3827 49.875 79.266 51.3333 78.916 52.9666C78.566 54.4833 78.0993 55.7083 77.691 56.7C77.691 56.6416 78.7993 55.0666 79.091 52.0333C79.2077 50.75 79.3827 49.1166 79.5577 47.25C82.0077 23.45 83.3493 17.3833 86.616 15.925C87.0243 15.75 87.7827 15.4583 88.541 15.8083C91.5743 17.4416 90.116 29.05 89.5327 35.6416C88.1327 50.8666 87.666 78.05 93.0327 81.2C93.966 81.4916 95.891 82.25 95.9493 83.3C96.0077 84.525 93.6743 85.8666 89.9993 86.7416C90.5827 86.5666 91.6327 86.2166 92.916 85.575C101.433 81.55 101.666 74.8416 109.833 70.2333C111.583 69.2416 115.958 66.85 119.166 68.5416C119.516 68.7166 120.858 69.4166 121.324 70.8166C122.024 73.2083 119.283 75.6 114.499 80.5C109.891 85.225 107.558 87.6166 105.166 90.7666C102.658 94.0333 102.424 95.0833 101.141 97.3583C100.558 98.4083 100.033 99.1666 98.7493 100.975C95.716 105.35 94.141 107.567 93.616 108.033C91.2243 110.133 90.116 109.725 87.841 112C86.266 113.575 85.3327 115.208 84.7493 116.375C83.5827 132.708 85.916 147.292 85.916 147.292" fill="#FF7475"/>
<path d="M90.291 86.6833C90.8743 86.5083 91.9826 86.1583 93.2076 85.5166C101.724 81.4916 101.958 74.7833 110.124 70.175C111.874 69.1833 116.249 66.7916 119.458 68.4833C119.808 68.6583 121.149 69.3583 121.616 70.7583C122.316 73.15 119.574 75.5416 114.791 80.4416C110.183 85.1666 107.849 87.5583 105.458 90.7083C101.958 95.3166 102.891 95.55 99.041 100.975C95.541 105.817 92.8576 109.492 88.1326 112C84.6326 113.867 81.3076 114.45 79.2076 114.625" stroke="#FF7475" stroke-miterlimit="10" stroke-linecap="round"/>
<path d="M78.0409 56.7C78.0409 56.7 79.1492 55.125 79.4409 52.0333C79.5576 50.75 79.7326 49.1167 79.9076 47.25C82.3576 23.45 83.6992 17.3833 86.9659 15.925C87.3742 15.75 88.1326 15.4583 88.8909 15.8083C91.9242 17.4417 90.4659 29.05 89.8826 35.6417C88.4826 50.8667 88.0159 78.05 93.3826 81.2" stroke="#FF7475" stroke-miterlimit="10" stroke-linecap="round"/>
<path d="M86.2077 147.233C86.2077 147.233 83.8744 132.65 85.041 116.317" stroke="#FF7475" stroke-miterlimit="10" stroke-linecap="round"/>
<path d="M51.0909 142.975C51.0909 142.975 56.3409 125.067 52.2576 117.133C48.1743 109.142 46.3076 111.767 43.9159 100.333C43.1576 96.775 43.5659 75.0167 42.5743 70C40.4743 59.5 38.8993 52.9083 37.9076 48.9417C37.5576 47.6 37.1493 46.4333 36.6243 44.0417C35.2826 38.0333 35.7493 36.4583 36.5659 35.5833C37.2659 34.8833 38.1409 34.7667 38.4326 34.7083C40.9993 34.0667 44.0909 38.5583 51.2076 64.1667C51.2076 64.1667 40.1243 28.7583 41.1743 22.3417C41.6409 19.4833 43.0993 19.25 43.5659 19.1917C49.6909 18.4917 56.4576 60.3167 63.6326 59.85C65.0909 59.7333 66.8993 57.9833 68.7076 50.925C68.7076 50.925 74.8326 13.7666 75.2409 11.6666C76.4659 4.60832 81.3659 4.89998 82.1243 10.7333C82.5326 13.8833 82.4159 14.4083 79.7909 48.7083" stroke="#FF7475" stroke-miterlimit="10" stroke-linecap="round"/>
</g>
<defs>
<linearGradient id="paint0_linear" x1="78.839" y1="6.41418" x2="78.839" y2="147.35" gradientUnits="userSpaceOnUse">
<stop stop-color="#5E60A6"/>
<stop offset="1" stop-color="#26274D" stop-opacity="0"/>
</linearGradient>
</defs>
</svg>
