<svg width="157" height="202" viewBox="0 0 157 202" fill="none" xmlns="http://www.w3.org/2000/svg">
    <mask id="mask0" mask-type="alpha" maskUnits="userSpaceOnUse" x="0" y="0" width="157" height="202">
        <path d="M157 101C157 156.781 111.781 202 56 202L9.99998 202C4.47713 202 -1.48674e-05 197.523 -1.43846e-05 192L1.52638e-06 10C2.00921e-06 4.47714 4.47716 1.92482e-06 10 2.40764e-06L147 1.43846e-05C152.523 1.48674e-05 157 4.47717 157 10L157 101Z" fill="url(#paint0_linear)"/>
    </mask>
    <g mask="url(#mask0)">
        <path opacity="0.1" d="M7.95801 216.298C7.91131 216.325 7.88502 216.279 7.81204 216.261C-0.569275 215.331 -6.15601 209.753 -6.55902 209.378C-13.0891 202.705 -12.9147 194.164 -12.8512 192.549C-8.16947 191.06 -2.58607 188.869 3.3909 185.418C6.70624 183.504 9.65666 181.497 12.1546 179.569C12.7686 175.025 14.2589 171.675 15.3352 169.657C18.7858 163.232 26.3895 154.835 33.6439 155.322C35.1385 155.431 36.5779 155.875 38.9334 155.425C40.5038 155.126 41.8172 154.489 45.6081 151.997C47.3299 150.881 49.5595 149.351 52.0838 147.469C53.3064 146.459 55.2178 144.809 57.4909 142.708C63.1869 137.476 65.6523 134.413 70.2071 129.901C72.5678 127.627 76.0314 124.353 80.6742 120.64C82.8371 120.181 84.2384 120.343 84.8517 121.082C86.5457 123.261 81.8344 130.414 70.7176 142.54C68.2902 145.884 65.8162 149.255 63.4152 152.645C63.0797 153.143 62.4088 154.137 62.1934 155.597C61.9226 157.393 62.4983 158.821 62.7671 159.395C70.0842 156.324 77.5939 153.263 85.2962 150.213C91.6326 147.708 97.9282 145.349 104.084 143.07C105.079 143.284 106.095 143.426 107.091 143.641C107.69 144.57 108.309 145.427 108.908 146.357C108.336 147.415 107.764 148.474 107.193 149.533C103.997 151.438 99.0676 154.224 92.8277 157.219C80.1612 163.318 69.032 167.011 69.5206 169.582C69.7957 171.245 74.1159 168.556 76.1927 173.806C77.3876 176.091 76.3058 178.962 75.3229 180.926C74.5232 181.267 73.7498 181.653 72.9501 181.993C70.6471 182.533 70.1248 183.138 70.0287 183.619C69.8423 184.698 72.1779 185.292 72.6634 187.319C72.9675 188.601 72.355 189.805 71.9583 190.52C69.7182 194.727 62.6401 196.81 60.9822 197.282C52.4068 199.682 45.6202 200.868 43.7171 201.238C32.4325 203.26 30.5627 201.486 22.3714 206.215C18.3466 207.871 13.2102 210.837 7.95801 216.298Z" fill="#0A0B16"/>
        <path d="M0.961181 196.917C0.914481 196.944 0.888196 196.898 0.81521 196.88C-7.5661 195.951 -13.1528 190.372 -13.5558 189.997C-20.0859 183.324 -19.9115 174.783 -19.848 173.168C-15.1663 171.679 -9.58289 169.488 -3.60593 166.037C-0.290582 164.123 2.65983 162.116 5.15781 160.188C5.7718 155.644 7.26206 152.294 8.33837 150.276C11.789 143.852 19.3927 135.454 26.647 135.941C28.1417 136.05 29.581 136.494 31.9366 136.045C33.507 135.745 34.8203 135.108 38.6113 132.616C40.3331 131.501 42.5627 129.97 45.0869 128.088C46.3096 127.078 48.221 125.428 50.4941 123.327C56.1901 118.095 58.6554 115.032 63.2103 110.52C65.5709 108.247 69.0346 104.972 73.6774 101.259C75.8403 100.8 77.2415 100.962 77.8549 101.701C79.5489 103.88 74.8375 111.033 63.7207 123.159C61.2934 126.503 58.8194 129.874 56.4184 133.264C56.0829 133.762 55.4119 134.756 55.1965 136.216C54.9258 138.012 55.5015 139.441 55.7703 140.014C63.0873 136.943 70.597 133.883 78.2994 130.832C84.6358 128.327 90.9314 125.968 97.087 123.689C98.0825 123.904 99.0984 124.046 100.094 124.26C100.693 125.19 101.312 126.046 101.911 126.976C101.339 128.034 100.767 129.093 100.196 130.152C97 132.058 92.0708 134.843 85.8309 137.838C73.1644 143.937 62.0352 147.63 62.5238 150.202C62.7989 151.864 67.1191 149.175 69.1959 154.425C70.3908 156.71 69.309 159.582 68.3261 161.546C67.5264 161.886 66.753 162.272 65.9533 162.612C63.6503 163.152 63.128 163.757 63.0319 164.238C62.8455 165.317 65.1811 165.912 65.6665 167.939C65.9707 169.22 65.3582 170.424 64.9615 171.139C62.7214 175.347 55.6433 177.429 53.9854 177.901C45.41 180.302 38.6234 181.488 36.7203 181.858C25.4357 183.88 23.5658 182.105 15.3746 186.835C11.3498 188.49 6.21333 191.456 0.961181 196.917Z" fill="url(#paint1_linear)"/>
        <path d="M-19.6685 172.94C-0.0957836 165.647 4.96726 161.692 5.14143 159.405C5.12965 159.169 5.23715 157.953 5.63343 156.267C5.85786 155.47 6.38834 153.585 7.82643 151.115C11.9453 144.123 18.8004 139.497 18.8004 139.497C21.8356 137.744 23.6798 136.194 26.593 135.848C28.575 135.614 28.5986 136.086 33.2403 136.685C39.8409 137.55 42.1117 136.846 44.2786 138.874C44.4041 138.983 44.3049 138.919 46.2559 141.436C47.0007 142.402 49.0044 145.01 49.8748 146.086C54.3522 151.577 57.6892 152.504 57.258 154.453C56.9229 155.922 54.8448 156.636 53.9458 156.912C50.7819 158.01 47.8271 156.559 46.4227 155.851C42.3613 153.885 40.5295 150.389 39.8808 148.942C38.6404 149.597 36.6675 150.494 34.0666 150.841C30.2223 151.3 27.2385 150.23 25.8866 149.614" stroke="#8B8ECE" stroke-miterlimit="10" stroke-linecap="round" stroke-linejoin="round"/>
        <path d="M31.3425 136.202C38.1691 132.929 43.2557 129.446 46.8684 126.753L69.2547 104.599C69.4356 104.373 73.6314 99.8858 76.9802 101.049C77.3714 101.187 77.7627 101.326 78.046 101.709C79.9708 104.18 73.9166 111.379 73.9166 111.379C63.1063 123.389 55.9146 132.823 55.326 135.471C54.991 136.939 55.1695 138.111 55.1695 138.111C55.1695 138.111 55.3159 139.119 56.8585 142.115" stroke="#8B8ECE" stroke-miterlimit="10" stroke-linecap="round" stroke-linejoin="round"/>
        <path d="M55.8972 139.695L95.0219 124.21C95.0219 124.21 99.3414 122.202 101.553 125.601C103.717 129.026 96.5316 132.325 96.5316 132.325L63.7768 148.382C63.59 148.49 63.1493 148.805 62.8197 149.42C62.5572 149.936 62.5808 150.408 62.6393 150.618" stroke="#8B8ECE" stroke-miterlimit="10" stroke-linecap="round" stroke-linejoin="round"/>
        <path d="M57.1492 152.755C57.1492 152.755 62.3473 150.543 63.982 150.571C64.5338 150.556 65.9409 150.837 67.29 151.879C67.839 152.291 69.5181 153.689 69.7615 156.16C69.9871 158.276 69.0333 159.859 68.6978 160.356C68.6978 160.356 68.3042 161.616 65.4468 162.598C62.5426 163.606 62.5426 163.606 62.5426 163.606C63.1238 164.182 65.6996 166.702 65.1491 169.631C64.8607 171.072 63.8892 172.301 62.1528 173.607C56.0099 178.065 43.9782 180.518 40.744 181.171C40.744 181.171 25.1419 182.832 23.9568 183.152C21.0935 184.015 14.059 185.527 0.90715 196.824" stroke="#8B8ECE" stroke-miterlimit="10" stroke-linecap="round" stroke-linejoin="round"/>
        <path d="M46.4751 155.942C46.4751 155.942 37.0184 158.974 36.245 159.359C35.4715 159.745 32.8331 160.783 32.6295 162.479C32.4258 164.175 33.2178 166.086 34.6544 166.957C35.6938 167.571 36.7243 167.522 37.0833 167.497C40.0287 167.315 49.6876 165.928 62.6885 163.644C55.9224 164.757 49.1767 165.798 42.4105 166.911C41.9114 167.017 41.2722 167.204 40.5251 167.635C40.2449 167.797 37.9102 169.145 37.9459 170.825C37.9699 172.268 39.8181 173.205 40.3145 173.525C42.7321 174.801 45.5927 174.364 51.2409 173.471C52.0991 173.34 54.1482 173.007 56.8718 173.195C57.3768 173.207 57.7885 173.273 58.0541 173.302" stroke="#8B8ECE" stroke-miterlimit="10" stroke-linecap="round" stroke-linejoin="round"/>
        <path opacity="0.1" d="M158.577 22.0638C160.523 22.8939 164.015 27.4909 168.355 34.7542C172.65 42.1938 174.906 47.8051 174.586 49.7931C167.239 53.5843 140.308 69.4336 131.47 76.4896C121.178 84.8367 113.407 93.231 107.661 100.306C103.715 103.636 99.4534 104.894 97.1165 103.388C96.6362 103.064 95.5452 102.191 94.7643 100.838C93.4177 98.7599 93.9726 97.6881 93.1219 96.9769C91.1518 97.0542 87.9998 99.0324 85.2027 97.4911C83.8467 96.9214 82.8906 95.5195 82.4599 94.2653C81.944 92.6093 82.674 91.5867 82.1285 91.1501C81.2127 90.3262 79.0025 93.1052 76.0007 92.7342C73.4592 92.398 71.6323 89.996 71.2418 89.3197C70.0905 87.5797 69.9698 85.8459 69.9745 85.0917C66.5077 85.44 63.2704 84.1529 61.8386 81.6731C61.7085 81.4476 60.5371 79.4187 61.0564 77.0147C61.351 75.492 62.3212 74.6312 63.3814 73.418C64.9266 71.7744 66.8019 69.9402 69.3623 67.2596C69.6073 66.6673 69.677 66.0258 69.922 65.4335C69.6865 64.5174 69.561 63.5378 69.3906 62.7344C72.1202 57.5515 74.0747 53.5674 75.3845 51.0077C77.9839 45.5993 79.1386 43.2794 81.9547 41.8038C83.7803 40.9001 85.3161 40.7649 88.8681 40.8182C93.1005 40.7794 98.1433 40.8738 103.581 40.8903C105.618 41.3679 108.575 41.9151 112.277 42.4829C119.286 43.6963 120.537 43.5754 121.217 43.4832C123.763 43.0652 125.019 42.1901 131.271 38.2799C133.076 37.0872 154.571 24.5272 158.577 22.0638Z" fill="#0A0B16"/>
        <path d="M140.001 12.2786C141.947 13.1087 148.332 16.0354 152.672 23.2987C156.967 30.7383 156.33 38.0199 156.01 40.0079C148.663 43.7991 140.1 49.0434 131.263 56.0994C120.97 64.4465 113.199 72.8409 107.453 79.9154C103.507 83.2456 99.2456 84.5039 96.9087 82.9975C96.4283 82.6736 95.3374 81.8006 94.5564 80.4479C93.2099 78.3698 93.7648 77.2979 92.914 76.5867C90.9334 76.8616 87.792 78.6422 84.9948 77.101C83.6388 76.5312 82.6828 75.1294 82.2521 73.8751C81.7361 72.2191 82.4662 71.1965 81.9207 70.76C81.0049 69.9361 78.7947 72.715 75.7929 72.344C73.2513 72.0079 71.4244 69.6059 71.0339 68.9296C69.8826 67.1896 69.7619 65.4557 69.7666 64.7015C66.2998 65.0499 63.0625 63.7628 61.6308 61.2829C61.5006 61.0575 60.3292 59.0285 60.8486 56.6245C61.1432 55.1018 62.1134 54.2411 63.1735 53.0278C64.7187 51.3842 66.5941 49.55 69.1545 46.8694C69.3994 46.2771 69.4692 45.6357 69.7141 45.0434C69.4786 44.1273 69.3532 43.1476 69.1828 42.3443C71.9123 37.1613 73.8669 33.1772 75.1766 30.6175C77.776 25.2091 78.9308 22.8892 81.7468 21.4137C83.5725 20.5099 85.1083 20.3747 88.6603 20.4281C92.8926 20.3892 97.9355 20.4836 103.373 20.5001C105.41 20.9777 108.367 21.525 112.069 22.0927C119.078 23.3062 120.329 23.1853 121.009 23.0931C123.556 22.675 124.811 21.8 131.063 17.8898C132.868 16.6971 135.994 14.742 140.001 12.2786Z" fill="url(#paint2_linear)"/>
        <path opacity="0.2" d="M158.369 1.67368C160.315 2.50374 163.807 7.10075 168.147 14.364C172.443 21.8036 174.698 27.4149 174.379 29.4029C167.031 33.1942 140.1 49.0434 131.263 56.0994C120.97 64.4465 113.199 72.8409 107.453 79.9154C103.507 83.2456 99.2456 84.5039 96.9087 82.9975C96.4283 82.6736 95.3374 81.8006 94.5564 80.4479C93.2099 78.3698 93.7648 77.2979 92.914 76.5867C90.9439 76.664 87.792 78.6422 84.9948 77.101C83.6388 76.5312 82.6828 75.1294 82.2521 73.8751C81.7361 72.2191 82.4662 71.1965 81.9207 70.76C81.0049 69.9361 78.7947 72.715 75.7929 72.344C73.2513 72.0079 71.4244 69.6059 71.0339 68.9296C69.8826 67.1896 69.7619 65.4557 69.7666 64.7016C66.2998 65.0499 63.0625 63.7628 61.6308 61.2829C61.5006 61.0575 60.3292 59.0285 60.8486 56.6245C61.1432 55.1018 62.1134 54.2411 63.1735 53.0278C64.7187 51.3842 66.5941 49.55 69.1545 46.8694C69.3994 46.2771 69.4692 45.6357 69.7141 45.0434C69.4786 44.1273 69.3532 43.1476 69.1828 42.3443C71.9123 37.1613 73.8669 33.1772 75.1766 30.6175C77.776 25.2091 78.9308 22.8892 81.7468 21.4137C83.5725 20.5099 85.1083 20.3747 88.6603 20.4281C92.8926 20.3892 97.9355 20.4836 103.373 20.5001C105.41 20.9777 108.367 21.525 112.069 22.0927C119.078 23.3062 120.329 23.1853 121.009 23.0931C123.556 22.675 124.811 21.8 131.063 17.8898C132.868 16.6971 154.363 4.137 158.369 1.67368Z" fill="url(#paint3_linear)"/>
        <path d="M174.549 29.6967C174.549 29.6967 145.473 45.732 138.096 50.7427C128.208 57.5035 119.687 66.6315 111.32 75.5197C106.905 80.3235 103.374 83.8648 99.4069 83.6003C95.3296 83.3994 92.8116 79.2923 92.9855 76.0357C89.8548 78.745 85.5372 78.3822 83.4251 75.9945C82.0537 74.3816 81.7626 71.8444 82.6322 69.5388C80.6871 72.0145 77.3256 73.0535 74.3735 71.752C71.3113 70.5141 69.5542 67.4706 69.9031 64.2633C66.9818 65.0481 64.0048 64.2119 62.2631 62.2116C62.0679 61.8734 60.8065 60.197 60.6456 57.8852C60.5449 56.4404 61.1898 55.016 65.5403 50.0995C66.7554 48.6465 68.1906 47.0664 69.8459 45.3593C69.6507 45.0211 69.0851 44.2956 69.0247 43.4287C68.749 41.9347 69.524 40.7358 69.7239 40.3197C72.0737 36.2578 77.4972 24.5598 80.2978 22.0411C81.6431 20.8135 85.0448 20.3524 89.037 20.1517C92.8091 20.078 96.9515 20.3916 100.218 20.4594C111.4 20.767 116.249 23.829 119.915 23.0646C123.472 22.3638 158.409 1.74209 158.409 1.74209" stroke="#FF7475" stroke-miterlimit="10" stroke-linecap="round" stroke-linejoin="round"/>
        <path d="M69.7741 64.0375C72.7344 60.5248 75.8698 57.0613 78.8301 53.5487" stroke="#FF7475" stroke-miterlimit="10" stroke-linecap="round" stroke-linejoin="round"/>
        <path d="M69.8672 45.6479C76.1928 51.0135 82.3432 56.3298 88.5587 61.7589C92.0551 60.1912 94.2451 57.1233 94.2439 53.8175C94.2131 51.7312 93.302 50.1531 92.7813 49.2513" stroke="#FF7475" stroke-miterlimit="10" stroke-linecap="round" stroke-linejoin="round"/>
        <path d="M115.032 71.2729C115.816 68.5656 115.155 65.6411 113.213 64.0568C110.706 61.7471 105.968 61.9273 102.988 65.151C99.5225 68.8051 96.3829 72.4551 92.9173 76.1092" stroke="#FF7475" stroke-miterlimit="10" stroke-linecap="round" stroke-linejoin="round"/>
        <path d="M82.3419 69.873C84.5072 67.2703 86.7886 64.2837 88.9539 61.681" stroke="#FF7475" stroke-miterlimit="10" stroke-linecap="round" stroke-linejoin="round"/>
        <path d="M104.533 63.5073C105.077 60.6381 104.196 57.8406 102.189 56.1437C100.007 54.3975 96.6753 54.2171 94.0995 55.8545" stroke="#FF7475" stroke-miterlimit="10" stroke-linecap="round" stroke-linejoin="round"/>
    </g>
    <defs>
        <linearGradient id="paint0_linear" x1="-7.34427e-06" y1="109.471" x2="157" y2="109.471" gradientUnits="userSpaceOnUse">
            <stop stop-color="#272754"/>
            <stop offset="1" stop-color="#2B2D5E"/>
        </linearGradient>
        <linearGradient id="paint1_linear" x1="98.092" y1="120.361" x2="-16.373" y2="186.448" gradientUnits="userSpaceOnUse">
            <stop stop-color="#5E60A6"/>
            <stop offset="1" stop-color="#272856"/>
        </linearGradient>
        <linearGradient id="paint2_linear" x1="65.3546" y1="67.7328" x2="150.083" y2="18.8148" gradientUnits="userSpaceOnUse">
            <stop stop-color="#5E60A6"/>
            <stop offset="1" stop-color="#26274D" stop-opacity="0"/>
        </linearGradient>
        <linearGradient id="paint3_linear" x1="65.3546" y1="67.7328" x2="165.559" y2="9.88008" gradientUnits="userSpaceOnUse">
            <stop stop-color="#FF7475"/>
            <stop offset="1" stop-color="#FF7475" stop-opacity="0"/>
        </linearGradient>
    </defs>
</svg>
