<svg width="120" height="120" viewBox="0 0 120 120" fill="none" xmlns="http://www.w3.org/2000/svg">
<mask id="mask0" mask-type="alpha" maskUnits="userSpaceOnUse" x="0" y="0" width="120" height="120">
<path d="M120 120L1.52588e-05 120L1.00134e-05 2.05042e-05C66.2308 1.76091e-05 120 53.7692 120 120Z" fill="#2C2E5F"/>
</mask>
<g mask="url(#mask0)">
<path d="M18.3555 128.643C18.3207 128.677 18.2867 128.644 18.218 128.645C10.6042 129.797 4.35685 126.224 3.91279 125.991C-3.42562 121.681 -5.29062 114.165 -5.61643 112.737C-1.83809 110.336 2.56962 107.108 7.0268 102.686C9.49915 100.233 11.6276 97.7846 13.3756 95.5113C12.8431 91.3901 13.3659 88.1086 13.8385 86.09C16.7354 80.3182 19.4191 72.9874 26.6019 69.2492C27.9461 68.9937 29.3209 69.0448 31.2928 68.0992C32.6074 67.4688 33.6155 66.6034 36.3707 63.5329C37.6261 62.1527 39.2313 60.2906 41.0132 58.051C41.8533 56.8806 43.1494 54.9882 44.658 52.6156C48.4463 46.7007 49.8973 43.4418 52.8491 38.4244C54.3941 35.8807 56.6757 32.202 59.8939 27.8636C61.6935 26.9542 62.9681 26.7678 63.6838 27.2706C65.6935 28.7808 63.2278 36.1461 56.2869 49.3665C54.9361 52.863 53.5504 56.394 52.2336 59.9242C52.0552 60.4382 51.6983 61.466 51.8535 62.7946C52.0391 64.4298 52.8847 65.545 53.2574 65.9839C58.9866 61.5801 64.8882 57.14 70.9622 52.6637C75.9601 48.9854 80.9564 45.4436 85.8481 42.0054C86.7771 41.9598 87.707 41.8459 88.6359 41.8002C89.3839 42.4732 90.1328 43.0779 90.8807 43.7509C90.6266 44.8116 90.3725 45.8723 90.1184 46.9331C87.7497 49.3505 84.0594 52.9443 79.2627 57.0295C69.5298 65.338 60.5846 71.1805 61.6235 73.3168C62.2593 74.7076 65.435 71.3409 68.508 75.4487C70.1024 77.1687 69.8268 79.9354 69.4239 81.8849C68.7988 82.3703 68.2077 82.8894 67.5827 83.3748C65.6787 84.3878 65.361 85.0399 65.3898 85.483C65.4804 86.4712 67.6814 86.4438 68.5889 88.1042C69.1601 89.1546 68.9043 90.3518 68.7233 91.0705C67.7417 95.2788 61.9898 98.7618 60.6386 99.5632C53.6408 103.676 47.934 106.305 46.3426 107.076C36.8652 111.492 34.7962 110.378 28.6878 116.438C25.5285 118.831 21.6981 122.631 18.3555 128.643Z" fill="url(#paint0_linear)"/>
<path d="M-5.51141 112.494C10.0319 101.521 13.5635 96.8716 13.1767 94.8295C13.1105 94.6256 12.9179 93.5364 12.869 91.9677C12.8785 91.2171 12.9009 89.4428 13.5858 86.944C15.5665 79.8576 20.5207 74.2012 20.5207 74.2012C22.7841 71.9556 24.0446 70.166 26.5328 69.1798C28.2261 68.5106 28.3585 68.9183 32.595 68.3539C38.6225 67.5626 40.4594 66.4139 42.8504 67.6806C42.9871 67.7471 42.8843 67.7143 45.2005 69.4594C46.086 70.1307 48.4701 71.9432 49.4923 72.681C54.7402 76.4366 57.9033 76.4655 57.9836 78.2726C58.0352 79.6365 56.3706 80.7489 55.6428 81.2014C53.1112 82.9045 50.1613 82.3272 48.7552 82.0376C44.7074 81.2692 42.2649 78.6386 41.3506 77.5242C40.4113 78.3888 38.8826 79.6359 36.6703 80.5504C33.3873 81.8534 30.5019 81.6164 29.1637 81.3942" stroke="#8B8ECE" stroke-miterlimit="10" stroke-linecap="round" stroke-linejoin="round"/>
<path d="M30.8067 68.3764C36.0553 63.9103 39.7193 59.6687 42.27 56.4643L56.7824 31.8237C56.8886 31.5836 59.5295 26.6723 62.7588 26.9051C63.1367 26.9345 63.5145 26.9639 63.855 27.2326C66.1372 28.9441 62.498 36.6651 62.498 36.6651C55.7999 49.712 51.6856 59.6563 51.7921 62.1113C51.8437 63.4752 52.2782 64.4591 52.2782 64.4591C52.2782 64.4591 52.6458 65.3074 54.7147 67.5674" stroke="#8B8ECE" stroke-miterlimit="10" stroke-linecap="round" stroke-linejoin="round"/>
<path d="M53.295 65.6747L84.1507 42.946C84.1507 42.946 87.4867 40.1753 90.2408 42.6315C92.9602 45.1221 87.4008 49.6944 87.4008 49.6944L62.3 71.4305C62.1607 71.5686 61.8464 71.9478 61.7011 72.5637C61.5915 73.0768 61.7239 73.4845 61.8249 73.6538" stroke="#8B8ECE" stroke-miterlimit="10" stroke-linecap="round" stroke-linejoin="round"/>
<path d="M57.4864 76.8118C57.4864 76.8118 61.5493 73.6569 62.998 73.2977C63.4812 73.1553 64.7889 73.0708 66.2256 73.667C66.8072 73.8985 68.6191 74.7289 69.4178 76.834C70.1172 78.6334 69.6498 80.2426 69.4714 80.7566C69.4714 80.7566 69.4219 81.9512 67.1332 83.4807C64.8096 85.0447 64.8096 85.0447 64.8096 85.0447C65.4583 85.4119 68.3264 87.0138 68.5331 89.7062C68.6195 91.0356 68.0528 92.339 66.8298 93.8894C62.4641 99.2314 52.4296 104.201 49.7307 105.53C49.7307 105.53 36.359 110.643 35.3892 111.201C33.0673 112.629 27.2186 115.601 18.2865 128.574" stroke="#8B8ECE" stroke-miterlimit="10" stroke-linecap="round" stroke-linejoin="round"/>
<path d="M48.8231 82.105C48.8231 82.105 41.1968 86.9758 40.6056 87.4949C40.0145 88.014 37.9321 89.5409 38.1535 91.0733C38.3748 92.6057 39.5251 94.0925 40.9983 94.5176C42.0606 94.8114 42.9582 94.5274 43.269 94.4212C45.8242 93.5706 54.0175 90.0914 64.9471 85.043C59.2411 87.6043 53.536 90.0974 47.8301 92.6587C47.4148 92.8686 46.8951 93.1821 46.3379 93.7348C46.129 93.9421 44.3879 95.6695 44.8165 97.1311C45.1788 98.3888 47.0307 98.7752 47.5445 98.9394C49.9789 99.489 52.3991 98.4355 57.1709 96.3293C57.897 96.0132 59.626 95.2412 62.0734 94.7673C62.5218 94.6594 62.9005 94.6205 63.1417 94.5834" stroke="#8B8ECE" stroke-miterlimit="10" stroke-linecap="round" stroke-linejoin="round"/>
<path d="M13.0171 93.8421C13.3524 94.5202 13.8244 95.2649 14.4339 96.0078C15.3134 97.1568 16.2651 98.0319 17.0828 98.6358" stroke="#8B8ECE" stroke-miterlimit="10" stroke-linecap="round" stroke-linejoin="round"/>
</g>
<defs>
<linearGradient id="paint0_linear" x1="85.9482" y1="38.8572" x2="1.26318" y2="124.214" gradientUnits="userSpaceOnUse">
<stop stop-color="#5E60A6"/>
<stop offset="1" stop-color="#272856"/>
</linearGradient>
</defs>
</svg>
