<svg width="120" height="120" viewBox="0 0 120 120" fill="none" xmlns="http://www.w3.org/2000/svg">
<mask id="mask0" mask-type="alpha" maskUnits="userSpaceOnUse" x="0" y="0" width="120" height="120">
<path d="M120 120L0 120L1.43099e-06 -1.66898e-05C66.2308 -1.59e-05 120 53.7692 120 120Z" fill="#272754"/>
</mask>
<g mask="url(#mask0)">
<path d="M12.5835 125.349C10.6951 125.081 4.45302 124.022 -1.02061 118.71C-6.49623 113.235 -7.63993 106.746 -7.82561 104.94C-2.31245 99.9249 24.3592 73.0613 30.4077 64.8558C37.4222 55.1865 42.2301 46.0644 45.5823 38.564C48.2411 34.7437 51.6584 32.6538 54.0446 33.4202C54.5385 33.5901 55.6921 34.0958 56.6876 35.0914C58.3449 36.5867 58.1119 37.6494 59.0185 38.0702C60.679 37.3687 62.9988 35.0854 65.7939 35.7748C67.1075 35.9546 68.267 36.9521 68.9347 37.9437C69.7703 39.2652 69.3732 40.326 69.95 40.5788C70.9397 41.0825 72.2157 38.1472 74.916 37.7699C77.2074 37.4696 79.3585 39.1348 79.8563 39.6326C81.2647 40.879 81.7744 42.3605 81.9462 43.0183C84.8835 41.9062 88.0026 42.2716 89.8278 44.0968C89.9937 44.2628 91.4871 45.7561 91.5957 47.9705C91.6945 49.365 91.0505 50.3409 90.4105 51.6446C89.4485 53.4362 88.2435 55.4708 86.6396 58.4022C86.5645 58.9751 86.6534 59.5499 86.5783 60.1227C86.9971 60.8655 87.3349 61.6892 87.6707 62.3489C86.5033 67.4986 85.7309 71.4236 85.1877 73.958C84.1862 79.2736 83.722 81.563 81.6143 83.5048C80.2355 84.7176 78.9298 85.1937 75.8246 85.9759C72.1485 86.9972 67.7356 88.0915 62.9967 89.3459C61.1123 89.4051 58.41 89.6185 55.0539 89.9879C48.6677 90.5667 47.6069 90.9637 47.036 91.2027C44.9165 92.1608 44.0276 93.2156 39.4962 98.0789C38.2023 99.5386 15.4971 122.27 12.5835 125.349Z" fill="url(#paint0_linear)"/>
<path d="M-9.91513 107.085C-9.91513 107.085 20.4531 77.1985 25.7075 71.1145C32.7397 62.9208 38.0297 52.9849 43.2407 43.2939C45.9647 38.0809 48.2126 34.1737 51.7287 33.4784C55.3258 32.7021 58.4764 35.6908 59.0848 38.5668C61.1787 35.4774 65.0227 34.786 67.4188 36.3722C68.9891 37.4567 69.8346 39.5979 69.6153 41.8083C70.7314 39.1989 73.4159 37.51 76.29 37.9544C79.2451 38.3179 81.4851 40.5579 81.9295 43.432C84.2901 42.0671 87.0773 42.1006 89.0605 43.436C89.3094 43.6849 90.7988 44.8503 91.4783 46.8256C91.903 48.0602 91.6738 49.4509 89.0328 54.7467C88.3138 56.2954 87.4328 58.006 86.3898 59.8786C86.6387 60.1275 87.3004 60.6273 87.5552 61.368C88.1439 62.6046 87.7488 63.8293 87.6718 64.2382C86.5735 68.3232 84.5804 79.7742 82.7295 82.6207C81.8445 84.0034 78.9901 85.1985 75.561 86.3047C72.2938 87.2489 68.6137 87.9423 65.7534 88.6455C55.9459 90.9863 51.0095 89.4515 47.9952 90.9725C45.0618 92.4125 10.6599 127.66 10.6599 127.66" stroke="#8B8ECE" stroke-miterlimit="10" stroke-linecap="round" stroke-linejoin="round"/>
<path d="M82.0947 43.5983C80.3367 47.3475 78.4147 51.0947 76.6566 54.8439" stroke="#8B8ECE" stroke-miterlimit="10" stroke-linecap="round" stroke-linejoin="round"/>
<path d="M86.3041 59.6322C79.5445 56.4361 72.9488 53.242 66.2702 49.9649C63.5917 52.1457 62.4006 55.328 63.1729 58.206C63.6865 60.0154 64.848 61.1769 65.5117 61.8407" stroke="#8B8ECE" stroke-miterlimit="10" stroke-linecap="round" stroke-linejoin="round"/>
<path d="M40.9999 47.8574C40.9485 50.3977 42.2068 52.7898 44.2671 53.7162C46.9891 55.1424 51.0721 53.8802 52.9151 50.3779C55.0801 46.3877 56.9622 42.4771 59.1272 38.4869" stroke="#8B8ECE" stroke-miterlimit="10" stroke-linecap="round" stroke-linejoin="round"/>
<path d="M69.7903 41.4496C68.5122 44.221 67.2225 47.3537 65.9445 50.1251" stroke="#8B8ECE" stroke-miterlimit="10" stroke-linecap="round" stroke-linejoin="round"/>
<path d="M51.9531 52.1694C52.1487 54.7946 53.569 57.0248 55.7122 58.0342C58.0194 59.0455 60.9626 58.4253 62.8234 56.3986" stroke="#8B8ECE" stroke-miterlimit="10" stroke-linecap="round" stroke-linejoin="round"/>
</g>
<defs>
<linearGradient id="paint0_linear" x1="85.0806" y1="39.3496" x2="2.34963" y2="122.081" gradientUnits="userSpaceOnUse">
<stop stop-color="#5E60A6"/>
<stop offset="1" stop-color="#272856"/>
</linearGradient>
</defs>
</svg>
